<?xml version="1.0" encoding="UTF-8"?>
<svg background="new 0 0 20 25" version="1.1" viewBox="0 0 20 25" xml:space="preserve" xmlns="http://www.w3.org/2000/svg">
<path d="m8.7 0c-0.9 0.1-4 0.5-6.5 3-0.6 0.6-1.1 1.4-1.5 2.3-0.4 0.7-0.6 1.3-0.6 1.9 0 0.2-0.2 1.2 0 2.5 0.3 1.9 1.1 3.7 1.4 4.3 0.2 0.4 0.2 0.5 0.3 0.7 0.3 1.1 0.1 2.1-0.1 3.2-0.1 0.8-0.3 1.1-0.1 1.6s0.6 0.7 0.7 0.8c1.1 0.6 2.3-0.3 3.1 0.3 0.2 0.2 0.3 0.4 0.4 0.6 0.4 1-0.2 1.7-0.1 2.3 0.4 1.7 7.5 1.9 8.1 0.1 0.3-0.9-0.5-1.7 0.1-2.5 0.4-0.6 1.4-0.9 2.1-0.9 0.6 0 0.9 0.1 1.4-0.2s0.6-0.9 0.6-0.9c0.2-0.8-0.3-1-0.4-2.2-0.1-0.9 0.2-1.7 0.3-2.3 0.1-0.4 0.2-0.7 0.3-0.9 0.9-2.4 1.4-2.6 1.7-3.9 0.2-1.2 0-2.3-0.1-2.7 0-0.2-0.2-0.9-0.7-1.8 0 0-0.6-1.2-1.7-2.3-1.1-1.2-4.4-3.4-8.7-3zm-3.1 13.2c0.3 0 0.5 0.1 0.8 0.2s0.6 0.2 0.9 0.5c0.7 0.5 1 0.8 1.2 1.2 0.1 0.1 0.1 0.2 0.1 0.3 0 0.3-0.1 0.6-0.5 1.1-0.4 0.6-1 1-1.7 1.2-0.3 0.1-0.6 0.1-0.9 0.1-0.8 0-1.4-0.2-1.8-0.5-0.6-0.4-0.9-1.3-0.8-2.1 0.1-1 0.5-1.7 1.2-1.9 0.2-0.2 1-0.2 1.5-0.1zm9.7 0c0.2 0 0.4 0.1 0.6 0.2s0.4 0.4 0.5 0.6 0.2 0.6 0.3 0.8v1c-0.2 0.8-0.7 1.4-1.3 1.6-0.8 0.3-1.8 0.3-2.5 0-0.2-0.1-0.6-0.3-0.8-0.5-0.3-0.3-0.7-0.7-0.9-1.1-0.3-0.6-0.2-1.1 0.6-1.8 0.7-0.5 1.2-0.8 1.8-0.9 0.3 0 1.3 0 1.7 0.1zm-5.2 3.8s0.1 0 0.1 0.1c0.1 0.1 1.2 2.3 1.2 2.5s0.1 0.4 0 0.5c-0.1 0.2-0.4 0.3-0.7 0.1-0.1-0.1-0.2-0.1-0.3-0.5 0-0.1-0.1-0.2-0.1-0.2-0.1-0.2-0.4-0.3-0.6-0.2-0.1 0-0.3 0.2-0.4 0.4-0.1 0.3-0.3 0.4-0.5 0.5-0.1 0-0.3 0-0.4-0.1s-0.1-0.2-0.1-0.3c0-0.2 0.1-0.4 0.6-1.5 0.6-1.2 0.6-1.3 0.8-1.3 0.1-0.1 0.3-0.1 0.4 0z"/>
</svg>
