<?xml version="1.0" encoding="utf-8"?>
<!-- Generator: Adobe Illustrator 23.0.1, SVG Export Plug-In . SVG Version: 6.00 Build 0)  -->
<svg version="1.1" id="Слой_1" xmlns="http://www.w3.org/2000/svg" xmlns:xlink="http://www.w3.org/1999/xlink" x="0px" y="0px"
	 width="110px" height="40px" viewBox="0 0 110 40" style="enable-background:new 0 0 110 40;" xml:space="preserve">
<style type="text/css">
	.st0{fill:#FEFEFE;}
	.st1{fill:#171719;}
	.st2{fill:#26A826;}
</style>
<rect class="st0" width="110" height="40"/>
<g>
	<path class="st1" d="M63.3,14.6c-1,0.1-1.8,0.6-2.6,1.2c-0.2-1-0.2-1-1.2-1c-0.1,0-0.2,0-0.3,0c-0.5-0.1-0.7,0.1-0.7,0.7
		c0,4.3,0,8.7,0,13c0,1.8,0,1.7,1.8,1.7c0.4,0,0.6-0.2,0.6-0.6c0-0.8,0-1.7,0-2.6c0-0.6,0-1.2,0-1.8c0.1,0.1,0.2,0.1,0.2,0.1
		c3,1.8,5.8,0.2,6.9-2.5c0.6-1.7,0.6-3.4,0.1-5.1C67.4,15.3,65.7,14.3,63.3,14.6z M65.4,22.6c-1,1.8-3,1.6-4.4,0.5
		c-0.2-0.1-0.1-0.3-0.1-0.5c0-0.7,0-1.5,0-2.2s0-1.5,0-2.2c0-0.2,0.1-0.4,0.3-0.6c0.6-0.4,1.3-0.8,2-1.1c1-0.2,1.9,0.3,2.3,1.2
		C66.2,19.4,66.2,21.1,65.4,22.6z"/>
	<path class="st1" d="M78.4,17.2c-0.4-1.4-1.2-2.3-2.6-2.6c-1.6-0.3-3.2,0-4.6,0.7s-1.3,0.4-0.5,1.8c0.2,0.4,0.4,0.5,1,0.2
		c0.8-0.5,1.8-1,2.9-0.8c0.8,0,1.5,0.4,1.7,1.3c0.2,0.7,0.2,0.7-0.5,0.8c-0.2,0-0.3,0-0.5,0.1c-1.3,0.2-2.4,0.4-3.5,1.1
		c-1.5,0.8-2.1,2.3-1.7,4c0.4,1.5,1.8,2.3,3.5,2.1c1.2-0.1,2.1-0.6,3.1-1.3c0.2,1.2,0,1.1,1.2,1.1c0.1,0,0.3,0,0.4,0
		c0.4,0.1,0.6-0.1,0.6-0.6v-5.5C78.7,18.4,78.6,17.8,78.4,17.2z M75.7,23.3c-0.8,0.5-1.8,1-2.9,0.6c-1-0.3-1.1-1.7-0.2-2.4
		c0.5-0.4,1.2-0.6,1.8-0.7c0.5-0.1,1-0.2,1.5-0.3c0.3-0.1,0.4,0.1,0.4,0.4s0,0.5,0,0.8C76.3,22.2,76.4,22.9,75.7,23.3z"/>
	<path class="st1" d="M30.4,11.1c-0.3,0-0.7,0-1.1,0c-0.5-0.1-0.6,0.1-0.6,0.6c0,2.5,0,5.2,0,7.8c0,0.7,0,1.4-0.2,2
		c-0.3,1.2-1,2-2.2,2.2c-1.4,0.2-2.5-0.2-3.2-1.3c-0.4-0.7-0.5-1.6-0.6-2.3c0-1,0-2,0-3c0-0.4-0.1-0.5-0.5-0.5s-1,0-1.4,0
		c-0.3,0-0.4,0.1-0.4,0.4c0,1.5-0.1,3,0.1,4.4c0.3,1.6,1,3.1,2.4,3.9c0.7,0.4,1.6,0.5,2.4,0.6c3.1,0.2,5.2-1.4,5.6-4.4
		c0.3-1.8,0.1-3.5,0.2-5c0-1.8,0-3.4,0-4.9C31.1,11.2,31,11,30.4,11.1z"/>
	<path class="st1" d="M42.5,17.4c-0.5-2.9-3-3.2-4.7-2.6c-0.7,0.2-1.4,0.8-2.1,1.2c-0.2-0.4,0.2-1-0.4-1.2c-0.4-0.1-0.8,0-1.3,0
		c-0.4,0-0.5,0.2-0.5,0.5c0,3.3,0,6.6,0,9.9c0,0.4,0.1,0.6,0.5,0.5c0.4,0,0.7,0,1.2,0c0.5,0.1,0.6-0.2,0.6-0.6c0-2.2,0-4.3,0-6.6
		c0-0.2-0.1-0.4,0.1-0.6c0.5-0.5,1.1-1,1.7-1.2c1.3-0.4,2.2,0.1,2.4,1.5c0,0.3,0.1,0.6,0.1,1c0,2,0,3.9,0,5.9c0,0.6,0.2,0.7,0.7,0.7
		c0.3,0,0.7,0,1.1,0c0.5,0,0.6-0.2,0.6-0.6c0-1.9,0-3.8,0-5.8C42.7,18.7,42.6,18,42.5,17.4z"/>
	<path class="st1" d="M89.4,14.8c-0.3,0-0.6,0-1,0c-0.6-0.1-0.8,0.2-1.1,0.7C86.7,18,85.8,20.4,85,23c-0.8-2.2-1.6-4.3-2.4-6.6
		c-0.6-1.6-0.6-1.6-2.3-1.6c-0.6,0-0.7,0.1-0.4,0.6c1.3,3,2.4,6,3.7,9c0.4,1.1,0.2,1.9-0.3,2.8c-0.5,0.8-1.3,1.2-2.2,1
		c-0.4-0.1-0.6,0.1-0.6,0.4c0,0.5-0.7,1.2,0.1,1.5c1,0.3,1.9,0.3,2.8-0.2c1.3-0.6,1.9-1.7,2.4-2.9c0.6-1.7,1.3-3.4,1.8-5.1
		c0.7-2.2,1.6-4.3,2.3-6.6C90,14.9,89.8,14.7,89.4,14.8z"/>
	<path class="st1" d="M55.9,23.9c-1.4,0.4-2.1-0.1-2.1-1.5c0-1.4,0-2.8,0-4c0-0.5-0.2-1.2,0.1-1.4c0.1-0.2,1-0.1,1.4-0.1
		c1.6,0,1.4,0.2,1.4-1.4c0-0.5-0.2-0.6-0.6-0.6c-0.6,0-1.3,0-1.9,0c-0.3,0-0.4-0.1-0.4-0.4c0-0.6,0-1.4,0-2c0-0.3-0.1-0.5-0.5-0.5
		c-2.1,0.1-1.6-0.3-1.7,1.5c0,0.1,0,0.2,0,0.3c0,1.3-0.1,1.1-1.1,1.2c-0.7,0-0.8-0.1-0.7,0.7c0,1.4-0.3,1.1,1.2,1.2
		c0.3,0,0.4-0.1,0.4,0.4c0,1,0,1.8,0,2.8c0,0.7,0,1.5,0,2.3c0,1,0.1,2,0.8,2.8c1,1.1,2.2,1.2,3.5,0.8c1.6-0.3,1.3-0.4,1-1.6
		C56.4,23.8,56.4,23.7,55.9,23.9z"/>
	<path class="st1" d="M48,16.4c0-1.6,0-1.6-1.6-1.7c-0.6,0-0.7,0.2-0.7,0.7c0,2.9,0,5.6,0,8.5c0,0.5-0.2,1.3,0.1,1.6s1.1,0,1.6,0.1
		c0.5,0,0.6-0.2,0.6-0.6c0-1.6,0-3.2,0-4.9C48,18.9,48,17.7,48,16.4z"/>
	<path class="st2" d="M47.1,10.4c-0.7-0.1-1.6-0.2-2.2-0.5c-0.2-0.1-0.3-0.1-0.5,0c-0.2,0.2-0.1,0.4,0,0.5c0.5,1,1.1,1.8,1.8,2.4
		c0.4,0.4,1,0.4,1.4,0.2c0.5-0.2,0.8-0.6,0.8-1.1C48.3,11,47.9,10.5,47.1,10.4z"/>
	<path class="st1" d="M20.7,14.6c0.4,0,0.8,0,1.3,0c0.4,0,0.5-0.1,0.5-0.5c0-0.4,0-0.8,0-1.3s0-0.8,0-1.3c0-0.3-0.1-0.5-0.5-0.5
		s-1,0-1.4,0c-0.3,0-0.5,0.1-0.5,0.4c0,0.8,0,1.7,0,2.5C20.2,14.6,20.3,14.7,20.7,14.6z"/>
</g>
</svg>
