<?xml version="1.0" ?><!DOCTYPE svg  PUBLIC '-//W3C//DTD SVG 1.1//EN'  'http://www.w3.org/Graphics/SVG/1.1/DTD/svg11.dtd'><svg height="100%" style="fill-rule:evenodd;clip-rule:evenodd;stroke-linejoin:round;stroke-miterlimit:2;" version="1.1" viewBox="0 0 512 512" width="100%" xml:space="preserve" xmlns="http://www.w3.org/2000/svg" xmlns:serif="http://www.serif.com/" xmlns:xlink="http://www.w3.org/1999/xlink"><path d="M449.446,0c34.525,0 62.554,28.03 62.554,62.554l0,386.892c0,34.524 -28.03,62.554 -62.554,62.554l-386.892,0c-34.524,0 -62.554,-28.03 -62.554,-62.554l0,-386.892c0,-34.524 28.029,-62.554 62.554,-62.554l386.892,0Zm-193.446,81c-47.527,0 -53.487,0.201 -72.152,1.053c-18.627,0.85 -31.348,3.808 -42.48,8.135c-11.508,4.472 -21.267,10.456 -30.996,20.184c-9.729,9.729 -15.713,19.489 -20.185,30.996c-4.326,11.132 -7.284,23.853 -8.135,42.48c-0.851,18.665 -1.052,24.625 -1.052,72.152c0,47.527 0.201,53.487 1.052,72.152c0.851,18.627 3.809,31.348 8.135,42.48c4.472,11.507 10.456,21.267 20.185,30.996c9.729,9.729 19.488,15.713 30.996,20.185c11.132,4.326 23.853,7.284 42.48,8.134c18.665,0.852 24.625,1.053 72.152,1.053c47.527,0 53.487,-0.201 72.152,-1.053c18.627,-0.85 31.348,-3.808 42.48,-8.134c11.507,-4.472 21.267,-10.456 30.996,-20.185c9.729,-9.729 15.713,-19.489 20.185,-30.996c4.326,-11.132 7.284,-23.853 8.134,-42.48c0.852,-18.665 1.053,-24.625 1.053,-72.152c0,-47.527 -0.201,-53.487 -1.053,-72.152c-0.85,-18.627 -3.808,-31.348 -8.134,-42.48c-4.472,-11.507 -10.456,-21.267 -20.185,-30.996c-9.729,-9.728 -19.489,-15.712 -30.996,-20.184c-11.132,-4.327 -23.853,-7.285 -42.48,-8.135c-18.665,-0.852 -24.625,-1.053 -72.152,-1.053Zm0,31.532c46.727,0 52.262,0.178 70.715,1.02c17.062,0.779 26.328,3.63 32.495,6.025c8.169,3.175 13.998,6.968 20.122,13.091c6.124,6.124 9.916,11.954 13.091,20.122c2.396,6.167 5.247,15.433 6.025,32.495c0.842,18.453 1.021,23.988 1.021,70.715c0,46.727 -0.179,52.262 -1.021,70.715c-0.778,17.062 -3.629,26.328 -6.025,32.495c-3.175,8.169 -6.967,13.998 -13.091,20.122c-6.124,6.124 -11.953,9.916 -20.122,13.091c-6.167,2.396 -15.433,5.247 -32.495,6.025c-18.45,0.842 -23.985,1.021 -70.715,1.021c-46.73,0 -52.264,-0.179 -70.715,-1.021c-17.062,-0.778 -26.328,-3.629 -32.495,-6.025c-8.169,-3.175 -13.998,-6.967 -20.122,-13.091c-6.124,-6.124 -9.917,-11.953 -13.091,-20.122c-2.396,-6.167 -5.247,-15.433 -6.026,-32.495c-0.842,-18.453 -1.02,-23.988 -1.02,-70.715c0,-46.727 0.178,-52.262 1.02,-70.715c0.779,-17.062 3.63,-26.328 6.026,-32.495c3.174,-8.168 6.967,-13.998 13.091,-20.122c6.124,-6.123 11.953,-9.916 20.122,-13.091c6.167,-2.395 15.433,-5.246 32.495,-6.025c18.453,-0.842 23.988,-1.02 70.715,-1.02Zm0,53.603c-49.631,0 -89.865,40.234 -89.865,89.865c0,49.631 40.234,89.865 89.865,89.865c49.631,0 89.865,-40.234 89.865,-89.865c0,-49.631 -40.234,-89.865 -89.865,-89.865Zm0,148.198c-32.217,0 -58.333,-26.116 -58.333,-58.333c0,-32.217 26.116,-58.333 58.333,-58.333c32.217,0 58.333,26.116 58.333,58.333c0,32.217 -26.116,58.333 -58.333,58.333Zm114.416,-151.748c0,11.598 -9.403,20.999 -21.001,20.999c-11.597,0 -20.999,-9.401 -20.999,-20.999c0,-11.598 9.402,-21 20.999,-21c11.598,0 21.001,9.402 21.001,21Z"/></svg>