<?xml version="1.0" ?><!DOCTYPE svg  PUBLIC '-//W3C//DTD SVG 1.1//EN'  'http://www.w3.org/Graphics/SVG/1.1/DTD/svg11.dtd'><svg enable-background="new 0 0 512 512" id="Layer_1" version="1.1" viewBox="0 0 512 512" xml:space="preserve" xmlns="http://www.w3.org/2000/svg" xmlns:xlink="http://www.w3.org/1999/xlink"><circle cx="256" cy="256" id="ellipse" r="256"/><path d="M360.5,154.5c-10-9.9-22-14.9-36.1-14.9c-14,0-26,5-35.9,15s-14.9,21.9-14.9,35.8  c0,14,5,26,14.9,35.9c9.9,9.9,21.9,14.9,35.9,14.9s26.1-5,36.1-14.9s15-21.9,15-35.9C375.5,176.4,370.5,164.5,360.5,154.5z   M391.4,123.8C372.9,105.3,350.5,96,324.1,96c-26,0-48.2,9.2-66.6,27.5S229.7,164,229.3,190l-59.2,84.7c-1.6-0.2-4-0.3-7.4-0.3  c-13.2,0-25.2,3.3-36,9.7L1,233.8c-0.6,7.3-1,14.7-1,22.2c0,24.5,3.4,48.1,9.8,70.6l84,33.6c3.5,16.1,11.7,29.5,24.6,40  s27.7,15.8,44.3,15.8c18.3,0,34.1-6.1,47.6-18.4s21.1-27.5,22.9-45.5l90.8-66.3c26.3,0,48.7-9.3,67.2-27.8s27.8-40.8,27.8-67  C419.1,164.7,409.9,142.3,391.4,123.8z M199.7,382.2c-10.2,10.1-22.5,15.1-36.8,15.1c-9.8,0-18.9-2.6-27.1-7.6  c-8.3-5.1-14.6-11.8-18.9-20.3c9.1,3.5,17.7,7,25.8,10.5c10.5,4.2,21,4.1,31.6-0.4c10.5-4.5,18-12.1,22.4-22.8  c4.2-10.5,4.1-21-0.4-31.6c-4.5-10.5-12.1-17.9-22.8-22.1l-21.6-8.7c3.9-0.9,7.5-1.3,11-1.3c14.4,0,26.7,5,36.8,15.1  c10.2,10.1,15.3,22.4,15.3,37S209.8,372.1,199.7,382.2z M369.1,235.9c-12.5,12.4-27.5,18.5-45,18.5s-32.5-6.2-44.9-18.5  s-18.6-27.3-18.6-44.9c0-17.5,6.2-32.5,18.6-45s27.3-18.7,44.9-18.7c17.7,0,32.8,6.2,45.1,18.5s18.5,27.4,18.5,45.1  C387.8,208.5,381.6,223.5,369.1,235.9z M324.4,139.7c-14,0-26,5-35.9,15s-14.9,21.9-14.9,35.8c0,14,5,26,14.9,35.9  s21.9,14.9,35.9,14.9s26.1-5,36.1-14.9s15-21.9,15-35.9s-5-26-15-35.9S338.4,139.7,324.4,139.7z M360.5,154.5  c-10-9.9-22-14.9-36.1-14.9c-14,0-26,5-35.9,15s-14.9,21.9-14.9,35.8c0,14,5,26,14.9,35.9c9.9,9.9,21.9,14.9,35.9,14.9  s26.1-5,36.1-14.9s15-21.9,15-35.9C375.5,176.4,370.5,164.5,360.5,154.5z" fill="#FFFFFF" id="logo"/></svg>