<?xml version="1.0" encoding="UTF-8" standalone="no"?>
<svg id="svg" xmlns="http://www.w3.org/2000/svg" height="200" width="400" xmlns:xlink="http://www.w3.org/1999/xlink" viewBox="0, 0, 400,200">
 <g id="svgg">
  <path id="path0" fill-rule="evenodd" d="m282.81 28.125c0 0.859 2.86 1.563 6.35 1.563 3.82 0 5.95-0.619 5.37-1.563-0.53-0.859-3.38-1.562-6.34-1.562s-5.38 0.703-5.38 1.562m-158.03 5.739c-3.2 3.67-4.94 10.974-2.92 12.223 0.99 0.608 0.66 2.719-0.89 5.709-2.77 5.354-4.67 5.022-2.91-0.506 1.1-3.449 1.91-13.793 1.08-13.791-0.21 0.001-1.71 1.319-3.32 2.931-1.61 1.611-3.9 3.317-5.08 3.79-1.6 0.644-1.21 1.617 1.56 3.858 4.45 3.606 3.42 6.31-6.49 17.062-6.055 6.57-6.214 6.995-3.55 9.54 2.65 2.527 2.71 2.496 1.12-0.608-1.42-2.799-0.82-4.1 4.18-8.985l5.85-5.712h19.8 19.8l3.97 5.831c2.17 3.208 3.96 5.231 3.96 4.497 0-0.735 1.05-0.46 2.34 0.61 1.29 1.069 2.28 3.441 2.19 5.269-0.15 3.153-0.21 3.139-1.17-0.284-0.56-1.984-1.61-3.497-2.34-3.363-0.72 0.135-3.37-1.722-5.88-4.127-7.38-7.076-51.39-4.019-51.39 3.57 0 2.904 3.88 6.665 7.75 7.516 9.58 2.103 9.19 9.244-1.73 31.606-8.4 17.21-9.72 21.21-11.607 35.31-2.905 21.71-2.857 22.94 0.897 22.94 1.74 0 3.12 1.04 3.12 2.34 0 1.72 1.79 2.35 6.65 2.36 3.65 0 12.26 0.27 19.14 0.6 8.69 0.42 10.35 0.26 5.47-0.52l-7.04-1.12 5.08-1.24c2.8-0.69 5.08-1.86 5.08-2.61 0-2.76 4.35-1.28 5.14 1.75 0.82 3.14 5.8 4.49 5.8 1.57 0-0.86 1.93-1.58 4.29-1.59 4.23-0.03 11.09-3.03 7.04-3.08-1.08-0.01-1.91-1.61-1.85-3.54 0.11-3.35 0.17-3.37 1.46-0.39 1.76 4.11 1.82 1.45 0.12-5.87-0.95-4.1-0.81-6.22 0.46-7.03 1-0.64 3.5-6.08 5.54-12.1 2.05-6.01 5.11-14.72 6.8-19.35l3.08-8.41 17.39 0.86c9.56 0.48 14.74 0.33 11.51-0.32-8.12-1.66-8.29-2.43-0.6-2.73 3.61-0.14 10.76-1.29 15.9-2.57 16.17-4.01 17.92-4.29 17.92-2.91 0 0.74-6.15 2.66-13.67 4.26-7.52 1.61-12.62 3.12-11.33 3.37s7.62-0.79 14.06-2.31l11.72-2.75 3.13-12.886c3.11-12.841 3.14-12.894 9.8-15.435 3.67-1.403 6.38-2.841 6.03-3.197-0.36-0.356-3.35 0.481-6.66 1.861-3.85 1.611-6.2 1.924-6.54 0.873-2.22-6.646-6.24-0.957-7.41 10.473-0.97 9.471-1.46 11.088-2.27 7.422l-1.03-4.687-0.65 4.608c-0.7 5.008-23.15 11.788-31.81 9.618-6.83-1.72-6.21-12.246 1.19-20.198 3.34-3.591 5.72-5.825 5.28-4.966-0.52 1.002 4.15 1.384 12.98 1.065 12.26-0.443 13.87-0.183 14.52 2.343 0.59 2.271 0.77 2.135 0.92-0.673 0.17-3.399-0.29-3.516-13.88-3.516-8.34 0-14.07-0.637-14.07-1.562 0-0.86-3.87-1.563-8.59-1.563-4.73 0-8.6 0.703-8.6 1.563 0 0.859-1.05 1.562-2.34 1.562s-2.34-0.652-2.34-1.448-1.23-1.769-2.74-2.162c-1.5-0.393 11.33-0.85 28.52-1.016 35.87-0.345 35.94-0.352 40.4-4.521 3.72-3.466 30.73-5.731 30.67-2.572-0.07 3.999-3.13 5.347-13.3 5.865l-10.9 0.554 12.11 0.306c7.24 0.183 12.11-0.322 12.11-1.256 0-0.859 3.89-1.562 8.63-1.562 10.6 0 11.45-1.517 10.96-19.532-0.5-18.137-0.76-20.488-2.03-18.75-0.72 0.973-20.03 1.692-51.13 1.905-32.63 0.224-50.18 0.902-50.53 1.954-0.65 1.971-8.09 2.165-8.09 0.212 0-2.001-12.9-3.094-15.23-1.291-1.23 0.951-1.95 0.956-1.95 0.016 0-1.717-4.61-1.652-7.45 0.105-1.07 0.66-1.93 0.444-1.93-0.486 0-1.076-1.95-0.858-5.47 0.61-3.51 1.466-5.47 1.685-5.47 0.61 0-1.07-0.84-0.972-2.34 0.272-1.29 1.069-2.34 1.398-2.34 0.73s-1.41 0.058-3.13 1.613c-2.39 2.169-3.13 2.316-3.17 0.633-0.04-1.524-0.75-1.268-2.35 0.838-2.23 2.948-2.29 2.932-2.29-0.582 0-3.036-0.38-3.304-2.34-1.67-1.92 1.593-2.35 1.486-2.35-0.59 0-1.394-0.99-2.535-2.21-2.535s-2.47-0.757-2.78-1.682c-0.32-0.965-1.62-0.465-3.04 1.171m170.53 9.886c0 2.083-1.04 3.125-3.12 3.125-1.72 0-3.13-1.014-3.13-2.254 0-1.306-1.15-2.033-2.73-1.728-1.51 0.29-6.95-0.01-12.11-0.666-8.97-1.141-8.72-1.201 5.86-1.397 14.26-0.192 15.23-0.005 15.23 2.92m-70.7-0.408c-4.94 0.31-13.03 0.31-17.97 0s-0.9-0.564 8.98-0.564c9.89 0 13.93 0.254 8.99 0.564m31.28-0.038c-2.35 0.356-6.57 0.364-9.38 0.016s-0.89-0.64 4.27-0.648c5.16-0.009 7.46 0.275 5.11 0.632m-59.8 9.391c-3.99 0.388-7.27 1.844-9.09 4.034l-2.84 3.427 1.66-3.389c1.23-2.52 1.16-3.591-0.29-4.174-1.06-0.431 2.28-0.721 7.44-0.644 6.74 0.1 7.62 0.31 3.12 0.746m19.93-0.03c-1.94 0.373-5.1 0.373-7.04 0-1.93-0.372-0.35-0.677 3.52-0.677s5.45 0.305 3.52 0.677m-27.01 28.194c-0.03 0.645-1.08 2.537-2.34 4.205-2.96 3.908-2.93 9.336 0.05 11.811 1.29 1.07 2.34 2.487 2.34 3.145 0 2.21-5.18 3.23-6.9 1.36-1.26-1.37-1.09-1.524 0.65-0.61 1.85 0.97 1.81 0.66-0.2-1.478-2.35-2.507-2.33-3.312 0.39-10.745 1.62-4.419 2.94-8.22 2.94-8.447s0.7-0.412 1.56-0.412 1.54 0.527 1.51 1.171m3.9 26.861c0.85 1.37-19.39 0.53-20.91-0.87-0.35-0.33 4-0.6 9.68-0.6s10.73 0.66 11.23 1.47m-63.55 45.4c0.56 1.82 0.28 1.94-1.23 0.52-1.07-1.01-3.03-1.42-4.36-0.91-1.63 0.63-2.03 0.31-1.22-0.99 1.54-2.5 5.9-1.61 6.81 1.38"/>
 </g>
</svg>
