<?xml version="1.0" encoding="utf-8"?>
<!-- Generator: Adobe Illustrator 23.0.1, SVG Export Plug-In . SVG Version: 6.00 Build 0)  -->
<svg version="1.1" id="Слой_1" xmlns="http://www.w3.org/2000/svg" xmlns:xlink="http://www.w3.org/1999/xlink" x="0px" y="0px"
	 width="110px" height="40px" viewBox="0 0 110 40" style="enable-background:new 0 0 110 40;" xml:space="preserve">
<style type="text/css">
	.st0{fill:#FFFFFF;}
	.st1{fill:#DA5D00;}
	.st2{fill:#47B0E2;}
</style>
<rect class="st0" width="110" height="40"/>
<path class="st1" d="M0,0v40h110V0H0z M107,37.1H3V2.9H107V37.1z"/>
<g>
	<path class="st2" d="M39.6,18.8c0-0.2,0.1-0.5,0.1-0.7c0-0.2,0.1-0.2,0.2-0.1c2.1,1.2,4.2,2.4,6.4,3.7c1,0.6,2,1.2,3,1.7
		c0,0,0.1,0,0.1,0c0,0,0,0.1,0,0.1c-0.5,0.9-1,1.7-1.5,2.6c-0.9,1.5-1.8,3-2.6,4.6c-0.1,0.1-0.1,0.1-0.3,0.1c-1.1-0.7-2.3-1.3-3.5-2
		c-0.1,0-0.2-0.1-0.3-0.1c-0.8-0.5-1.6-1-2.5-1.4c-0.1,0-0.2-0.1-0.2-0.2c0.3,0,0.6,0,0.9,0c0.1,0,0.2,0,0.3,0
		c0.3,0,0.3-0.1,0.2-0.3c-0.2-0.4-0.5-0.8-0.8-1.1c-0.2-0.3-0.5-0.7-0.7-1c-0.3-0.4-0.5-0.8-0.8-1.2c-0.2-0.3-0.4-0.5-0.5-0.8
		c0,0,0-0.1,0-0.1C37,22.2,37,22.1,37.2,22c0.5-0.3,1-0.7,1.4-1.1c0.1-0.2,0.2-0.4,0.4-0.5c0.3-0.4,0.5-0.9,0.6-1.4
		C39.6,18.9,39.6,18.8,39.6,18.8z"/>
	<path class="st1" d="M38.6,27c0.5,0.3,1,0.6,1.5,0.9c0.5,0.3,1,0.5,1.4,0.9c0,0.2-0.2,0.4-0.3,0.6c-0.4,0.7-0.8,1.3-1.1,2
		c-0.4,0.7-0.8,1.4-1.2,2.1c-0.3,0.6-0.6,1.1-1,1.7c-0.2,0.3-0.4,0.7-0.6,1c0,0.1-0.1,0.1-0.2,0c-0.9-0.5-1.8-1-2.7-1.5
		c-1-0.6-2.1-1.2-3.1-1.8c-0.8-0.5-1.6-0.9-2.5-1.4c-0.9-0.5-1.7-1-2.6-1.5c-0.8-0.5-1.6-0.9-2.4-1.4c-0.9-0.5-1.7-1-2.6-1.5
		c0,0,0,0,0-0.1c0.8,0,1.6,0,2.4,0c0.2,0,0.2,0,0.2-0.2c0-1.2,0-2.4,0-3.6c0-0.2,0-0.2-0.2-0.2c-2.2,0-4.3,0-6.5,0
		c-0.2,0-0.2,0-0.2-0.2c0-2.6,0-5.3,0-7.9c0-0.1,0-0.1,0-0.2c0.1,0,0.1,0,0.2,0.1c2.4,1.4,4.7,2.7,7.1,4.1c0.2,0.1,0.5,0.3,0.7,0.4
		c0.1,0.1,0.2,0.1,0.2,0.2c0,0.1,0,0.2,0,0.3c0,2.4,0,4.7,0,7.1c0,0.3,0,0.3,0.3,0.3c1.6,0,3.2,0,4.8,0c0.1,0,0.2,0,0.2,0
		c0-0.1,0-0.1,0-0.2c0-1.1,0-2.3,0-3.4c0-0.2,0-0.2,0.2-0.2c0.3,0,0.5,0,0.8,0c0.2,0,0.4,0.1,0.5,0.2c0,0,0.1,0.1,0.1,0.1
		c0.4,0.5,0.7,1.1,1.1,1.6c0.4,0.5,0.7,1.1,1.1,1.6c0.1,0.2,0.3,0.3,0.5,0.3C36.2,27,37.4,27,38.6,27z"/>
	<path class="st2" d="M25.3,19.3c-1.1-0.6-2.2-1.3-3.3-1.9c-1-0.6-2-1.1-2.9-1.7c-0.6-0.4-1.2-0.7-1.9-1.1c0,0-0.1,0-0.1-0.1
		c0-0.1,0-0.2,0-0.2c0-0.9,0-1.7,0-2.6c0-0.2-0.1-0.2-0.2-0.2c-1.6,0-3.3,0-4.9,0c-0.2-0.1-0.4-0.1-0.6-0.3c1.4-2.4,2.7-4.7,4.1-7.1
		c0-0.1,0.1-0.2,0.1-0.2C16,4,16.3,4.3,16.7,4.5c4,2.3,8,4.6,12,6.9c0,0,0.1,0,0.2,0.1c-0.1,0-0.2,0-0.2,0c-1,0-2.1,0-3.1,0
		c-0.1,0-0.2,0-0.2,0.2c0,0.4,0,0.8,0,1.3c0,2,0,4.1,0,6.1C25.3,19.2,25.4,19.2,25.3,19.3z"/>
	<path class="st1" d="M11.3,11.2c0.2,0.1,0.4,0.2,0.6,0.3c0,0.2,0,0.4,0,0.6c0,3,0,6,0,9c0,0.3,0,0.3-0.3,0.2
		c-1-0.6-1.9-1.1-2.9-1.7c-0.7-0.4-1.5-0.8-2.2-1.2c-0.8-0.5-1.6-0.9-2.4-1.4c-0.2-0.1-0.4-0.2-0.6-0.3c-0.1-0.1-0.1-0.1-0.1-0.2
		c0.3-0.5,0.6-1.1,0.9-1.6c0.3-0.5,0.6-1,0.8-1.4c0.4-0.6,0.7-1.3,1.1-1.9c0.3-0.5,0.6-1.1,0.9-1.6c0.1-0.2,0.2-0.4,0.4-0.6
		c0.1-0.1,0.1-0.1,0.2,0c0.5,0.3,1,0.6,1.5,0.9c0.6,0.3,1.1,0.7,1.7,1C11.1,11.1,11.2,11.2,11.3,11.2z"/>
	<path class="st2" d="M30.6,17.3c0-0.5,0-1,0-1.6c0-0.2,0-0.2,0.2-0.2c0.7,0,1.3,0,2,0c0.6,0,1.1,0.2,1.4,0.7
		c0.2,0.2,0.3,0.5,0.3,0.8c0,0.4,0,0.8-0.2,1.2c-0.2,0.3-0.5,0.5-0.8,0.7c-0.3,0.1-0.6,0.2-1,0.2c-0.6,0-1.2,0-1.7,0
		c-0.2,0-0.2,0-0.2-0.2C30.6,18.4,30.6,17.9,30.6,17.3z"/>
</g>
<g>
	<path class="st1" d="M69.3,15.1c-1.4-0.2-2.9,0-4.3-0.1c-0.6,0-0.8,0.2-0.8,0.8c0,1.7,0,3.4,0,5.1s0,3.4,0,5.1
		c0,0.5,0.2,0.7,0.7,0.7c1.1,0,2.1,0,3.2,0c3.2,0,5.4-1.8,6-4.9C74.5,18.7,72.2,15.5,69.3,15.1z M70,23.5c-0.9,0.7-2,0.5-3.1,0.5
		c-0.2,0-0.2-0.1-0.2-0.3c0-2,0-4,0-6c0-0.3,0.1-0.4,0.3-0.4c0.3,0,0.6,0,0.9,0c2-0.1,3,1.1,3.3,2.2C71.7,21.1,71.2,22.7,70,23.5z"
		/>
	<path class="st1" d="M102.4,25.9c0-3.1,0-6.2,0-9.3c0-1.7,0-1.7-1.6-1.7c-0.9,0-0.9,0-0.9,0.9c0,1.7,0,3.4,0,5.1
		c-0.1,0.1-0.2,0.1-0.3,0.2c-1.1-1.2-2.2-2.3-3.3-3.5c-0.9-0.9-1.8-1.8-2.7-2.6c-0.2-0.2-0.5-0.3-0.7-0.2c-0.2,0.1-0.2,0.3-0.2,0.5
		c0,3.5,0,7.1,0,10.6c0,0.4,0.1,0.6,0.5,0.6c0.4,0,0.9,0,1.3,0c0.5,0,0.7-0.1,0.7-0.7c0-1.7,0-3.5,0-5.2c0-0.2-0.1-0.4,0.1-0.5
		c0.1,0.1,0.2,0.2,0.3,0.3c1.9,1.9,3.8,3.9,5.7,5.8c0.2,0.2,0.5,0.5,0.8,0.3C102.5,26.5,102.4,26.2,102.4,25.9z"/>
	<path class="st1" d="M86.2,18.8c-0.2-1.1-0.4-2.3-0.6-3.4c0-0.2-0.1-0.4-0.3-0.4c-0.2,0-0.4,0.1-0.6,0.3c-0.1,0.1-0.1,0.3-0.2,0.4
		c-1.1,2-2.2,4-3.3,6C81.2,21.8,81.1,22,81,22c-0.2,0-0.2-0.2-0.3-0.3c-0.7-1.4-1.5-2.7-2.2-4.1c-0.4-0.7-0.8-1.4-1.1-2.1
		c-0.1-0.3-0.3-0.6-0.7-0.5c-0.4,0.1-0.3,0.4-0.4,0.7c-0.1,0.5-0.2,1.1-0.3,1.6c0,0.2,0,0.4,0.1,0.6c1.5,2.8,2.9,5.6,4.4,8.4
		c0.3,0.5,0.7,0.5,1,0c0.2-0.3,0.4-0.7,0.5-1c0.7-1.3,1.3-2.6,2-3.9c0.1,0,0.1,0,0.2,0c0.2,1.2,0.3,2.4,0.5,3.5
		c0.3,1.6,0.3,1.6,1.9,1.5c0.8,0,0.8,0,0.7-0.9C87,23.4,86.6,21.1,86.2,18.8z"/>
	<path class="st1" d="M58.5,15.3c-0.1-0.2-0.1-0.4-0.4-0.4c-0.3,0-0.4,0.2-0.5,0.4c-0.4,0.9-0.8,1.8-1.2,2.6c-1.2,2.7-2.4,5.3-3.6,8
		c-0.2,0.5-0.1,0.7,0.4,0.7c0.4,0,0.8,0,1.2,0c0.5,0,0.8-0.2,0.9-0.6c0.1-0.2,0.2-0.4,0.2-0.6c0.1-0.4,0.4-0.5,0.8-0.5
		c1.1,0,2.1,0,3.2,0c0.5,0,0.7,0.2,0.9,0.6c0.4,1.1,0.5,1.1,1.7,1.1c0.2,0,0.4,0,0.7,0c0.6,0,0.7-0.1,0.5-0.7
		C61.7,22.3,60.1,18.8,58.5,15.3z M58.8,22.6c-0.6,0-1.3,0-2,0c0.4-0.9,0.8-1.8,1.2-2.7c0.4,0.9,0.7,1.6,1.1,2.4
		C59.2,22.5,59.2,22.6,58.8,22.6z"/>
	<path class="st1" d="M89.4,15c-0.6,0-0.8,0.1-0.8,0.7c0,1.7,0,3.4,0,5.1c0,1.3,0,2.7,0,4c0,1.8,0,1.8,1.8,1.8
		c0.6,0,0.7-0.2,0.7-0.8c0-3,0-6,0-9.1C91.1,15,91.1,15,89.4,15z"/>
	<path class="st1" d="M75.3,21.9c-0.2,1.1-0.4,2-0.5,2.9c-0.3,1.9-0.6,1.7,1.3,1.7c0.1,0,0.1,0,0.2,0c0.8,0,1.1-0.4,0.8-1.2
		C76.5,24.3,75.9,23.2,75.3,21.9z"/>
</g>
</svg>
