<?xml version="1.0" encoding="utf-8"?>
<!-- Generator: Adobe Illustrator 23.0.1, SVG Export Plug-In . SVG Version: 6.00 Build 0)  -->
<svg version="1.1" id="Слой_1" xmlns="http://www.w3.org/2000/svg" xmlns:xlink="http://www.w3.org/1999/xlink" x="0px" y="0px"
	 width="110px" height="40px" viewBox="0 0 110 40" style="enable-background:new 0 0 110 40;" xml:space="preserve">
<style type="text/css">
	.st0{fill:#FFFFFF;}
	.st1{fill:#B3174C;}
	.st2{fill:#FDF7FA;}
	.st3{fill:#B3174B;}
	.st4{fill:#FEFCFD;}
	.st5{fill:#F7E6EE;}
	.st6{fill:#363437;}
	.st7{fill:#383538;}
	.st8{fill:#363436;}
	.st9{fill:#383639;}
	.st10{fill:#343537;}
	.st11{fill:#363537;}
	.st12{fill:#363538;}
	.st13{fill:#FAF9FA;}
	.st14{fill:#F7F6F7;}
	.st15{fill:#F8F7F8;}
	.st16{fill:#3D3B3D;}
</style>
<g id="Слой_3">
	<rect x="-0.1" y="0" class="st0" width="110" height="40"/>
</g>
<g id="Слой_4">
	<g>
		<path class="st1" d="M15.4,7.9c0.7-0.1,1.3,0.3,1.8,0.7c1.5,1.3,3.2,2,5.1,2.1c1.7,0.1,2.6,1.1,2.7,2.7c0.2,1.8,0.8,3.4,2,4.8
			c1.2,1.4,1.1,2.8,0,4.1c-1.1,1.3-1.7,2.8-1.8,4.5c-0.1,1.8-1,3-3,3.1c-1.7,0.1-3.2,0.8-4.4,2c-1.3,1.2-2.7,1.3-4.1,0.1
			c-1.3-1.1-2.8-1.8-4.5-1.8c-2-0.1-3-1.2-3.1-3.1c-0.1-1.8-1-3.2-2.1-4.6c-1-1.2-1-2.5-0.1-3.7c1.2-1.5,1.9-3.1,1.9-5
			c0-1.5,0.8-2.7,2.4-2.8c2.2-0.2,3.9-1.1,5.5-2.5C14.3,8.1,14.8,7.9,15.4,7.9z"/>
		<path class="st2" d="M15.7,11.6c4.7,0.1,8.6,4,8.6,8.8c0,4.8-4,8.9-8.6,8.8c-4.8,0-8.8-4.1-8.7-8.9C7,15.6,11,11.6,15.7,11.6z"/>
		<path class="st3" d="M23.6,20.5c0,4.4-3.7,8.1-8,8.1c-4.3,0-8-3.8-7.9-8.2c0-4.4,3.7-8.1,8-8C20,12.3,23.6,16,23.6,20.5z"/>
		<path class="st4" d="M15.6,23.1c-4.1,0-4.1,0-3.7-4.2c0.1-0.8,0.3-1,1.1-1c1.8,0,3.7,0,5.5,0c0.7,0,1,0.2,1,0.9
			c0,0.7-0.4,0.7-1,0.7c-0.6,0-1.2-0.1-1.8,0c-0.6,0-1.2,0.3-1.1,1.1c0.1,0.6,0.5,0.9,1.1,0.9c0.6,0,1.3,0,2,0
			c0.5,0,0.8,0.1,0.8,0.7c0,0.5-0.1,0.9-0.8,0.9C17.6,23.1,16.6,23.1,15.6,23.1z"/>
		<path class="st5" d="M11.1,21.6c-1.2-0.8-1.3-1.5,0-2.1C11.1,20.2,11.1,20.8,11.1,21.6z"/>
		<path class="st5" d="M20.1,21.6c0-0.8,0-1.5,0-2.2C21.4,20.1,21.3,20.8,20.1,21.6z"/>
	</g>
</g>
<g id="Слой_5">
	<g>
		<path class="st6" d="M44.4,20.9c1.4-0.8,1.7-1.6,1.4-3.1c-0.3-1.2-1.3-1.6-2.3-1.7c-1.2-0.1-2.4,0-3.6,0c-0.6,0-0.7,0.3-0.7,0.8
			c0,2.5,0,5,0,7.5c0,0.8,0.4,0.8,0.9,0.7c0.5,0,1.1,0.3,1.1-0.7c0-0.8,0-1.5,0-2.3c0-0.5,0.2-0.6,0.7-0.6c1.3,0,1.5,0.1,1.9,1.9
			c0.4,1.9,0.5,1.9,2.4,1.5C45.6,23.5,45.7,21.9,44.4,20.9z M42.2,20.1c-1,0.1-1.1-0.4-1-1.2c-0.2-1,0.1-1.4,1.2-1.3
			c1,0.1,1.5,0.3,1.5,1.3C43.9,20.1,43,20,42.2,20.1z"/>
		<path class="st7" d="M72.3,19.7c0.8-1.1,1.5-2.3,2.3-3.5c-1.5-0.5-2.4,0-2.9,1.3c-0.3,0.6-0.8,1.2-1.1,1.8
			c-0.2,0.3-0.4,0.4-0.8,0.3c-0.4-0.1-0.2-0.4-0.2-0.7c0-0.7-0.1-1.4,0-2c0.1-0.8-0.3-0.9-1-0.9c-0.6,0-1,0-1,0.9
			c0.1,2.4,0.1,4.8,0,7.1c0,0.7,0.1,1.1,0.9,1.1c0.9,0,1.1-0.3,1-1.1c-0.1-0.8,0-1.5,0-2.3c0-0.2-0.2-0.6,0.2-0.7
			c0.3-0.1,0.6,0.1,0.7,0.4c0.4,0.8,1,1.5,1.3,2.3c0.6,1.4,1.5,1.6,2.9,1.2c-0.8-1.4-1.6-2.7-2.5-3.9C71.9,20.4,72,20.2,72.3,19.7z"
			/>
		<path class="st6" d="M106.6,24c-0.2-0.4-0.4-0.8-0.4-1.2c-0.6-1.9-1.3-3.9-1.8-5.8c-0.2-0.8-0.6-1-1.4-1c-1.8,0-1.8,0-2.3,1.8
			c-0.2,0.5-0.3,1.1-0.5,1.6c-0.6,1.9-1.1,3.7-1.7,5.6c1.9,0.1,2,0.2,2.4-1.5c0.2-0.7,0.4-1,1.1-0.9c0.4,0,0.8,0,1.3,0
			c0.8-0.1,1.2,0.2,1.2,0.9c0.1,1.5,0.9,1.8,2.2,1.5C106.7,24.7,106.7,24.4,106.6,24z M103.2,21.1c-1.6,0.2-1.8,0-1.3-1.5
			c0.2-0.7,0.2-1.4,0.8-2.2c0.3,1.2,0.6,2.2,0.9,3.1C103.8,21,103.6,21,103.2,21.1z"/>
		<path class="st8" d="M81.1,17.3c-0.3-1.4-1.2-1.3-2.3-1.4c-1.2-0.1-1.3,0.7-1.5,1.5c-0.8,2.5-1.5,5-2.3,7.6
			c1.9,0.2,1.9,0.2,2.4-1.6c0.2-0.7,0.4-0.9,1.1-0.8c0.7,0.1,1.6-0.2,2.1,0.1c0.5,0.3,0.4,1.2,0.7,1.9c0.3,0.9,1.1,0.5,1.7,0.4
			c0.7,0,0.3-0.6,0.2-0.9C82.5,21.9,81.7,19.6,81.1,17.3z M80.1,21c-0.6,0.1-1.3,0.3-1.8,0c-0.4-0.2,0-0.8,0.1-1.1
			c0.3-0.8,0.3-1.6,0.9-2.4c0.3,1.1,0.6,2.1,0.9,3.1C80.3,20.7,80.4,21,80.1,21z"/>
		<path class="st9" d="M96.5,20.2c-0.7-0.3-1.5-0.6-2.2-0.8c-0.5-0.2-0.8-0.5-0.8-1.1c0.1-0.6,0.5-0.7,1-0.7c0.8,0,1.5,0,2.3,0
			c0.4,0,0.8,0.1,0.9-0.6c0-0.6-0.2-0.8-0.7-0.8c-1.2-0.2-2.4-0.3-3.6-0.1c-1.2,0.2-1.7,0.9-1.8,2c-0.1,1.4,0.5,2.4,1.9,2.9
			c0.7,0.3,1.4,0.5,2.1,0.8c0.4,0.2,0.6,0.5,0.5,0.9c-0.1,0.5-0.4,0.6-0.8,0.6c-0.5,0-1,0-1.5,0l0,0c-0.5,0-1,0-1.5,0
			c-0.5,0-0.6,0.2-0.6,0.6c0,0.3-0.3,0.8,0.4,0.9c1.3,0.1,2.6,0.4,3.9,0.1c1.1-0.2,1.8-0.7,1.9-1.9C98.1,21.6,97.7,20.7,96.5,20.2z"
			/>
		<path class="st9" d="M88.4,20c-0.6-0.2-1.2-0.4-1.8-0.6c-0.5-0.2-0.8-0.4-0.7-1c0.1-0.6,0.5-0.7,1-0.7c0.8,0,1.7,0,2.5,0
			c0.4,0,0.6-0.1,0.7-0.5c0.1-0.5-0.1-0.7-0.5-0.8c-1.1-0.2-2.2-0.4-3.3-0.2c-1.6,0.2-2.2,0.7-2.3,1.9c-0.2,1.6,0.5,2.6,1.9,3
			c0.7,0.2,1.4,0.4,2,0.7c0.4,0.2,0.6,0.6,0.5,1c-0.1,0.5-0.4,0.6-0.8,0.6c-0.4,0-0.9,0-1.4,0c0,0,0,0,0,0c-0.5,0-1.1,0-1.6,0
			c-0.4,0-0.5,0.3-0.5,0.6c0,0.3-0.2,0.8,0.4,0.9c1.5,0.2,3.1,0.5,4.6,0c0.7-0.2,1.1-0.7,1.2-1.4C90.7,21.7,90.1,20.6,88.4,20z"/>
		<path class="st10" d="M60,23.5c-0.9,0-1.7,0-2.6,0c-0.3,0-0.6,0-0.7-0.4c-0.4-1.3,0.1-2.1,1.5-2.1c0.4,0,0.8,0,1.2-0.1
			c0.2,0,0.5,0,0.7,0l0,0c0.5-1.2,0.4-1.3-0.7-1.3c-0.7,0-1.4,0-2,0c-0.5,0-0.6-0.1-0.7-0.6c-0.1-1,0.1-1.6,1.3-1.4
			c0.7,0.1,1.4,0,2,0c0.5,0,0.8-0.1,0.8-0.7c0-0.5,0-0.9-0.7-0.9c-1.1,0-2.3-0.1-3.4-0.1c-1.2,0-1.9,0.7-2,1.8
			c-0.1,1.8-0.1,3.6,0,5.4c0,1.1,0.7,1.7,1.8,1.8c1.2,0,2.3,0,3.5,0c0.7,0,0.7-0.3,0.7-0.9C60.7,23.6,60.5,23.5,60,23.5z"/>
		<path class="st11" d="M52.8,23.5c-0.9,0-1.7,0-2.6,0c-0.3,0-0.6,0-0.7-0.4c-0.5-1.2,0.1-2,1.4-2c0.5,0,1,0,1.5,0
			c0.5,0,0.8,0,0.8-0.6c0-0.6-0.2-0.8-0.8-0.8c-0.7,0-1.4,0-2,0c-0.6,0-0.9-0.1-0.8-0.8c0.1-0.6-0.2-1.3,0.8-1.2c0.9,0,1.7,0,2.6,0
			c0.6,0,0.7-0.3,0.7-0.8c0-0.5-0.1-0.8-0.7-0.8c-1.2,0-2.3-0.1-3.5,0c-1.3,0.1-1.8,0.7-1.8,2c0,0.8,0,1.7,0,2.5l0,0
			c0,0.9,0,1.7,0,2.6c0,1.2,0.5,1.8,1.8,1.9c1.2,0.1,2.3,0,3.5,0c0.6,0,0.8-0.2,0.7-0.8C53.5,23.6,53.3,23.5,52.8,23.5z"/>
		<path class="st12" d="M37.2,16.1c-1.1,0-2.2-0.1-3.3,0c-1.2,0-1.9,0.7-1.9,1.9c0,1,0,2,0,3.1h0c0,1,0.1,2,0,3.1
			c-0.1,0.8,0.2,1,1,1c0.8,0,1-0.3,1-1c0-0.8-0.3-1.9,0.1-2.4c0.5-0.6,1.6-0.2,2.5-0.2c0.5,0,0.8,0,0.8-0.7c0-0.7-0.3-0.7-0.8-0.7
			c-0.6,0-1.1,0-1.7,0c-0.5,0-1,0-0.9-0.7c0.1-0.6-0.4-1.7,0.9-1.7c0.8,0,1.6,0,2.4,0c0.5,0,0.7-0.2,0.8-0.7
			C37.9,16.4,37.8,16.1,37.2,16.1z"/>
		<path class="st13" d="M42.4,17.5c-1.1-0.1-1.4,0.3-1.2,1.3c-0.1,0.8-0.1,1.4,1,1.2c0.9-0.1,1.7,0,1.7-1.2
			C43.9,17.8,43.3,17.6,42.4,17.5z"/>
		<path class="st14" d="M102.8,17.4c-0.6,0.8-0.6,1.5-0.8,2.2c-0.5,1.5-0.3,1.7,1.3,1.5c0.4,0,0.6-0.1,0.4-0.5
			C103.4,19.6,103.1,18.6,102.8,17.4z"/>
		<path class="st15" d="M79.3,17.4c-0.6,0.8-0.6,1.7-0.9,2.4c-0.1,0.4-0.5,0.9-0.1,1.1c0.5,0.3,1.2,0.1,1.8,0c0.3,0,0.2-0.3,0.1-0.5
			C79.9,19.6,79.7,18.6,79.3,17.4z"/>
		<path class="st16" d="M65.7,21.2c-0.9-0.3-1.9-0.1-2.9-0.1c-0.5,0-0.8,0-0.8,0.6c0,0.6,0.3,0.7,0.8,0.7c0.8,0,1.5,0,2.2,0
			C66,22.4,66.2,22,65.7,21.2L65.7,21.2z"/>
	</g>
</g>
</svg>
