<?xml version="1.0" encoding="utf-8"?>
<!-- Generator: Adobe Illustrator 23.0.1, SVG Export Plug-In . SVG Version: 6.00 Build 0)  -->
<svg version="1.1" id="Слой_1" xmlns="http://www.w3.org/2000/svg" xmlns:xlink="http://www.w3.org/1999/xlink" x="0px" y="0px"
	 width="110px" height="40px" viewBox="0 0 110 40" style="enable-background:new 0 0 110 40;" xml:space="preserve">
<style type="text/css">
	.st0{fill:#FFFFFF;}
	.st1{fill:#62BB4D;}
	.st2{fill:#1AA854;}
	.st3{fill:#58585A;}
	.st4{fill:#2C3E50;}
</style>
<g>
	<rect class="st0" width="110" height="40"/>
</g>
<g id="Слой_3">
	<path class="st1" d="M6.3,26.3c0.5,0.2,1,0.5,1.5,0.7c2.2,0.9,4.4,1.6,6.8,2c2,0.3,4.1,0.1,6-0.4s3.7-1.2,5.4-2
		c0.1,0,0.1-0.1,0.2-0.1c0,0.4,0,0.8,0,1.2c0,0.4,0,0.8,0,1.2c0,0.1,0,0.2-0.1,0.3c-2.2,1.8-4.6,3.2-7.4,3.8
		c-1.9,0.4-3.7,0.3-5.6-0.3c-2.2-0.6-4.2-1.7-6-3c-0.3-0.2-0.6-0.4-0.8-0.6c-0.1-0.3,0-0.6,0-1C6.3,27.5,6.3,27,6.3,26.3z"/>
	<path class="st2" d="M24.6,10.8c-1.8-2.5-4.3-3.8-7.4-4c-3.3-0.2-6.1,0.8-8.4,3.2c-1.5,1.6-2.4,3.6-2.4,5.8c0,1.4,0,2.9,0,4.3l0,0
		c0,1.5,0,3,0,4.6c0,0.2,0.1,0.2,0.2,0.3c1.6,0.8,3.2,1.3,4.8,1.8c0.1,0,0.2,0,0.2-0.1c0.1-1.4,0.6-2.6,1.6-3.6
		c1.5-1.6,3.7-2,5.5-1.1c1.9,0.9,2.8,2.5,3.1,4.6c0,0.3,0,0.3,0.3,0.2c1.4-0.4,2.7-1,4-1.6c0.2-0.1,0.2-0.2,0.2-0.4
		c0-2.8,0-5.5,0-8.3C26.3,14.2,25.8,12.4,24.6,10.8z M18.2,20.5c-0.5,0.2-1,0.3-1.8,0.3c-1,0-2.1-0.5-2.8-1.5
		c-1-1.4-0.8-3.4,0.6-4.5c1.5-1.2,3.6-1.2,5,0.1C21.1,16.5,20.6,19.5,18.2,20.5z"/>
	<g>
		<path class="st3" d="M50.2,25.3c0-0.6,0-0.6-0.6-0.6c-0.1,0-0.2,0-0.2,0.1c-0.1,0.3-0.2,0.6-0.3,0.9c-0.2,0.4-0.3,0.8-0.5,1.2
			c-0.2-0.6-0.5-1.2-0.7-1.8c-0.2-0.5-0.2-0.5-0.7-0.5c-0.2,0-0.2,0-0.2,0.2c-0.1,0.8-0.1,1.6-0.2,2.4c0,0.3,0,0.3,0.3,0.3
			c0.2,0,0.2-0.1,0.2-0.2c0-0.3,0-0.7,0.1-1c0-0.4,0-0.8,0.1-1.1c0.1,0,0.1,0.1,0.1,0.1c0.2,0.7,0.5,1.3,0.7,2
			c0,0.1,0.1,0.2,0.2,0.2c0.1,0,0.2,0,0.3-0.1c0.3-0.7,0.5-1.3,0.8-2c0,0,0-0.1,0.1-0.1c0,0.7,0.1,1.4,0.1,2.1
			c0,0.2,0.1,0.2,0.2,0.2h0.1c0.2,0,0.3,0,0.2-0.3C50.3,26.7,50.2,26,50.2,25.3z"/>
		<path class="st3" d="M96.1,26.1c0.4-0.4,0.8-0.9,1.2-1.3c-0.2,0-0.3,0-0.4,0c-0.2,0-0.3,0.1-0.5,0.2c-0.2,0.3-0.5,0.6-0.8,1
			l-0.1,0.1c-0.1,0,0-0.1,0-0.2c0-0.2,0-0.5,0-0.7c0-0.4,0-0.4-0.4-0.4c-0.1,0-0.2,0-0.2,0.2c0,0.3,0,0.6,0,0.9c0,0.1,0,0.1,0,0.2
			c-0.1,0-0.1-0.1-0.2-0.1c-0.3-0.3-0.6-0.7-0.8-1c0-0.1-0.1-0.1-0.2-0.1c-0.2,0-0.4,0-0.6,0c0.4,0.5,0.8,0.9,1.2,1.3
			c-0.4,0.1-0.7,0.3-0.9,0.6c-0.1,0.3-0.2,0.6-0.3,0.8v0.1c0.1,0.1,0.5,0,0.6-0.2s0.2-0.4,0.3-0.6c0.2-0.3,0.4-0.5,0.8-0.5
			c0.1,0,0.2,0,0.2,0.2c0,0.3,0,0.5,0,0.8c0,0.4,0,0.4,0.4,0.4c0.2,0,0.2,0,0.2-0.2c0-0.3,0-0.6,0-0.9c0-0.2,0.1-0.2,0.2-0.2
			c0.3,0,0.5,0.1,0.7,0.4c0.1,0.1,0.1,0.3,0.2,0.4c0.3,0.6,0.1,0.5,0.7,0.5l0,0c-0.1-0.2-0.1-0.3-0.2-0.5
			C96.9,26.7,96.7,26.2,96.1,26.1z"/>
		<path class="st3" d="M72.6,24.8c-0.1-0.1-0.3,0-0.5,0c-0.1,0-0.2,0-0.2,0.1c-0.1,0.2-0.2,0.5-0.3,0.7c-0.2,0.5-0.4,0.9-0.5,1.4
			c-0.2-0.6-0.4-1.2-0.7-1.8c-0.2-0.5-0.2-0.5-0.7-0.5c-0.2,0-0.2,0.1-0.2,0.2c-0.1,0.8-0.1,1.6-0.2,2.4c0,0.3,0,0.3,0.3,0.3
			c0,0,0,0,0.1,0s0.2,0,0.2-0.2c0-0.5,0.1-0.9,0.1-1.4c0-0.3,0-0.5,0-0.8c0.2,0.7,0.5,1.4,0.8,2.2c0,0.1,0.1,0.2,0.2,0.2
			s0.3,0,0.3-0.2c0.3-0.7,0.6-1.4,0.9-2.1c0,0.7,0.1,1.3,0.1,2c0,0.4,0,0.3,0.4,0.4c0.2,0,0.2,0,0.2-0.2c-0.1-0.7-0.1-1.5-0.2-2.2
			C72.6,25.1,72.7,24.9,72.6,24.8z"/>
		<path class="st3" d="M60.3,24.7c-0.3,0.1-0.6,0.2-0.8,0.5c-0.1-0.1,0-0.1,0-0.2c0-0.2-0.1-0.3-0.3-0.3h-0.1c-0.2,0-0.2,0-0.2,0.2
			c0,0.5,0,0.9,0,1.4c0,0.8,0,1.6,0,2.3c0,0.1,0,0.2,0,0.2c0.1,0,0.3,0,0.5,0c0.1,0,0.1-0.2,0.1-0.3c0-0.4,0-0.8,0-1.3
			c0.7,0.5,1.4,0.5,1.9,0c0.4-0.4,0.5-1,0.4-1.6C61.7,25,61.1,24.6,60.3,24.7z M61.2,26.9c-0.2,0.4-0.6,0.5-1,0.4s-0.6-0.4-0.6-0.8
			c0-0.1,0-0.1,0-0.2c0-0.3,0-0.6,0.3-0.8c0.4-0.4,1.2-0.3,1.4,0.2C61.4,26.1,61.4,26.5,61.2,26.9z"/>
		<path class="st3" d="M64.9,24.8c-0.1,0-0.2,0-0.3,0.1c-0.4,0.7-0.9,1.4-1.3,2.2c0,0,0,0-0.1,0c0-0.7,0-1.4,0-2
			c0-0.3,0-0.3-0.3-0.3c-0.2,0-0.3,0-0.3,0.3c0,0.1,0,0.2,0,0.3c0,0.7,0,1.4,0,2.2c0,0.2,0,0.2,0.2,0.2c0.1,0,0.1,0,0.2,0
			c0.2,0,0.3-0.1,0.4-0.2c0.4-0.7,0.9-1.4,1.3-2.1c0,0.7,0,1.4,0,2.1c0,0.2,0.1,0.3,0.3,0.2h0.1c0.2,0,0.2,0,0.2-0.2
			c0-0.8,0-1.5,0-2.3C65.3,24.8,65.3,24.8,64.9,24.8z"/>
		<path class="st3" d="M36.8,24.8c-0.1,0-0.2,0-0.3,0.1c-0.4,0.6-0.8,1.2-1.2,1.9c-0.1,0.1-0.1,0.2-0.2,0.3c0-0.7,0-1.3,0-1.9
			c0-0.4,0-0.4-0.4-0.4c-0.1,0-0.1,0-0.1,0.1c0,0.9,0,1.8,0,2.7c0,0.1,0,0.1,0.1,0.1c0.3,0,0.6,0,0.8-0.4c0-0.1,0.1-0.2,0.1-0.2
			c0.4-0.6,0.7-1.2,1.1-1.8c0,0.7,0,1.3,0,2c0,0.4,0,0.3,0.4,0.4c0.2,0,0.2-0.1,0.2-0.2c0-0.7,0-1.5,0-2.2
			C37.3,24.8,37.3,24.8,36.8,24.8z"/>
		<path class="st3" d="M103.7,25.2c0-0.5,0-0.5-0.5-0.5c-0.1,0-0.2,0-0.3,0.1c-0.4,0.7-0.9,1.3-1.3,2.1c0,0,0,0.1-0.1,0.1
			c0-0.7,0-1.4,0-2.1c0-0.1,0-0.2-0.2-0.2h-0.1c-0.2,0-0.2,0-0.2,0.2c0,0.8,0,1.6,0,2.4c0,0.3,0,0.3,0.3,0.3s0.4-0.1,0.6-0.3
			c0.4-0.7,0.9-1.3,1.3-2.1c0,0.1,0,0.1,0,0.1c-0.1,0.7,0,1.4,0,2.1c0,0.1,0,0.2,0.2,0.2h0.1c0.2,0,0.2,0,0.2-0.2
			C103.7,26.7,103.7,26,103.7,25.2z"/>
		<path class="st3" d="M80.4,24.8c-0.7,0-1.5,0-2.2,0c-0.2,0-0.2,0-0.2,0.2c0,0.8,0,1.6,0,2.4c0,0.3,0,0.3,0.4,0.3
			c0.2,0,0.2-0.1,0.2-0.2c0-0.7,0-1.4,0-2.1c0-0.1,0-0.2,0.2-0.2c0.4,0,0.7,0,1.1,0c0.1,0,0.2,0,0.2,0.2c0,0.6,0,1.3,0,1.9
			c0,0.4,0,0.4,0.4,0.4c0.2,0,0.2-0.1,0.2-0.2c0-0.4,0-0.8,0-1.3c0-0.4,0-0.8,0-1.3C80.6,24.8,80.5,24.8,80.4,24.8z"/>
		<path class="st3" d="M45.4,24.8c-0.6-0.2-1.3,0-1.6,0.6c-0.4,0.6-0.3,1.5,0.1,1.9c0.1,0.1,0.2,0.2,0.4,0.3c0.6,0.3,1.1,0.2,1.7,0
			c0.2-0.1,0.1-0.2,0.1-0.3c0-0.1-0.1-0.1-0.2-0.1c-0.3,0.1-0.6,0.1-1,0.1c-0.4-0.1-0.8-0.4-0.8-0.8c0-0.1,0-0.2,0.1-0.2
			c0.3,0,0.6,0,0.9,0c0.3,0,0.6,0,0.9,0c0.1,0,0.1,0,0.2-0.1C46.4,25.7,46,25,45.4,24.8z M45.6,26C45.6,26,45.5,26,45.6,26
			c-0.2,0-0.5,0-0.7,0s-0.5,0-0.7,0c-0.1,0-0.1,0-0.1-0.1c0.1-0.5,0.7-0.9,1.2-0.7c0.2,0.1,0.4,0.4,0.4,0.7C45.7,26,45.6,26,45.6,26
			z"/>
		<path class="st3" d="M68,24.8c-0.7-0.3-1.4,0-1.8,0.6c-0.4,0.7-0.2,1.6,0.4,2s1.3,0.3,1.9,0.1c0.2-0.1,0-0.2,0-0.3
			c0-0.1-0.1-0.1-0.2-0.1c-0.2,0.1-0.5,0.1-0.7,0.1c-0.6,0-1-0.3-1-0.8c0-0.1,0-0.2,0.2-0.2c0.3,0,0.6,0,0.9,0s0.6,0,0.9,0
			c0.1,0,0.1,0,0.2-0.1C68.9,25.7,68.5,25,68,24.8z M68,26c-0.2,0-0.5,0-0.7,0s-0.5,0-0.7,0c-0.1,0-0.1,0-0.1-0.1
			c0.1-0.5,0.6-0.9,1.1-0.7c0.3,0.1,0.5,0.4,0.5,0.7C68.2,25.9,68.1,26,68,26z"/>
		<path class="st3" d="M92,24.8c-0.8-0.3-1.6,0.2-1.9,1c-0.2,0.8,0.1,1.6,0.8,1.9c0.5,0.2,1.1,0.1,1.6,0c0.2-0.1,0-0.2,0-0.3
			c0-0.1-0.1-0.1-0.2-0.1c-0.2,0.1-0.4,0.1-0.6,0.1c-0.6,0-1.1-0.3-1.2-0.8c0-0.1,0-0.2,0.2-0.2c0.3,0,0.6,0,0.9,0s0.6,0,0.9,0
			c0.1,0,0.1,0,0.2-0.1C93,25.6,92.6,25,92,24.8z M92.2,26c-0.2,0-0.5,0-0.7,0s-0.5,0-0.7,0c-0.1,0-0.1,0-0.1-0.1
			c0.1-0.6,0.7-0.9,1.2-0.6c0.3,0.1,0.4,0.4,0.4,0.6C92.3,26,92.2,26,92.2,26z"/>
		<path class="st3" d="M53.2,25.8c0-0.6-0.3-1-0.8-1c-0.4-0.1-0.7,0-1.1,0.1C51,25,51,25,51.2,25.3c0.3-0.1,0.6-0.2,0.9-0.2
			c0.3,0,0.5,0.2,0.5,0.4c0.1,0.3,0,0.3-0.2,0.3c-0.4,0-0.9,0.1-1.3,0.4c-0.3,0.2-0.4,0.6-0.3,0.9c0.1,0.3,0.4,0.6,0.8,0.6
			c0.4,0,0.8-0.1,1.1-0.4c0,0.1,0,0.1,0,0.2s0,0.2,0.1,0.2s0.3,0,0.4,0v-0.1C53.2,27,53.3,26.4,53.2,25.8z M51.9,27.4
			c-0.2,0-0.4-0.1-0.5-0.3c-0.1-0.2,0-0.4,0.2-0.6c0.3-0.2,0.7-0.2,1-0.2c0.1,0,0.1,0,0.1,0.1s0,0.1,0,0.2
			C52.7,27.1,52.4,27.4,51.9,27.4z"/>
		<path class="st3" d="M99.5,24.8c-0.6-0.2-1.3,0-1.7,0.6c-0.4,0.6-0.3,1.5,0.1,1.9s1.6,0.6,2.1,0.3c0.1-0.1,0-0.2,0-0.3
			c0-0.1-0.1-0.1-0.2,0c-0.2,0.1-0.4,0.1-0.7,0.1c-0.6,0-1-0.3-1.1-0.8c0-0.1,0-0.2,0.2-0.2c0.3,0,0.6,0,0.9,0s0.6,0,0.9,0
			c0.1,0,0.1,0,0.2-0.1C100.4,25.7,100,24.9,99.5,24.8z M99.6,26c-0.2,0-0.5,0-0.7,0s-0.4,0-0.7,0c-0.1,0-0.2,0-0.1-0.2
			c0.1-0.5,0.5-0.8,1-0.7c0.3,0.1,0.6,0.4,0.6,0.7C99.8,25.9,99.7,26,99.6,26z"/>
		<path class="st3" d="M87,27.1c0-0.5,0-0.9,0-1.4s-0.4-0.9-0.8-1c-0.3-0.1-0.7,0-1,0.1c-0.4,0.1-0.4,0.1-0.2,0.5
			c0.3-0.2,0.6-0.2,0.9-0.2c0.2,0,0.4,0.1,0.5,0.4s0.1,0.4-0.2,0.4h-0.1c-0.4,0-0.8,0.1-1.1,0.4c-0.3,0.2-0.4,0.5-0.3,0.9
			c0.1,0.3,0.3,0.5,0.6,0.6c0.4,0.1,0.8,0,1.1-0.3l0.1-0.1c0,0.1,0,0.3,0.2,0.3c0.3,0,0.3,0,0.3-0.3C87,27.3,87,27.2,87,27.1z
			 M86.4,26.5c0.1,0.6-0.4,0.9-0.8,0.9c-0.2,0-0.4-0.1-0.5-0.3c-0.1-0.2,0-0.4,0.1-0.6c0.3-0.3,0.7-0.3,1.1-0.3
			C86.5,26.2,86.4,26.4,86.4,26.5z"/>
		<path class="st3" d="M75.7,27.3c0-0.5,0-1,0-1.5c0-0.4-0.1-0.7-0.4-0.9c-0.5-0.3-1.3-0.2-1.7,0c-0.2,0.1,0,0.2,0,0.3
			c0,0.1,0.1,0,0.1,0c0.3-0.1,0.5-0.2,0.8-0.1c0.2,0,0.4,0.1,0.5,0.3c0.2,0.3,0.1,0.4-0.2,0.5c-0.4,0-0.8,0.1-1.2,0.3
			c-0.3,0.2-0.4,0.6-0.3,1c0.1,0.3,0.4,0.6,0.8,0.6s0.8-0.1,1.1-0.4c0.1,0.1,0.1,0.1,0.1,0.2s0.1,0.2,0.2,0.2
			C75.8,27.7,75.8,27.7,75.7,27.3C75.7,27.4,75.7,27.3,75.7,27.3z M75.2,26.6c0,0.5-0.3,0.8-0.8,0.8c-0.2,0-0.4-0.1-0.5-0.3
			c-0.1-0.2,0-0.5,0.2-0.6c0.3-0.2,0.6-0.2,1-0.2c0.1,0,0.1,0,0.1,0.1C75.2,26.4,75.2,26.5,75.2,26.6z"/>
		<path class="st3" d="M57.9,24.8c-0.8,0-1.5,0-2.3,0c-0.1,0-0.2,0-0.2,0.2c0,0.4,0,0.9,0,1.3s0,0.8,0,1.1c0,0.3,0,0.3,0.3,0.3
			c0.2,0,0.2-0.1,0.2-0.2c0-0.7,0-1.4,0-2.1c0-0.1,0-0.2,0.2-0.2c0.4,0,0.7,0,1.1,0c0.2,0,0.2,0.1,0.2,0.2c0,0.6,0,1.3,0,1.9
			c0,0.4,0,0.4,0.4,0.4c0.1,0,0.2,0,0.2-0.2c0-0.9,0-1.7,0-2.6C58.1,24.8,58.1,24.8,57.9,24.8z"/>
		<path class="st3" d="M83.6,24.8c-0.6,0-1.2,0-1.8,0c-0.2,0-0.2,0.1-0.2,0.2c0,0.5,0,1.1,0,1.6c0,0.3-0.1,0.6-0.4,0.7
			s-0.1,0.2-0.1,0.4c0,0.2,0.2,0.1,0.2,0.1c0.4-0.1,0.7-0.4,0.8-0.9c0.1-0.5,0.1-1,0.1-1.4c0-0.1,0-0.2,0.2-0.2s0.5,0,0.7,0
			c0.1,0,0.2,0,0.2,0.2c0,0.6,0,1.3,0,1.9c0,0.4,0,0.4,0.4,0.4c0.2,0,0.2-0.1,0.2-0.2c0-0.4,0-0.8,0-1.3c0-0.4,0-0.8,0-1.2
			C83.9,24.8,83.8,24.8,83.6,24.8z"/>
		<path class="st3" d="M33.2,25.2c0.2,0,0.4,0,0.5,0.1c0.1,0,0.2,0,0.2-0.1s0.2-0.3,0-0.3c-0.7-0.2-1.3-0.2-1.9,0.3
			c-0.5,0.4-0.6,1.1-0.4,1.7s0.7,0.9,1.5,0.9c0.2,0,0.5,0,0.7-0.1s0-0.2,0-0.3c0-0.1-0.1-0.1-0.2-0.1c-0.2,0.1-0.3,0.1-0.5,0.1
			c-0.6,0-1.1-0.4-1.1-1C32.1,25.6,32.5,25.2,33.2,25.2z"/>
		<path class="st3" d="M40.1,25.2c0.3,0.1,0.3,0.1,0.4-0.2c0-0.1,0-0.1-0.1-0.1c-0.5-0.2-1.4-0.2-1.9,0.4c-0.4,0.4-0.6,1.1-0.3,1.7
			s0.8,0.8,1.4,0.8c0.2,0,0.4,0,0.7-0.1c0.2,0,0.2-0.2,0.2-0.3c-0.1-0.2-0.2-0.1-0.3-0.1c-0.5,0.1-0.9,0.1-1.3-0.3
			c-0.3-0.3-0.4-0.8-0.2-1.2C38.8,25.3,39.4,25,40.1,25.2z"/>
		<path class="st3" d="M89.8,24.8c-0.4,0-0.7,0-1.1,0s-0.7,0-1.1,0c-0.2,0-0.2,0-0.2,0.2c0,0.1,0,0.2,0.2,0.2s0.4,0,0.6,0
			c0.1,0,0.2,0,0.2,0.2c0,0.7,0,1.3,0,2c0,0.4,0,0.3,0.3,0.4c0.2,0,0.2-0.1,0.2-0.2c0-0.7,0-1.4,0-2.1c0-0.2,0-0.2,0.2-0.2
			s0.4,0,0.6,0s0.2-0.1,0.2-0.2C89.9,24.9,90,24.8,89.8,24.8z"/>
		<path class="st3" d="M43.2,24.8c-0.4,0-0.7,0-1.1,0c-0.4,0-0.7,0-1.1,0c-0.2,0-0.2,0.1-0.2,0.2s0,0.2,0.2,0.2s0.4,0,0.6,0
			c0.2,0,0.2,0,0.2,0.2c0,0.7,0,1.4,0,2.1c0,0.2,0,0.3,0.2,0.2h0.1c0.2,0,0.2,0,0.2-0.2c0-0.7,0-1.4,0-2.1c0-0.1,0-0.2,0.2-0.2
			s0.4,0,0.7,0c0.2,0,0.1-0.1,0.1-0.2C43.3,24.9,43.4,24.8,43.2,24.8z"/>
		<path class="st3" d="M102.3,24.4c0.5,0,0.8-0.2,0.8-0.6c0-0.1,0-0.1,0-0.2c-0.1-0.1-0.3,0-0.4,0.2s-0.2,0.3-0.4,0.3
			c-0.2,0-0.3-0.1-0.4-0.3c0-0.2-0.2-0.2-0.3-0.2c-0.1,0-0.2,0-0.1,0.2C101.6,24.1,101.9,24.4,102.3,24.4z"/>
	</g>
	<g>
		<path class="st2" d="M75.9,18.3c-0.1-0.5-0.2-1.1-0.5-1.6s-0.6-1-1.2-1.2c0.8-1.2,1.5-2.4,2.3-3.7c-0.8,0-1.5,0-2.3,0
			c-0.2,0-0.2,0-0.3,0.2c-0.5,1-0.9,2-1.4,3.1c-0.1,0.1-0.1,0.2-0.2,0.1c-0.1,0-0.1-0.1-0.1-0.2c0-1,0-2,0-3c0-0.2,0-0.2-0.2-0.2
			c-0.7,0-1.3,0-2,0c-0.1,0-0.2,0-0.2,0.2c0,2.7,0,5.4,0,8.2c0,0.2,0.1,0.2,0.2,0.2c0.6,0,1.3,0,1.9,0c0.2,0,0.2,0,0.2-0.2
			c0-1,0-2.1,0-3.1c0-0.2,0.1-0.2,0.2-0.2c0.3,0,0.5,0.2,0.7,0.4c0.2,0.3,0.4,0.7,0.5,1.1c0.1,0.6,0.3,1.2,0.5,1.8
			c0,0.1,0,0.2,0.2,0.2c0.8,0,1.5,0,2.3,0c0-0.1,0-0.1,0-0.1C76.3,19.5,76.1,18.9,75.9,18.3z"/>
		<path class="st2" d="M83.7,19c0-1.4,0-2.7,0-4.1c0-0.4,0-0.8-0.1-1.2c-0.2-1.1-0.8-1.8-1.9-2.1c-0.5-0.1-0.9-0.1-1.4-0.1
			c-0.8,0-1.6,0.2-2.3,0.5c-0.1,0.1-0.2,0.1-0.1,0.3c0.1,0.4,0.2,0.8,0.3,1.2c0,0.1,0.1,0.2,0.2,0.1c0.6-0.3,1.2-0.4,1.9-0.4
			c0.6,0,1,0.5,1.1,1.1c0,0.2,0,0.2-0.2,0.2c-0.5,0-1,0.1-1.5,0.2c-1.7,0.5-2.5,1.7-2.3,3.4c0.1,1,0.6,1.7,1.6,2s1.8,0.1,2.5-0.7
			c0.1-0.1,0.1-0.1,0.2-0.2c0,0.2,0.1,0.4,0.1,0.6c0,0.1,0.1,0.2,0.2,0.2c0.6,0,1.2,0,1.8,0c0.2,0,0.2-0.1,0.2-0.2
			C83.7,19.7,83.7,19.4,83.7,19z M81.3,17c0,0.3,0,0.6,0,0.9c-0.1,0.3-0.2,0.5-0.4,0.7c-0.5,0.3-1.1,0.1-1.3-0.5
			c-0.3-0.8,0.1-1.6,0.9-1.8c0.2-0.1,0.5-0.1,0.8-0.1c0.1,0,0.1,0,0.1,0.1C81.3,16.5,81.3,16.7,81.3,17z"/>
		<path class="st2" d="M103.2,19.3c-0.1-1.4,0-2.7,0-4.1c0-0.5,0-1.1-0.2-1.6c-0.2-0.8-0.6-1.4-1.4-1.8c-0.6-0.3-1.2-0.3-1.8-0.3
			c-0.8,0-1.6,0.2-2.4,0.5c-0.1,0.1-0.2,0.1-0.1,0.3c0.1,0.4,0.2,0.8,0.3,1.2c0,0.2,0.1,0.2,0.2,0.1c0.6-0.3,1.2-0.4,1.8-0.4
			c0.6,0,1,0.4,1.1,1.1c0,0.2,0,0.3-0.2,0.3c-0.6,0-1.2,0.1-1.8,0.3c-1.5,0.5-2.2,1.7-2,3.2c0.2,1.7,1.8,2.6,3.3,2
			c0.4-0.2,0.7-0.4,1-0.8c0,0.3,0.1,0.5,0.1,0.7c0,0.1,0.1,0.2,0.2,0.2c0.6,0,1.2,0,1.8,0c0.1,0,0.1,0,0.1-0.1
			C103.2,19.9,103.2,19.6,103.2,19.3z M100.8,17L100.8,17c0,0.2,0,0.5,0,0.7c0,0.3-0.1,0.6-0.4,0.8c-0.5,0.4-1.2,0.3-1.4-0.4
			c-0.2-0.8,0-1.6,1.1-1.9c0.2,0,0.4-0.1,0.6-0.1c0.1,0,0.2,0,0.2,0.2C100.8,16.5,100.8,16.8,100.8,17z"/>
		<path class="st2" d="M89.3,13.5c0.2,0,0.4,0,0.5,0.1c0.1,0,0.1,0,0.2-0.1c0.1-0.5,0.2-1,0.3-1.5c0-0.1,0-0.2-0.1-0.2
			c-1.5-0.4-2.9-0.1-4,1c-0.9,0.9-1.2,2.1-1.2,3.3c0,0.4,0,0.8,0.1,1.3c0.2,1.1,0.7,2,1.6,2.5c1.1,0.6,2.2,0.6,3.4,0.3
			c0.1,0,0.1-0.1,0.1-0.2c-0.1-0.5-0.1-0.9-0.1-1.4c0-0.2,0-0.3-0.3-0.2c-0.8,0.3-1.7,0-2-0.7c-0.6-1.1-0.6-2.2,0-3.3
			C88,13.7,88.6,13.4,89.3,13.5z"/>
		<path class="st2" d="M94.2,13.6c0.5-0.2,0.9-0.2,1.4,0c0.1,0,0.2,0,0.2-0.1c0.1-0.5,0.2-1,0.3-1.5c0-0.2-0.1-0.2-0.2-0.2
			c-1.3-0.4-3.2-0.1-4.3,1.3c-0.7,0.9-0.9,1.9-1,3c0,0.5,0,0.9,0.1,1.4c0.2,0.9,0.6,1.7,1.4,2.2c1.1,0.8,2.3,0.8,3.6,0.5
			c0.1,0,0.1-0.1,0.1-0.2c-0.1-0.5-0.1-1-0.2-1.4c0-0.2-0.1-0.2-0.2-0.1c-1,0.4-1.9-0.1-2.3-1.1c-0.3-0.7-0.3-1.5-0.1-2.2
			C93.3,14.5,93.6,13.9,94.2,13.6z"/>
	</g>
	<g>
		<path class="st4" d="M68.6,15c-0.1-0.7-0.2-1.4-0.5-2c-0.5-1-1.3-1.5-2.4-1.4C65,11.7,64.4,12,64,12.7c0-0.3-0.1-0.6-0.1-0.8
			c0-0.1-0.1-0.2-0.2-0.2c-0.6,0-1.1,0-1.7,0c-0.2,0-0.2,0.1-0.2,0.2c0,1,0.1,1.9,0.1,2.9c0,2.8,0,5.7,0,8.5c0,0.2,0,0.2,0.2,0.2
			c0.7,0,1.3,0,2,0c0.2,0,0.2,0,0.2-0.2c0-1.2,0-2.4,0-3.6c0-0.1,0-0.1,0-0.2c0.2,0.2,0.3,0.4,0.6,0.6c0.7,0.4,1.6,0.3,2.4-0.2
			c0.6-0.5,1-1.2,1.2-1.9C68.7,17,68.7,16,68.6,15z M66.1,17.7c-0.1,0.2-0.2,0.4-0.3,0.6c-0.4,0.4-0.9,0.3-1.2-0.2
			c-0.2-0.3-0.2-0.7-0.2-1.1c0-0.3,0-0.7,0-1l0,0c0-0.4,0-0.9,0-1.3c0-0.3,0.1-0.5,0.2-0.8c0.3-0.6,1-0.6,1.4,0
			C66.2,14.2,66.8,15.8,66.1,17.7z"/>
		<path class="st4" d="M38.1,11.7c-0.6,0-1.3,0-1.9,0c-0.1,0-0.2,0-0.2,0.2c-0.6,1.4-1.2,2.8-1.8,4.2c-0.2,0.4-0.3,0.9-0.5,1.4
			c0-0.1,0-0.2,0-0.3c0.2-1.8,0.2-3.5,0.2-5.3c0-0.2,0-0.2-0.2-0.2c-0.6,0-1.2,0-1.8,0c-0.2,0-0.2,0-0.2,0.2c0,2.7,0,5.4,0,8.1
			c0,0.1,0,0.2,0.2,0.2c0.6,0,1.2,0,1.9,0c0.1,0,0.2,0,0.2-0.1c0.7-1.5,1.4-3,1.9-4.6c0.1-0.3,0.2-0.6,0.3-0.9l0,0
			c0,0.1,0,0.1,0,0.2c-0.1,1.8-0.2,3.5-0.1,5.3c0,0.2,0,0.2,0.2,0.2c0.6,0,1.2,0,1.8,0c0.2,0,0.2-0.1,0.2-0.2c0-2.7,0-5.4,0-8.1
			C38.3,11.8,38.2,11.7,38.1,11.7z"/>
		<path class="st4" d="M46.4,11.7c-0.7,0-1.3,0-2,0c-0.2,0-0.2,0-0.2,0.2c0,0.9,0,1.9,0,2.8c0,0.1,0,0.2-0.2,0.2c-0.5,0-1,0-1.5,0
			c-0.2,0-0.2,0-0.2-0.2c0-0.9,0-1.9,0-2.8c0-0.1,0-0.2-0.2-0.2c-0.7,0-1.3,0-2,0c-0.1,0-0.2,0-0.2,0.2c0,2.7,0,5.4,0,8.2
			c0,0.2,0.1,0.2,0.2,0.2c0.7,0,1.3,0,2,0c0.2,0,0.2,0,0.2-0.2c0-1,0-1.9,0-2.9c0-0.2,0-0.2,0.2-0.2c0.5,0,0.9,0,1.4,0
			c0.2,0,0.2,0,0.2,0.2c0,1,0,1.9,0,2.9c0,0.2,0,0.2,0.2,0.2c0.7,0,1.3,0,2,0c0.2,0,0.2-0.1,0.2-0.2c0-1.4,0-2.7,0-4.1s0-2.7,0-4.1
			C46.6,11.8,46.6,11.7,46.4,11.7z"/>
		<path class="st4" d="M58.6,11.7c-1.5-0.3-3,0.3-3.7,1.7c-0.8,1.6-0.9,3.2-0.3,4.9c0.3,1,1,1.6,2,1.9c1.3,0.4,2.5,0.2,3.8-0.1
			c0.1,0,0.1-0.1,0.1-0.2c-0.1-0.4-0.2-0.9-0.3-1.3c0-0.1-0.1-0.2-0.2-0.1c-0.5,0.2-1,0.2-1.5,0.2c-1.1,0-1.9-0.5-2-1.6
			c0-0.2,0-0.2,0.2-0.2c0.6,0,1.3,0,1.9,0c0.6,0,1.3,0,1.9,0c0.2,0,0.3-0.1,0.3-0.2c0.1-1,0.1-1.9-0.2-2.8
			C60.3,12.7,59.7,12,58.6,11.7z M58.5,15.2c-0.3,0-0.6,0-0.9,0c-0.3,0-0.6,0-0.9,0c-0.1,0-0.2,0-0.2-0.1c0-0.5,0.1-1,0.4-1.4
			c0.2-0.3,0.4-0.5,0.8-0.4c0.3,0,0.6,0.2,0.7,0.5C58.6,14.2,58.6,14.6,58.5,15.2C58.7,15.2,58.6,15.2,58.5,15.2z"/>
		<path class="st4" d="M53.8,11.7c-2,0-4,0-6.1,0c-0.2,0-0.2,0.1-0.2,0.2c0,0.5,0,1,0,1.5c0,0.2,0.1,0.2,0.2,0.2c0.5,0,1,0,1.5,0
			c0.2,0,0.2,0,0.2,0.2c0,2.1,0,4.2,0,6.2c0,0.2,0,0.2,0.2,0.2c0.7,0,1.3,0,2,0c0.2,0,0.2,0,0.2-0.2c0-1,0-2.1,0-3.1s0-2.1,0-3.1
			c0-0.2,0-0.2,0.2-0.2c0.5,0,1.1,0,1.6,0c0.1,0,0.2,0,0.2-0.2c0-0.5,0-1,0-1.5C53.9,11.8,53.9,11.7,53.8,11.7z"/>
	</g>
</g>
</svg>
