<?xml version="1.0" encoding="utf-8"?>
<!-- Generator: Adobe Illustrator 23.0.1, SVG Export Plug-In . SVG Version: 6.00 Build 0)  -->
<svg version="1.1" id="Слой_1" xmlns="http://www.w3.org/2000/svg" xmlns:xlink="http://www.w3.org/1999/xlink" x="0px" y="0px"
	 width="110px" height="40px" viewBox="0 0 110 40" style="enable-background:new 0 0 110 40;" xml:space="preserve">
<style type="text/css">
	.st0{fill:#FFFFFF;}
	.st1{fill:#003087;}
	.st2{fill:#009CDE;}
	.st3{fill:#012169;}
</style>
<g>
	<rect class="st0" width="110" height="40"/>
</g>
<g id="Слой_3">
	<path class="st1" d="M14.3,11.6c0.1-0.6,0.2-1.3,0.3-1.9c0.1-0.6,0.3-1,1.1-1c2.2,0,4.4,0,6.5,0c0.7,0,2.9,0.2,3.9,1l0,0
		c0.7,0.6,1.2,1.3,1.3,2.2c0.2,1.3,0.1,2.5,0,2.8c-0.2,1.2-0.9,2.3-1.6,3.3c-1.2,1.4-2.9,2-4.7,2.1c-0.9,0.1-1.8,0-2.7,0.1
		c-0.5,0-0.8,0.2-0.8,0.7c-0.2,1-0.3,2-0.5,3c-0.1,0.8-0.2,1.6-0.4,2.5c0,0.2-0.1,0.4-0.4,0.3c-1.2,0-2.3,0-3.5,0
		c-0.6,0-0.8-0.2-0.7-0.8c0.2-1.4,0.4-2.7,0.6-4.1C13.3,18.3,13.8,14.9,14.3,11.6z"/>
	<path class="st2" d="M16.4,26.6l0.1-0.5c0.3-1.8,0.6-3.6,0.9-5.5c0.1-0.5,0.4-0.8,0.9-0.8c1,0,2.1,0,3.1-0.1
		c1.8-0.2,3.3-0.8,4.5-2.3c0.8-1.1,1.3-2.3,1.4-3.6c0.3,0,0.2,0,0.2,0c0.9,0.5,1.4,1.3,1.5,2.3c0.2,2-0.3,3.9-1.8,5.4
		c-1,1-2.2,1.4-3.5,1.5c-0.1,0-0.1,0-0.2,0c-0.5,0-1,0-1.6,0.1c-0.3,0.1-0.5,0.3-0.6,0.6c-0.2,1.1-0.4,2.2-0.6,3.3
		c0,0.3-0.1,0.6-0.1,0.8c-0.1,0.6-0.4,0.8-1,0.8c-1.1,0-2.1,0-3.2,0c-0.3-0.2-0.4-0.4-0.3-0.7c0.1-0.4,0.1-0.6,0.2-1L16.4,26.6z"/>
	<g>
		<path class="st3" d="M27.5,13.8l-9,0l-1.1,6.6c0,0,0.1-0.3,0.9-0.3c0.8,0,1.8,0,2.7-0.1c1.8-0.1,3.5-0.7,4.7-2.1
			C27.8,15.7,27.6,13.8,27.5,13.8z"/>
		<path class="st1" d="M46.6,15.3c-0.2-0.8-0.7-1.3-1.4-1.7c-0.5-0.4-1.9-0.5-2.2-0.5h-4.5c-0.2,0-0.5,0-0.7,0.1
			c-0.1,0.1-0.2,0.3-0.2,0.5c-0.1,0.7-0.2,1.4-0.3,2c-0.3,1.9-0.6,3.9-0.9,5.8c-0.2,1.3-0.5,2.6-0.6,3.9c0.1,0.2,0.3,0.2,0.5,0.2
			c0.6,0,1.3,0,1.9,0c0.5,0,0.7-0.2,0.8-0.7c0.1-0.9,0.3-1.8,0.4-2.7c0.1-0.7,0.3-0.9,1-0.8c0.9,0,1.8,0,2.7-0.1
			c0.3,0,0.7-0.2,1-0.3c0.3-0.1,0.6-0.3,1-0.6C46.6,19.4,47,16.7,46.6,15.3z M41.5,19.1c-0.2,0-0.4,0-0.6,0c-0.9,0-0.9,0-0.8-0.9
			c0.1-0.7,0.2-1.3,0.3-2c0-0.3,0.2-0.5,0.5-0.5c0.5,0,1,0,1.5,0.1c0.6,0.1,0.9,0.5,0.9,1.1C43.4,18.2,42.8,18.9,41.5,19.1z"/>
		<path class="st2" d="M79.1,16c-0.1-1.2-0.7-2-1.8-2.5c-0.8-0.3-1.5-0.4-2.3-0.4c-1.4,0-2.9,0-4.3,0c-0.4,0.1-0.6,0.4-0.6,0.8
			c-0.3,2.2-0.7,4.3-1,6.5c-0.3,1.6-0.5,3.2-0.8,4.8c-0.1,0.5,0,0.6,0.6,0.6c0.4,0,0.8,0,1.2,0c0.2,0,0.4,0,0.7,0
			c0.6,0,0.6-0.1,0.7-0.6c0.2-1,0.3-2,0.5-2.9c0.1-0.5,0.3-0.7,0.8-0.7s1.1,0,1.6,0c1.3,0,2.5-0.3,3.4-1.3
			C78.9,19.1,79.2,17.6,79.1,16z M73.9,19.1c-0.2,0-0.4,0-0.7,0c-0.9,0-0.9,0-0.7-0.8c0.1-0.7,0.2-1.4,0.3-2c0-0.3,0.2-0.5,0.5-0.5
			c0.5,0,1,0,1.5,0.1c0.6,0.1,0.9,0.5,1,1.1C75.8,18.2,75.2,19,73.9,19.1z"/>
		<path class="st1" d="M68.3,17.6c-0.1-0.3-0.4-0.2-0.6-0.2c-0.5,0-1.1,0-1.6,0c-0.4,0-0.7,0.1-0.9,0.5c-0.6,0.9-1.2,1.8-1.9,2.7
			c-0.3,0.5-0.7,1-1,1.5c-0.1-0.2-0.1-0.3-0.1-0.4c-0.4-1.2-0.7-2.4-1.1-3.6c-0.2-0.6-0.4-0.7-0.9-0.7c-0.6,0-1.2,0-1.8,0
			c-0.2,0-0.4,0-0.5,0.2c0,0.3,0.1,0.6,0.2,0.9c0.7,2.1,1.4,4.1,2.1,6.2c0.1,0.2,0,0.4-0.1,0.6c-0.7,0.9-1.3,1.9-2,2.8
			c-0.1,0.2-0.2,0.4-0.1,0.6c0.1,0.1,0.2,0.1,0.3,0.1c0.7,0,1.4,0,2.1,0c0.3,0,0.5-0.1,0.6-0.4c0.4-0.7,0.9-1.3,1.4-2
			c1.9-2.8,3.8-5.5,5.7-8.3C68.2,18,68.4,17.9,68.3,17.6z"/>
		<path class="st2" d="M88.6,17.4c-0.5,0-1,0-1.4,0c-0.8,0-0.8,0-0.9,0.8c0,0,0,0-0.1,0.1c-0.2-0.3-0.5-0.5-0.8-0.7
			c-0.4-0.2-0.9-0.3-1.3-0.3c-0.7,0-1.4,0-2,0.2c-3.2,1.1-4.5,5.4-2.4,7.7c1.1,1.2,3.6,1.4,5.5-0.2c0.1,0.1,0,0.1,0,0.2
			c-0.1,0.6,0,0.7,0.6,0.7c0.5,0,1.1,0,1.6,0c0.4,0,0.6-0.2,0.7-0.6s0.1-0.8,0.2-1.2c0.3-2,0.6-4,1-6C89.2,17.5,89.1,17.4,88.6,17.4
			z M85.8,21.6c-0.2,1.4-1.3,2.3-2.7,2.1c-1-0.1-1.6-0.7-1.5-1.7c0-1.5,1.3-2.6,2.8-2.4C85.3,19.7,85.9,20.5,85.8,21.6z"/>
		<path class="st1" d="M56.2,17.4c-0.4,0-0.9,0-1.3,0c-0.9,0-0.9,0-1.3,0.9c-0.5-0.7-1.1-0.9-1.9-1c-0.5-0.1-1,0-1.5,0
			c-2,0.4-3.4,1.6-4,3.6c-0.7,2.2,0.1,4.6,2.5,5.1c0.2,0,0.4,0.1,0.6,0.1c1.1,0.1,2.1-0.3,3-1c0.1-0.1,0.1-0.2,0.2-0.1
			c0.1,0.1,0,0.2,0,0.3c-0.1,0.4,0.1,0.6,0.5,0.6c0.6,0,1.2,0,1.8,0c0.4,0,0.7-0.2,0.7-0.6c0.4-2.4,0.8-4.8,1.1-7.3
			C56.8,17.5,56.6,17.4,56.2,17.4z M53.2,22.1c-0.4,1-1.3,1.7-2.4,1.7c-1.2,0-1.9-0.8-1.8-2c0.1-1.5,1.5-2.5,3-2.2
			C53.1,19.8,53.6,20.9,53.2,22.1z"/>
		<path class="st2" d="M93.8,13.2c-0.7,0-1.4,0-2,0c-0.3,0-0.4,0.2-0.5,0.4c0,0.8-0.3,1.6-0.3,2.4v0.1c-0.5,3-1,6.1-1.4,9.1
			c-0.1,0.4,0.1,0.6,0.5,0.6c0.6,0,1.2,0,1.9,0c0.3-0.1,0.4-0.4,0.5-0.7c0.3-2.2,0.7-4.5,1.1-6.7c0.2-1.6,0.5-3.1,0.7-4.7
			C94.2,13.4,94.1,13.2,93.8,13.2z"/>
	</g>
</g>
</svg>
