<?xml version="1.0" encoding="utf-8"?>
<!-- Generator: Adobe Illustrator 23.0.1, SVG Export Plug-In . SVG Version: 6.00 Build 0)  -->
<svg version="1.1" id="Слой_1" xmlns="http://www.w3.org/2000/svg" xmlns:xlink="http://www.w3.org/1999/xlink" x="0px" y="0px"
	 width="110px" height="40px" viewBox="0 0 110 40" style="enable-background:new 0 0 110 40;" xml:space="preserve">
<style type="text/css">
	.st0{fill:#FFFFFF;}
	.st1{fill:#F28D1C;}
	.st2{fill:#2A3440;}
	.st3{fill:#EB001B;}
	.st4{fill:#F79E1B;}
	.st5{fill:#FF5F00;}
	.st6{fill:#30A923;}
	.st7{fill:url(#SVGID_1_);}
	.st8{fill:#074F86;}
	.st9{fill:#075086;}
	.st10{fill:#EAB41A;}
	.st11{fill:#D5B345;}
	.st12{fill:#084F86;}
</style>
<g>
	<rect class="st0" width="110" height="40"/>
</g>
<g>
	<g>
		<path class="st1" d="M25.4,30.3c-1.3,0-2.6,0.2-3.9,0.3c-2,0.3-3.9,0.2-5.7-0.5c-4.5-1.6-7.2-4.6-8.2-9.1c-0.7-3.1-0.2-6,1.5-8.7
			c1.6-2.7,3.9-4.5,7-5.4c1.5-0.4,3.1-0.6,4.6-0.3c3.6,0.4,6.5,2.1,8.7,5.1c1.1,1.5,1.8,3.3,2.1,5.1c0.4,2.8-0.1,5.5-1.5,8
			c0,0.1-0.1,0.2-0.2,0.2s-0.1-0.1-0.1-0.2c-0.2-0.8-0.3-1.6-0.8-2.3c-0.7-1.3-1.9-2.1-3.3-2.6c-0.3-0.1-0.5-0.2-0.8-0.3
			c-0.1,0-0.2,0-0.2-0.1s0.1-0.1,0.2-0.1c0.8-0.1,1.6-0.1,2.4,0c0.3,0,0.3-0.1,0.3-0.3c0.1-1.2,0-2.5-0.5-3.6c-1-2.7-3-4.5-5.8-5
			c-2.5-0.5-4.7,0.1-6.7,1.6c-1.6,1.3-2.7,3-2.9,5.1c-0.3,3,0.7,5.5,3,7.5c1.2,0.9,2.6,1.5,4,1.6c0.3,0.1,0.7,0.1,1.1,0.1
			c0.2,0,0.2-0.1,0.2-0.3c-0.2-0.7-0.2-1.4-0.2-2.1c0-0.1,0-0.3,0.1-0.3c0.2,0,0.2,0.1,0.3,0.2c0.4,0.8,1,1.6,1.6,2.2
			c1.2,1.2,2.6,1.8,4.1,2.1c1.2,0.3,2.3,0.5,3.3,1c1.5,0.7,2.7,1.6,3.8,2.8c0.3,0.3,0.5,0.6,0.7,0.8s0.3,0.3,0.1,0.4
			c-0.2,0.2-0.3,0.1-0.5-0.1c-0.7-0.7-1.6-1.2-2.4-1.7c-1.3-0.8-2.7-1.3-4.2-1.5C26.2,30.3,25.8,30.3,25.4,30.3z"/>
		<path class="st1" d="M55.3,15.6c0.3-0.9,0.6-1.8,0.9-2.7c0.3-0.8,0.6-1.6,0.8-2.4c0.1-0.3,0.2-0.3,0.3-0.3c0.4,0,0.8,0,1.2,0
			c0.3,0,0.3,0.1,0.3,0.3c0.6,1.6,1.1,3.3,1.6,4.9c0,0.1,0.1,0.2,0.1,0.3c0.2-0.6,0.3-1,0.5-1.5c0.3-1.2,0.7-2.4,1.1-3.6
			c0.1-0.3,0.2-0.3,0.3-0.3c0.7,0,1.2,0,1.9,0c0.3,0,0.4,0.2,0.3,0.4c-0.9,2.9-2,5.8-2.9,8.7c0.1,0.1-0.1,0.1-0.3,0.1
			c-0.4,0-0.9,0-1.3,0c-0.3,0-0.3-0.1-0.4-0.3c-0.5-1.6-1.1-3.2-1.6-4.8c0-0.1,0-0.2-0.2-0.3c-0.3,0.7-0.4,1.3-0.7,2
			c-0.3,1-0.7,2.1-1,3.1c-0.1,0.3-0.2,0.3-0.4,0.3c-0.5,0-0.9,0-1.5,0c-0.3,0-0.3-0.1-0.3-0.3c-0.9-2.9-2-5.8-2.9-8.7
			c-0.2-0.3,0-0.4,0.3-0.4c0.6,0,1.2,0,1.8,0c0.3,0,0.3,0.1,0.3,0.3c0.5,1.6,1,3.3,1.5,5C55.3,15.5,55.3,15.5,55.3,15.6z"/>
		<path class="st1" d="M48.1,14.9c0-1.5,0-2.9,0-4.4c0-0.3,0.1-0.3,0.3-0.3c0.5,0,1,0,1.5,0c0.3,0,0.3,0.1,0.3,0.3
			c0,2.9,0,5.8,0,8.7c0,0.3-0.1,0.3-0.3,0.3c-0.5,0-1.1,0-1.6,0c-0.3,0-0.3-0.1-0.3-0.3C48.1,17.8,48.1,16.3,48.1,14.9z"/>
		<path class="st1" d="M68,14.9c0,1.5,0,2.9,0,4.3c0,0.3,0,0.3-0.3,0.3c-0.5,0-1,0-1.5,0c-0.3,0-0.4-0.1-0.4-0.4c0-2.7,0-5.6,0-8.3
			c0-0.7,0-0.7,0.7-0.7c0.3,0,0.8,0,1.2,0s0.5,0,0.5,0.4C68,12,68,13.4,68,14.9z"/>
		<path class="st2" d="M48.7,27.1c-0.7,0-1.5,0-2.2,0c-0.3,0-0.3-0.1-0.3-0.3c0-1.1,0-2.1,0-3.3c0-0.3,0.1-0.3,0.3-0.3
			c0.7,0,0.6-0.1,0.6,0.6s0,1.5,0,2.1c0,0.3,0.1,0.3,0.3,0.3s0.4,0,0.7,0s0.3-0.1,0.3-0.3c0-0.8,0-1.6,0-2.4c0-0.3,0-0.3,0.3-0.3
			c0.7,0,0.6-0.1,0.6,0.6s0,1.4,0,2.1c0,0.3,0,0.3,0.3,0.3s0.4,0,0.6,0c0.3,0,0.3-0.1,0.3-0.3c0-0.8,0-1.6,0-2.4
			c0-0.3,0-0.3,0.3-0.3c0.6,0,0.5-0.1,0.5,0.5c0,1,0,2,0,3c0,0.3-0.1,0.3-0.3,0.3C50.2,27.1,49.5,27.1,48.7,27.1z"/>
		<path class="st2" d="M37.3,24.5c0-0.8,0-1.6,0-2.4c0-0.3,0.1-0.3,0.3-0.3c0.7,0,0.6-0.1,0.7,0.7c0,0.4,0,0.9,0,1.3
			c0,0.3,0.1,0.3,0.3,0.3c0.3,0,0.5-0.1,0.7-0.3c0.3-0.6,0.7-1.1,0.9-1.6c0.1-0.2,0.2-0.2,0.3-0.2c0.3,0,0.3,0,0.6,0
			s0.3,0.1,0.2,0.3c-0.3,0.5-0.6,1-0.9,1.5c-0.1,0.2-0.2,0.3-0.3,0.4c-0.3,0.3-0.2,0.4,0,0.7c0.4,0.7,0.9,1.5,1.2,2.1
			c0.2,0.3,0.2,0.3-0.2,0.3c-0.8,0-0.8,0-1.2-0.7c-0.3-0.5-0.5-0.9-0.8-1.5c-0.1-0.2-0.3-0.2-0.3-0.2c-0.4,0-0.4,0-0.4,0.4
			c0,0.5,0,1.1,0,1.6c0,0.3-0.1,0.3-0.3,0.3c-0.8,0-0.7,0.1-0.7-0.7C37.3,25.8,37.3,25.3,37.3,24.5z"/>
		<path class="st2" d="M59.6,25.3c0,0.5,0,1.1,0,1.6c0,0.3-0.1,0.3-0.3,0.3c-0.7,0-0.7,0.1-0.7-0.7c0-0.8,0-1.4,0-2.1
			c0-0.3,0-0.3-0.3-0.3c-0.7,0-0.7,0-0.7,0.7c0,0.6-0.1,1.2-0.3,1.7c-0.3,0.4-0.6,0.6-1,0.7c-0.2,0-0.3,0-0.3-0.3c0-0.1,0-0.3,0-0.3
			c0-0.2,0-0.3,0.3-0.3c0.6-0.1,0.6-1.3,0.6-1.8c0-0.3,0-0.7,0-0.9c0-0.2,0.1-0.3,0.3-0.3c0.8,0,1.6,0,2.4,0
			C59.6,23.3,59.6,24.6,59.6,25.3z"/>
		<path class="st2" d="M64.8,25.3c0-0.6,0-1.1,0-1.6c0-0.3,0.1-0.3,0.3-0.3c0.8,0,0.7-0.1,0.7,0.7c0,0.2,0,0.3,0,0.4
			c0,0.3-0.1,0.4,0.2,0.4c0.3,0,0.3,0,0.5-0.3c0.3-0.3,0.4-0.7,0.6-0.9c0.2-0.3,0.3-0.3,0.6-0.3c0.2,0,0.3,0,0.4,0
			c0.3,0,0.3,0.1,0.2,0.3c-0.3,0.4-0.6,0.9-0.9,1.3c-0.2,0.3-0.2,0.3,0,0.6c0.3,0.5,0.7,1,1,1.5c0.1,0.1,0.1,0.1,0.1,0.2
			c-0.1,0.1-0.2,0.1-0.3,0.1c-0.9,0-0.9,0-1.3-0.7c-0.2-0.3-0.3-0.4-0.4-0.7c-0.2-0.3-0.3-0.3-0.5-0.3s-0.2,0.2-0.2,0.3
			c0,0.3,0,0.7,0,1.1c0,0.2,0,0.3-0.2,0.3s-0.3,0-0.4,0c-0.3,0-0.4,0.1-0.4-0.3C64.8,27,64.8,25.8,64.8,25.3z"/>
		<path class="st1" d="M26.3,27.6c-0.7,0-1.2-0.6-1.3-1.2c0-0.5,0.3-0.8,0.7-0.8c0.6,0,1.3,0.6,1.4,1.1
			C27.3,27.3,26.9,27.6,26.3,27.6z"/>
		<path class="st1" d="M29.1,24.9c0,0.3,0,0.4-0.3,0.5s-0.3-0.2-0.5-0.3c-0.3-0.3-0.5-0.7-0.5-1.1c0-0.3,0-0.3,0.2-0.5
			c0.3-0.2,0.3-0.1,0.6,0.1C28.9,24,29.1,24.4,29.1,24.9z"/>
		<path class="st1" d="M46.9,19.3c-0.4-0.5-0.9-1-1.3-1.5c-0.1-0.2-0.1-0.3,0-0.4c0.6-1.1,0.8-2.2,0.6-3.5c-0.6-2.7-3.1-4.5-5.8-3.9
			c-2.6,0.5-4.4,3-3.9,5.7c0.7,3.3,4.3,5,7.3,3.4c0.3-0.2,0.3-0.2,0.5,0.1c0.2,0.3,0.3,0.3,0.7,0.3s0.6,0,0.9,0c0.3,0,0.7,0,1.1,0
			c0.1,0,0.3,0,0.3-0.1C47.1,19.3,47,19.3,46.9,19.3z M43.9,15.6c-0.1,0.2-0.1,0.3-0.3,0.3c-0.3,0-0.6,0-0.9,0s-0.6,0-0.9,0
			c-0.1,0-0.3,0-0.3,0.1c-0.1,0.1,0,0.3,0.1,0.3c0.3,0.3,0.5,0.7,0.8,0.9c0.2,0.2,0.1,0.3-0.1,0.3c-1.3,0.6-2.8-0.1-3.4-1.4
			c-0.4-1.6,0.3-3.2,1.6-3.8c1.5-0.6,3.1,0.3,3.5,2C44,14.6,44,15.1,43.9,15.6z"/>
		<path class="st2" d="M43.3,23.3c-1.2,0-2.1,0.8-2.1,2s0.9,2.1,2.1,2.1s2.1-0.9,2.1-2C45.5,24.1,44.6,23.3,43.3,23.3z M43.3,26.4
			c-0.7,0-1.1-0.5-1.1-1.2s0.3-1.2,1.1-1.2c0.7,0,1.2,0.5,1.2,1.2C44.5,25.8,44,26.4,43.3,26.4z"/>
		<path class="st2" d="M53.2,25.4c0.3,0,0.7,0,1,0s0.7,0,0.9,0c0.3,0,0.4-0.1,0.3-0.4c-0.1-1.2-0.9-2-2.1-1.6
			c-0.7,0.2-1.2,0.6-1.4,1.3c-0.3,0.7-0.1,1.4,0.4,2c0.6,0.7,1.6,0.8,2.5,0.4c0.6-0.3,0.6-0.3,0.3-0.9C55,26,54.9,26,54.8,26.1
			c-0.3,0.2-0.3,0.2-0.6,0.3c-0.7,0.1-1.2-0.2-1.4-0.7C52.9,25.3,53,25.4,53.2,25.4z M53.9,24c0.3,0,0.7,0.2,0.8,0.5
			s0.1,0.3-0.3,0.3c-0.3,0-0.4,0-0.7,0l0,0c-0.3,0-0.4,0-0.7,0c-0.2,0-0.3,0-0.2-0.2C53,24.3,53.5,24,53.9,24z"/>
		<path class="st2" d="M62.1,23.3c-0.9,0.1-1.5,0.6-1.6,1.5c-0.3,0.8,0.3,1.7,0.9,2.1c0.7,0.4,1.5,0.3,2.2,0
			c0.3-0.3,0.4-0.3,0.3-0.7c-0.2-0.3-0.3-0.3-0.4-0.2c-0.1,0.1-0.3,0.2-0.3,0.2c-0.7,0.3-1.5,0-1.6-0.7c-0.1-0.2,0-0.3,0.2-0.3
			c0.3,0,0.7,0,1.1,0l0,0c0.3,0,0.7,0,1.1,0c0.2,0,0.3,0,0.3-0.3C64.1,24.3,63.5,23.1,62.1,23.3z M62.9,24.8c-0.3,0-0.4,0-0.7,0l0,0
			c-0.3,0-0.4,0-0.7,0c-0.1,0-0.2,0-0.2-0.2c0.1-0.3,0.5-0.7,0.9-0.7c0.3,0,0.7,0.3,0.8,0.6C63,24.8,63,24.8,62.9,24.8z"/>
	</g>
</g>
<g>
	<g>
		<circle class="st3" cx="87.4" cy="30.3" r="4"/>
		<circle class="st4" cx="91.6" cy="30.3" r="4"/>
		<path class="st5" d="M87.6,30.3c0,1.5,0.8,2.7,1.9,3.5c1.2-0.7,1.9-2,1.9-3.5s-0.8-2.7-1.9-3.5C88.3,27.5,87.6,28.8,87.6,30.3z"/>
	</g>
</g>
<g>
	<path class="st6" d="M76.4,9.5c0-1.2,0-2.4,0-3.6c0-0.1,0-0.1,0.1-0.1c0.8,0,1.5,0,2.3,0c0.6,0,1,0.4,1.1,0.8
		c0.4,1.2,0.7,2.3,1,3.5c0,0.1,0.1,0.2,0.1,0.2s0.1-0.1,0.1-0.2c0.5-1.3,0.9-2.4,1.3-3.6c0.1-0.5,0.6-0.8,1-0.8c0.8,0,1.6,0,2.4,0
		c0.1,0,0.1,0,0.1,0.1c0,2.4,0,4.8,0,7.3c0,0.1,0,0.1-0.1,0.1c-0.7,0-1.4,0-2.1,0c-0.1,0-0.1,0-0.1-0.1c0-1.4,0-2.7,0-4.1
		c0-0.1,0-0.1,0-0.1c0-0.1-0.1-0.1-0.1-0.2c-0.1,0-0.1,0-0.2,0.1s-0.1,0.3-0.1,0.4c-0.4,1.3-0.8,2.6-1.2,3.8c0,0.1-0.1,0.1-0.1,0.1
		c-0.5,0-1,0-1.5,0c-0.1,0-0.1,0-0.1-0.1c-0.2-0.7-0.4-1.5-0.7-2.2c-0.2-0.7-0.4-1.4-0.6-2c0-0.1-0.1-0.1-0.2-0.1s-0.1,0.1-0.1,0.2
		c0,0.5,0,0.9,0,1.4c0,0.9,0,1.8,0,2.8c0,0.1,0,0.1-0.1,0.1c-0.7,0-2.3,0-2.3,0C76.4,13.1,76.4,10.6,76.4,9.5z"/>
	<path class="st6" d="M94.3,9.5c0,1.2,0,2.4,0,3.6c0,0.1,0,0.1-0.1,0.1c-0.7,0-1.4,0-2.1,0c-0.1,0-0.1,0-0.1-0.1c0-1.4,0-2.8,0-4.2
		V8.9c0-0.1-0.1-0.1-0.1-0.2c-0.1,0-0.1,0-0.2,0.1c-0.1,0.2-0.2,0.4-0.2,0.6c-0.6,1.1-1,2.2-1.6,3.4c-0.1,0.3-0.4,0.5-0.8,0.5
		c-0.7,0-1.4,0-2.1,0c-0.1,0-0.1,0-0.1-0.1c0-2.4,0-4.8,0-7.2c0-0.1,0-0.1,0.1-0.1c0.7,0,1.4,0,2,0c0.1,0,0.1,0,0.1,0.1
		c0,1.4,0,2.8,0,4.1v0.1c0,0.1,0.1,0.2,0.1,0.2s0.1-0.1,0.2-0.1c0.2-0.4,0.4-0.9,0.6-1.3c0.4-0.9,0.8-1.7,1.2-2.6
		C91.4,6,91.6,5.8,92,5.8c0.7,0,1.4,0,2.1,0c0.1,0,0.1,0,0.1,0.1C94.3,7.1,94.3,8.3,94.3,9.5z"/>
	<path class="st6" d="M99,9.1c1.2,0,2.3,0,3.5,0c0.1,0,0.1,0,0.1,0.1c-0.4,0.9-1.1,1.4-2.1,1.5c-0.2,0-0.5,0-0.7,0c-0.7,0-1.3,0-2,0
		c-0.1,0-0.1,0-0.1,0.1c0,0.7,0,1.5,0,2.2c0,0.1,0,0.1-0.1,0.1c-0.7,0-1.4,0-2.1,0c-0.1,0-0.1,0-0.1-0.1c0-1.3,0-2.6,0-3.9
		C95.4,9,95.5,9,95.5,9C96.7,9.1,97.9,9.1,99,9.1z"/>
	
		<linearGradient id="SVGID_1_" gradientUnits="userSpaceOnUse" x1="95.0855" y1="-5.3" x2="102.7123" y2="-5.3" gradientTransform="matrix(1 0 0 -1 0 2)">
		<stop  offset="0" style="stop-color:#06AAEA"/>
		<stop  offset="0.2408" style="stop-color:#049DDC"/>
		<stop  offset="1" style="stop-color:#0077B2"/>
	</linearGradient>
	<path class="st7" d="M102.3,6.7c-0.6-0.7-1.4-1-2.3-1c-0.1,0-0.1,0-0.1,0c-0.5,0-1,0-1.5,0c-0.2,0-0.4,0-0.6,0h-0.1
		c-0.7,0-1.3,0-2,0c-0.2,0-0.4,0-0.6,0c-0.1,0-0.1,0-0.1,0.1s0,0.2,0.1,0.3c0.1,0.5,0.3,0.9,0.7,1.3c0.4,0.5,0.9,0.9,1.5,1l0,0l0,0
		c0.3,0.1,0.5,0.1,0.6,0.2c0.1,0,0.2,0.1,0.2,0.1c0.1,0,0.2,0.1,0.7,0.1c1.2,0,2.5,0,3.8,0h0.1c0.1-0.1,0.1-0.2,0.1-0.2
		C102.8,7.8,102.6,7.2,102.3,6.7z M99.9,8.8L99.9,8.8L99.9,8.8L99.9,8.8z"/>
</g>
<g>
	<path class="st8" d="M95.1,17.6c-0.6-0.2-1-0.4-1.7-0.5c-0.2-0.1-0.5-0.1-0.7,0s-0.5,0.2-0.6,0.4C92,17.8,92,18,92.2,18.3
		s0.5,0.4,0.8,0.5c0.2,0.1,0.4,0.2,0.7,0.4c1.2,0.7,1.4,2.2,0.6,3.3c-0.4,0.5-0.8,0.8-1.4,1c-1.2,0.4-2.5,0.6-3.7,0.2
		c-0.2-0.1-0.4-0.2-0.7-0.2c0,0,0,0,0-0.1c0.1-0.5,0.3-1,0.4-1.5c0.1-0.1,0.1-0.2,0.2-0.1c0.6,0.4,1.4,0.7,2.1,0.6
		c0.2,0,0.5-0.1,0.7-0.2c0.4-0.2,0.6-0.7,0.1-1.1c-0.2-0.2-0.6-0.4-0.8-0.6c-0.2-0.1-0.5-0.3-0.7-0.5c-1.4-1-1-2.7,0-3.5
		c0.6-0.4,1.2-0.7,2-0.8c0.9-0.1,1.8-0.1,2.6,0.2c0.1,0.1,0.2,0.1,0.2,0.2C95.3,16.5,95.2,17,95.1,17.6z"/>
	<path class="st8" d="M81.5,20.1c0,0.2,0.1,0.4,0.1,0.7c0.1-0.1,0.1-0.2,0.1-0.2c0.7-1.6,1.4-3.2,2-4.7c0.1-0.1,0.1-0.2,0.2-0.2
		c0.7,0,1.4,0,2,0c0.1,0,0.2,0,0.1,0.2c-1,2.2-2,4.4-3.1,6.6c-0.2,0.4-0.4,0.7-0.7,1C82,23.8,81.6,24,81.3,24c-0.4,0-0.7,0-1,0
		c-0.1,0-0.2,0-0.2-0.1c-0.3-1.8-0.7-3.6-1-5.5C79,18,79,17.6,78.9,17.1c0.1-0.1,0.1,0,0.2,0c1,0.5,1.7,1.3,2.2,2.3
		C81.3,19.5,81.4,19.8,81.5,20.1z"/>
	<path class="st9" d="M86.2,23.8c-0.3,0-0.6,0-0.9,0c-0.1,0-0.2-0.1-0.1-0.2c0.4-1.7,0.7-3.4,1.1-5.2c0.2-0.9,0.4-1.7,0.6-2.6
		c0.1-0.2,0.1-0.2,0.3-0.2c0.6,0,1.1,0,1.7,0c0.1,0,0.2,0,0.2,0.2c-0.4,2-0.9,4.1-1.4,6.1c-0.1,0.6-0.2,1.2-0.4,1.8
		c0,0.1-0.1,0.2-0.2,0.2C86.8,23.8,86.5,23.8,86.2,23.8z"/>
	<g>
		<path class="st10" d="M81.3,18.8L81.3,18.8L81.3,18.8c-0.1-1-0.3-2.1-0.4-3.2c0-0.1-0.1-0.1-0.2-0.1c-1.2,0-2.3,0-3.5,0
			c-0.1,0-0.2,0.1-0.2,0.2c-0.1,0.2-0.1,0.4-0.1,0.5c-0.1,0.1,0,0.2,0.1,0.2c0.4,0,0.7,0.1,1.1,0.2c0.3,0.1,0.6,0.2,0.8,0.3
			c0.2,0.1,0.4,0.2,0.5,0.2c0.8,0.5,1.4,1.2,1.8,2.1c0.1,0.1,0.1,0.1,0.1,0.1C81.3,19.3,81.2,19,81.3,18.8z"/>
		<path class="st11" d="M81.3,18.8L81.3,18.8c-0.1,0.2,0.1,0.4,0,0.6c-0.1-0.1-0.1-0.1-0.1-0.1c0.1,0.2,0.2,0.5,0.2,0.7
			C81.4,19.6,81.4,19.3,81.3,18.8z"/>
	</g>
	<path class="st12" d="M102.2,23.6c-0.1-0.9-0.3-1.8-0.4-2.7c-0.2-1.7-0.6-3.4-0.8-5.2c0-0.1-0.1-0.2-0.2-0.2c-0.5,0-1,0-1.5,0
		c-0.4,0-0.6,0.1-0.9,0.4s-0.5,0.7-0.7,1c-0.9,1.8-1.7,3.5-2.5,5.3c-0.2,0.5-0.4,1-0.7,1.4h0.1c0.7,0,1.5,0,2.2,0
		c0.1,0,0.1-0.1,0.1-0.1c0.2-0.4,0.4-0.8,0.5-1.2c0.1-0.1,0.1-0.1,0.2-0.1c0.7,0,1.4,0,2,0c0.1,0,0.1,0.1,0.2,0.1
		c0.1,0.4,0.1,0.8,0.2,1.2c0,0.1,0.1,0.1,0.2,0.1C100.9,23.6,101.5,23.6,102.2,23.6C102.2,23.8,102.2,23.8,102.2,23.6z M99.3,20.5
		c-0.2,0-0.4,0-0.6,0l0,0c-0.2,0-0.4,0-0.6,0c-0.1,0-0.1-0.1-0.1-0.1c0.3-0.7,0.6-1.4,0.9-2.1c0-0.1,0-0.1,0.1-0.1s0.1,0.1,0.1,0.1
		c0.1,0.7,0.2,1.4,0.3,2.1C99.5,20.5,99.5,20.5,99.3,20.5z"/>
</g>
</svg>
