<?xml version="1.0" encoding="utf-8"?>
<!-- Generator: Adobe Illustrator 23.0.1, SVG Export Plug-In . SVG Version: 6.00 Build 0)  -->
<svg version="1.1" id="Слой_1" xmlns="http://www.w3.org/2000/svg" xmlns:xlink="http://www.w3.org/1999/xlink" x="0px" y="0px"
	 width="110px" height="40px" viewBox="0 0 110 40" style="enable-background:new 0 0 110 40;" xml:space="preserve">
<style type="text/css">
	.st0{fill:#FFFFFF;}
	.st1{fill:#F28D1C;}
	.st2{fill:#2A3440;}
	.st3{fill:#EB001B;}
	.st4{fill:#F79E1B;}
	.st5{fill:#FF5F00;}
	.st6{fill:#30A923;}
	.st7{fill:url(#SVGID_1_);}
	.st8{fill:#074F86;}
	.st9{fill:#075086;}
	.st10{fill:#EAB41A;}
	.st11{fill:#D5B345;}
	.st12{fill:#084F86;}
</style>
<g id="Слой_2">
	<rect class="st0" width="110" height="40"/>
</g>
<g>
	<g>
		<path class="st1" d="M25.9,30.8c-1.3,0-2.6,0.2-3.9,0.3c-2,0.3-3.9,0.2-5.7-0.5C11.8,29,9.1,26,8.1,21.5c-0.7-3.1-0.2-6,1.5-8.7
			c1.6-2.7,3.9-4.5,7-5.4c1.5-0.4,3.1-0.6,4.6-0.3c3.6,0.4,6.5,2.1,8.7,5.1c1.1,1.5,1.8,3.3,2.1,5.1c0.4,2.8-0.1,5.5-1.5,8
			c0,0.1-0.1,0.2-0.2,0.2c-0.1,0-0.1-0.1-0.1-0.2c-0.2-0.8-0.3-1.6-0.8-2.3c-0.7-1.3-1.9-2.1-3.3-2.6c-0.3-0.1-0.5-0.2-0.8-0.3
			c-0.1,0-0.2,0-0.2-0.1c0-0.1,0.1-0.1,0.2-0.1c0.8-0.1,1.6-0.1,2.4,0c0.3,0,0.3-0.1,0.3-0.3c0.1-1.2,0-2.5-0.5-3.6
			c-1-2.7-3-4.5-5.8-5c-2.5-0.5-4.7,0.1-6.7,1.6c-1.6,1.3-2.7,3-2.9,5.1c-0.3,3,0.7,5.5,3,7.5c1.2,0.9,2.6,1.5,4,1.6
			c0.3,0.1,0.7,0.1,1.1,0.1c0.2,0,0.2-0.1,0.2-0.3c-0.2-0.7-0.2-1.4-0.2-2.1c0-0.1,0-0.3,0.1-0.3c0.2,0,0.2,0.1,0.3,0.2
			c0.4,0.8,1,1.6,1.6,2.2c1.2,1.2,2.6,1.8,4.1,2.1c1.2,0.3,2.3,0.5,3.3,1c1.5,0.7,2.7,1.6,3.8,2.8c0.3,0.3,0.5,0.6,0.7,0.8
			c0.2,0.2,0.3,0.3,0.1,0.4c-0.2,0.2-0.3,0.1-0.5-0.1c-0.7-0.7-1.6-1.2-2.4-1.7c-1.3-0.8-2.7-1.3-4.2-1.5
			C26.7,30.8,26.3,30.8,25.9,30.8z"/>
		<path class="st1" d="M55.8,16.1c0.3-0.9,0.6-1.8,0.9-2.7c0.3-0.8,0.6-1.6,0.8-2.4c0.1-0.3,0.2-0.3,0.3-0.3c0.4,0,0.8,0,1.2,0
			c0.3,0,0.3,0.1,0.3,0.3c0.6,1.6,1.1,3.3,1.6,4.9c0,0.1,0.1,0.2,0.1,0.3c0.2-0.6,0.3-1,0.5-1.5c0.3-1.2,0.7-2.4,1.1-3.6
			c0.1-0.3,0.2-0.3,0.3-0.3c0.7,0,1.2,0,1.9,0c0.3,0,0.4,0.2,0.3,0.4c-0.9,2.9-2,5.8-2.9,8.7C62.3,20,62.1,20,61.9,20
			c-0.4,0-0.9,0-1.3,0c-0.3,0-0.3-0.1-0.4-0.3c-0.5-1.6-1.1-3.2-1.6-4.8c0-0.1,0-0.2-0.2-0.3c-0.3,0.7-0.4,1.3-0.7,2
			c-0.3,1-0.7,2.1-1,3.1c-0.1,0.3-0.2,0.3-0.4,0.3c-0.5,0-0.9,0-1.5,0c-0.3,0-0.3-0.1-0.3-0.3c-0.9-2.9-2-5.8-2.9-8.7
			c-0.2-0.3,0-0.4,0.3-0.4c0.6,0,1.2,0,1.8,0c0.3,0,0.3,0.1,0.3,0.3c0.5,1.6,1,3.3,1.5,5C55.8,16,55.8,16,55.8,16.1z"/>
		<path class="st1" d="M48.6,15.3c0-1.5,0-2.9,0-4.4c0-0.3,0.1-0.3,0.3-0.3c0.5,0,1,0,1.5,0c0.3,0,0.3,0.1,0.3,0.3
			c0,2.9,0,5.8,0,8.7c0,0.3-0.1,0.3-0.3,0.3c-0.5,0-1.1,0-1.6,0c-0.3,0-0.3-0.1-0.3-0.3C48.6,18.2,48.6,16.7,48.6,15.3z"/>
		<path class="st1" d="M68.5,15.4c0,1.5,0,2.9,0,4.3c0,0.3,0,0.3-0.3,0.3c-0.5,0-1,0-1.5,0c-0.3,0-0.4-0.1-0.4-0.4
			c0-2.7,0-5.6,0-8.3c0-0.7,0-0.7,0.7-0.7c0.3,0,0.8,0,1.2,0s0.5,0,0.5,0.4C68.5,12.5,68.5,13.9,68.5,15.4z"/>
		<path class="st2" d="M49.2,27.6c-0.7,0-1.5,0-2.2,0c-0.3,0-0.3-0.1-0.3-0.3c0-1.1,0-2.1,0-3.3c0-0.3,0.1-0.3,0.3-0.3
			c0.7,0,0.6-0.1,0.6,0.6s0,1.5,0,2.1c0,0.3,0.1,0.3,0.3,0.3c0.2,0,0.4,0,0.7,0s0.3-0.1,0.3-0.3c0-0.8,0-1.6,0-2.4
			c0-0.3,0-0.3,0.3-0.3c0.7,0,0.6-0.1,0.6,0.6s0,1.4,0,2.1c0,0.3,0,0.3,0.3,0.3s0.4,0,0.6,0c0.3,0,0.3-0.1,0.3-0.3
			c0-0.8,0-1.6,0-2.4c0-0.3,0-0.3,0.3-0.3c0.6,0,0.5-0.1,0.5,0.5c0,1,0,2,0,3c0,0.3-0.1,0.3-0.3,0.3C50.7,27.6,50,27.6,49.2,27.6z"
			/>
		<path class="st2" d="M37.8,25c0-0.8,0-1.6,0-2.4c0-0.3,0.1-0.3,0.3-0.3c0.7,0,0.6-0.1,0.7,0.7c0,0.4,0,0.9,0,1.3
			c0,0.3,0.1,0.3,0.3,0.3c0.3,0,0.5-0.1,0.7-0.3c0.3-0.6,0.7-1.1,0.9-1.6c0.1-0.2,0.2-0.2,0.3-0.2c0.3,0,0.3,0,0.6,0
			c0.3,0,0.3,0.1,0.2,0.3c-0.3,0.5-0.6,1-0.9,1.5c-0.1,0.2-0.2,0.3-0.3,0.4c-0.3,0.3-0.2,0.4,0,0.7c0.4,0.7,0.9,1.5,1.2,2.1
			c0.2,0.3,0.2,0.3-0.2,0.3c-0.8,0-0.8,0-1.2-0.7c-0.3-0.5-0.5-0.9-0.8-1.5c-0.1-0.2-0.3-0.2-0.3-0.2c-0.4,0-0.4,0-0.4,0.4
			c0,0.5,0,1.1,0,1.6c0,0.3-0.1,0.3-0.3,0.3c-0.8,0-0.7,0.1-0.7-0.7C37.8,26.3,37.8,25.7,37.8,25z"/>
		<path class="st2" d="M60.1,25.7c0,0.5,0,1.1,0,1.6c0,0.3-0.1,0.3-0.3,0.3c-0.7,0-0.7,0.1-0.7-0.7c0-0.8,0-1.4,0-2.1
			c0-0.3,0-0.3-0.3-0.3c-0.7,0-0.7,0-0.7,0.7c0,0.6-0.1,1.2-0.3,1.7c-0.3,0.4-0.6,0.6-1,0.7c-0.2,0-0.3,0-0.3-0.3c0-0.1,0-0.3,0-0.3
			c0-0.2,0-0.3,0.3-0.3c0.6-0.1,0.6-1.3,0.6-1.8c0-0.3,0-0.7,0-0.9c0-0.2,0.1-0.3,0.3-0.3c0.8,0,1.6,0,2.4,0
			C60.1,23.7,60.1,25.1,60.1,25.7z"/>
		<path class="st2" d="M65.3,25.7c0-0.6,0-1.1,0-1.6c0-0.3,0.1-0.3,0.3-0.3c0.8,0,0.7-0.1,0.7,0.7c0,0.2,0,0.3,0,0.4
			c0,0.3-0.1,0.4,0.2,0.4c0.3,0,0.3,0,0.5-0.3c0.3-0.3,0.4-0.7,0.6-0.9c0.2-0.3,0.3-0.3,0.6-0.3c0.2,0,0.3,0,0.4,0
			c0.3,0,0.3,0.1,0.2,0.3c-0.3,0.4-0.6,0.9-0.9,1.3c-0.2,0.3-0.2,0.3,0,0.6c0.3,0.5,0.7,1,1,1.5c0.1,0.1,0.1,0.1,0.1,0.2
			c-0.1,0.1-0.2,0.1-0.3,0.1c-0.9,0-0.9,0-1.3-0.7c-0.2-0.3-0.3-0.4-0.4-0.7c-0.2-0.3-0.3-0.3-0.5-0.3c-0.2,0-0.2,0.2-0.2,0.3
			c0,0.3,0,0.7,0,1.1c0,0.2,0,0.3-0.2,0.3s-0.3,0-0.4,0c-0.3,0-0.4,0.1-0.4-0.3C65.3,27.5,65.3,26.3,65.3,25.7z"/>
		<path class="st1" d="M26.8,28.1c-0.7,0-1.2-0.6-1.3-1.2c0-0.5,0.3-0.8,0.7-0.8c0.6,0,1.3,0.6,1.4,1.1
			C27.8,27.7,27.4,28.1,26.8,28.1z"/>
		<path class="st1" d="M29.6,25.4c0,0.3,0,0.4-0.3,0.5c-0.3,0.1-0.3-0.2-0.5-0.3c-0.3-0.3-0.5-0.7-0.5-1.1c0-0.3,0-0.3,0.2-0.5
			c0.3-0.2,0.3-0.1,0.6,0.1C29.4,24.5,29.6,24.9,29.6,25.4z"/>
		<path class="st1" d="M47.4,19.7c-0.4-0.5-0.9-1-1.3-1.5C46,18,46,17.9,46.1,17.8c0.6-1.1,0.8-2.2,0.6-3.5
			c-0.6-2.7-3.1-4.5-5.8-3.9c-2.6,0.5-4.4,3-3.9,5.7c0.7,3.3,4.3,5,7.3,3.4c0.3-0.2,0.3-0.2,0.5,0.1c0.2,0.3,0.3,0.3,0.7,0.3
			s0.6,0,0.9,0c0.3,0,0.7,0,1.1,0c0.1,0,0.3,0,0.3-0.1C47.6,19.8,47.5,19.7,47.4,19.7z M44.4,16.1c-0.1,0.2-0.1,0.3-0.3,0.3
			c-0.3,0-0.6,0-0.9,0s-0.6,0-0.9,0c-0.1,0-0.3,0-0.3,0.1c-0.1,0.1,0,0.3,0.1,0.3c0.3,0.3,0.5,0.7,0.8,0.9c0.2,0.2,0.1,0.3-0.1,0.3
			c-1.3,0.6-2.8-0.1-3.4-1.4C39,15,39.7,13.4,41,12.8c1.5-0.6,3.1,0.3,3.5,2C44.5,15.1,44.5,15.6,44.4,16.1z"/>
		<path class="st2" d="M43.8,23.8c-1.2,0-2.1,0.8-2.1,2s0.9,2.1,2.1,2.1s2.1-0.9,2.1-2C46,24.6,45.1,23.8,43.8,23.8z M43.8,26.9
			c-0.7,0-1.1-0.5-1.1-1.2c0-0.7,0.3-1.2,1.1-1.2c0.7,0,1.2,0.5,1.2,1.2C45,26.3,44.5,26.9,43.8,26.9z"/>
		<path class="st2" d="M53.7,25.9c0.3,0,0.7,0,1,0c0.3,0,0.7,0,0.9,0c0.3,0,0.4-0.1,0.3-0.4c-0.1-1.2-0.9-2-2.1-1.6
			c-0.7,0.2-1.2,0.6-1.4,1.3c-0.3,0.7-0.1,1.4,0.4,2c0.6,0.7,1.6,0.8,2.5,0.4c0.6-0.3,0.6-0.3,0.3-0.9c-0.1-0.2-0.2-0.2-0.3-0.1
			c-0.3,0.2-0.3,0.2-0.6,0.3c-0.7,0.1-1.2-0.2-1.4-0.7C53.4,25.8,53.5,25.9,53.7,25.9z M54.4,24.5c0.3,0,0.7,0.2,0.8,0.5
			c0.1,0.3,0.1,0.3-0.3,0.3c-0.3,0-0.4,0-0.7,0l0,0c-0.3,0-0.4,0-0.7,0c-0.2,0-0.3,0-0.2-0.2C53.5,24.8,54,24.5,54.4,24.5z"/>
		<path class="st2" d="M62.6,23.8c-0.9,0.1-1.5,0.6-1.6,1.5c-0.3,0.8,0.3,1.7,0.9,2.1c0.7,0.4,1.5,0.3,2.2,0
			c0.3-0.3,0.4-0.3,0.3-0.7c-0.2-0.3-0.3-0.3-0.4-0.2c-0.1,0.1-0.3,0.2-0.3,0.2c-0.7,0.3-1.5,0-1.6-0.7c-0.1-0.2,0-0.3,0.2-0.3
			c0.3,0,0.7,0,1.1,0l0,0c0.3,0,0.7,0,1.1,0c0.2,0,0.3,0,0.3-0.3C64.6,24.8,64,23.6,62.6,23.8z M63.4,25.3c-0.3,0-0.4,0-0.7,0l0,0
			c-0.3,0-0.4,0-0.7,0c-0.1,0-0.2,0-0.2-0.2c0.1-0.3,0.5-0.7,0.9-0.7c0.3,0,0.7,0.3,0.8,0.6C63.5,25.3,63.5,25.3,63.4,25.3z"/>
	</g>
</g>
<g>
	<g>
		<circle class="st3" cx="87.9" cy="30.7" r="4"/>
		<circle class="st4" cx="92.1" cy="30.7" r="4"/>
		<path class="st5" d="M88.1,30.7c0,1.5,0.8,2.7,1.9,3.5c1.2-0.7,1.9-2,1.9-3.5c0-1.5-0.8-2.7-1.9-3.5C88.8,28,88.1,29.3,88.1,30.7z
			"/>
	</g>
</g>
<g>
	<path class="st6" d="M76.8,10c0-1.2,0-2.4,0-3.6c0-0.1,0-0.1,0.1-0.1c0.8,0,1.5,0,2.3,0c0.6,0,1,0.4,1.1,0.8c0.4,1.2,0.7,2.3,1,3.5
		c0,0.1,0.1,0.2,0.1,0.2s0.1-0.1,0.1-0.2C82,9.3,82.4,8.2,82.8,7c0.1-0.5,0.6-0.8,1-0.8c0.8,0,1.6,0,2.4,0c0.1,0,0.1,0,0.1,0.1
		c0,2.4,0,4.8,0,7.3c0,0.1,0,0.1-0.1,0.1c-0.7,0-1.4,0-2.1,0c-0.1,0-0.1,0-0.1-0.1c0-1.4,0-2.7,0-4.1c0-0.1,0-0.1,0-0.1
		c0-0.1-0.1-0.1-0.1-0.2c-0.1,0-0.1,0-0.2,0.1c-0.1,0.1-0.1,0.3-0.1,0.4c-0.4,1.3-0.8,2.6-1.2,3.8c0,0.1-0.1,0.1-0.1,0.1
		c-0.5,0-1,0-1.5,0c-0.1,0-0.1,0-0.1-0.1c-0.2-0.7-0.4-1.5-0.7-2.2c-0.2-0.7-0.4-1.4-0.6-2c0-0.1-0.1-0.1-0.2-0.1s-0.1,0.1-0.1,0.2
		c0,0.5,0,0.9,0,1.4c0,0.9,0,1.8,0,2.8c0,0.1,0,0.1-0.1,0.1c-0.7,0-2.3,0-2.3,0C76.8,13.6,76.8,11.1,76.8,10z"/>
	<path class="st6" d="M94.7,10c0,1.2,0,2.4,0,3.6c0,0.1,0,0.1-0.1,0.1c-0.7,0-1.4,0-2.1,0c-0.1,0-0.1,0-0.1-0.1c0-1.4,0-2.8,0-4.2
		V9.3c0-0.1-0.1-0.1-0.1-0.2c-0.1,0-0.1,0-0.2,0.1c-0.1,0.2-0.2,0.4-0.2,0.6c-0.6,1.1-1,2.2-1.6,3.4c-0.1,0.3-0.4,0.5-0.8,0.5
		c-0.7,0-1.4,0-2.1,0c-0.1,0-0.1,0-0.1-0.1c0-2.4,0-4.8,0-7.2c0-0.1,0-0.1,0.1-0.1c0.7,0,1.4,0,2,0c0.1,0,0.1,0,0.1,0.1
		c0,1.4,0,2.8,0,4.1v0.1c0,0.1,0.1,0.2,0.1,0.2s0.1-0.1,0.2-0.1c0.2-0.4,0.4-0.9,0.6-1.3c0.4-0.9,0.8-1.7,1.2-2.6
		c0.2-0.3,0.4-0.5,0.8-0.5c0.7,0,1.4,0,2.1,0c0.1,0,0.1,0,0.1,0.1C94.7,7.6,94.7,8.7,94.7,10z"/>
	<path class="st6" d="M99.4,9.6c1.2,0,2.3,0,3.5,0c0.1,0,0.1,0,0.1,0.1c-0.4,0.9-1.1,1.4-2.1,1.5c-0.2,0-0.5,0-0.7,0
		c-0.7,0-1.3,0-2,0c-0.1,0-0.1,0-0.1,0.1c0,0.7,0,1.5,0,2.2c0,0.1,0,0.1-0.1,0.1c-0.7,0-1.4,0-2.1,0c-0.1,0-0.1,0-0.1-0.1
		c0-1.3,0-2.6,0-3.9c0-0.1,0.1-0.1,0.1-0.1C97.1,9.6,98.3,9.6,99.4,9.6z"/>
	
		<linearGradient id="SVGID_1_" gradientUnits="userSpaceOnUse" x1="95.5324" y1="47.7163" x2="103.1592" y2="47.7163" gradientTransform="matrix(1 0 0 1 0 -40)">
		<stop  offset="0" style="stop-color:#06AAEA"/>
		<stop  offset="0.2408" style="stop-color:#049DDC"/>
		<stop  offset="1" style="stop-color:#0077B2"/>
	</linearGradient>
	<path class="st7" d="M102.7,7.2c-0.6-0.7-1.4-1-2.3-1c-0.1,0-0.1,0-0.1,0c-0.5,0-1,0-1.5,0c-0.2,0-0.4,0-0.6,0h-0.1
		c-0.7,0-1.3,0-2,0c-0.2,0-0.4,0-0.6,0c-0.1,0-0.1,0-0.1,0.1c0,0.1,0,0.2,0.1,0.3c0.1,0.5,0.3,0.9,0.7,1.3c0.4,0.5,0.9,0.9,1.5,1
		l0,0l0,0C98,9,98.2,9,98.3,9.1c0.1,0,0.2,0.1,0.2,0.1c0.1,0,0.2,0.1,0.7,0.1c1.2,0,2.5,0,3.8,0h0.1c0.1-0.1,0.1-0.2,0.1-0.2
		C103.2,8.3,103,7.7,102.7,7.2z M100.3,9.2L100.3,9.2L100.3,9.2L100.3,9.2z"/>
</g>
<g>
	<path class="st8" d="M95.6,18.1c-0.6-0.2-1-0.4-1.7-0.5c-0.2-0.1-0.5-0.1-0.7,0s-0.5,0.2-0.6,0.4c-0.1,0.2-0.1,0.5,0.1,0.7
		c0.2,0.2,0.5,0.4,0.8,0.5c0.2,0.1,0.4,0.2,0.7,0.4c1.2,0.7,1.4,2.2,0.6,3.3c-0.4,0.5-0.8,0.8-1.4,1c-1.2,0.4-2.5,0.6-3.7,0.2
		c-0.2-0.1-0.4-0.2-0.7-0.2C89,23.9,89,23.9,89,23.8c0.1-0.5,0.3-1,0.4-1.5c0.1-0.1,0.1-0.2,0.2-0.1c0.6,0.4,1.4,0.7,2.1,0.6
		c0.2,0,0.5-0.1,0.7-0.2c0.4-0.2,0.6-0.7,0.1-1.1c-0.2-0.2-0.6-0.4-0.8-0.6c-0.2-0.1-0.5-0.3-0.7-0.5c-1.4-1-1-2.7,0-3.5
		c0.6-0.4,1.2-0.7,2-0.8c0.9-0.1,1.8-0.1,2.6,0.2c0.1,0.1,0.2,0.1,0.2,0.2C95.8,17,95.7,17.5,95.6,18.1z"/>
	<path class="st8" d="M82,20.6c0,0.2,0.1,0.4,0.1,0.7c0.1-0.1,0.1-0.2,0.1-0.2c0.7-1.6,1.4-3.2,2-4.7c0.1-0.1,0.1-0.2,0.2-0.2
		c0.7,0,1.4,0,2,0c0.1,0,0.2,0,0.1,0.2c-1,2.2-2,4.4-3.1,6.6c-0.2,0.4-0.4,0.7-0.7,1c-0.2,0.2-0.6,0.4-0.9,0.4c-0.4,0-0.7,0-1,0
		c-0.1,0-0.2,0-0.2-0.1c-0.3-1.8-0.7-3.6-1-5.5c-0.1-0.4-0.1-0.8-0.2-1.2c0.1-0.1,0.1,0,0.2,0c1,0.5,1.7,1.3,2.2,2.3
		C81.8,20,81.9,20.2,82,20.6z"/>
	<path class="st9" d="M86.7,24.3c-0.3,0-0.6,0-0.9,0c-0.1,0-0.2-0.1-0.1-0.2c0.4-1.7,0.7-3.4,1.1-5.2c0.2-0.9,0.4-1.7,0.6-2.6
		c0.1-0.2,0.1-0.2,0.3-0.2c0.6,0,1.1,0,1.7,0c0.1,0,0.2,0,0.2,0.2c-0.4,2-0.9,4.1-1.4,6.1c-0.1,0.6-0.2,1.2-0.4,1.8
		c0,0.1-0.1,0.2-0.2,0.2C87.3,24.3,87,24.3,86.7,24.3z"/>
	<g>
		<path class="st10" d="M81.8,19.3L81.8,19.3L81.8,19.3c-0.1-1-0.3-2.1-0.4-3.2c0-0.1-0.1-0.1-0.2-0.1c-1.2,0-2.3,0-3.5,0
			c-0.1,0-0.2,0.1-0.2,0.2c-0.1,0.2-0.1,0.4-0.1,0.5c-0.1,0.1,0,0.2,0.1,0.2c0.4,0,0.7,0.1,1.1,0.2c0.3,0.1,0.6,0.2,0.8,0.3
			c0.2,0.1,0.4,0.2,0.5,0.2c0.8,0.5,1.4,1.2,1.8,2.1c0.1,0.1,0.1,0.1,0.1,0.1C81.8,19.7,81.7,19.5,81.8,19.3z"/>
		<path class="st11" d="M81.8,19.3L81.8,19.3c-0.1,0.2,0.1,0.4,0,0.6c-0.1-0.1-0.1-0.1-0.1-0.1c0.1,0.2,0.2,0.5,0.2,0.7
			C81.9,20.1,81.9,19.8,81.8,19.3z"/>
	</g>
	<path class="st12" d="M102.7,24.1c-0.1-0.9-0.3-1.8-0.4-2.7c-0.2-1.7-0.6-3.4-0.8-5.2c0-0.1-0.1-0.2-0.2-0.2c-0.5,0-1,0-1.5,0
		c-0.4,0-0.6,0.1-0.9,0.4c-0.3,0.3-0.5,0.7-0.7,1c-0.9,1.8-1.7,3.5-2.5,5.3c-0.2,0.5-0.4,1-0.7,1.4h0.1c0.7,0,1.5,0,2.2,0
		c0.1,0,0.1-0.1,0.1-0.1c0.2-0.4,0.4-0.8,0.5-1.2c0.1-0.1,0.1-0.1,0.2-0.1c0.7,0,1.4,0,2,0c0.1,0,0.1,0.1,0.2,0.1
		c0.1,0.4,0.1,0.8,0.2,1.2c0,0.1,0.1,0.1,0.2,0.1C101.4,24.1,102,24.1,102.7,24.1C102.7,24.3,102.7,24.3,102.7,24.1z M99.8,21
		c-0.2,0-0.4,0-0.6,0l0,0c-0.2,0-0.4,0-0.6,0c-0.1,0-0.1-0.1-0.1-0.1c0.3-0.7,0.6-1.4,0.9-2.1c0-0.1,0-0.1,0.1-0.1
		c0.1,0,0.1,0.1,0.1,0.1c0.1,0.7,0.2,1.4,0.3,2.1C100,21,100,21,99.8,21z"/>
</g>
</svg>
