<?xml version="1.0" encoding="utf-8"?>
<!-- Generator: Adobe Illustrator 23.0.1, SVG Export Plug-In . SVG Version: 6.00 Build 0)  -->
<svg version="1.1" id="Слой_1" xmlns="http://www.w3.org/2000/svg" xmlns:xlink="http://www.w3.org/1999/xlink" x="0px" y="0px"
	 width="110px" height="40px" viewBox="0 0 110 40" style="enable-background:new 0 0 110 40;" xml:space="preserve">
<style type="text/css">
	.st0{fill:#FFFFFF;}
	.st1{fill:#F28D1C;}
	.st2{fill:#2A3440;}
</style>
<g id="Слой_3">
	<rect class="st0" width="110" height="40"/>
</g>
<g>
	<g>
		<path class="st1" d="M40.5,32c-1.5,0-3,0.2-4.5,0.3c-2.3,0.3-4.6,0.2-6.7-0.6c-5.2-1.8-8.4-5.3-9.5-10.6c-0.8-3.6-0.2-7,1.8-10.1
			c1.9-3.1,4.6-5.2,8.2-6.3c1.8-0.5,3.6-0.7,5.4-0.4c4.2,0.5,7.6,2.5,10.1,5.9c1.3,1.8,2.1,3.8,2.5,6c0.5,3.3-0.1,6.4-1.8,9.3
			c0,0.1-0.1,0.2-0.2,0.2s-0.1-0.1-0.1-0.2c-0.2-0.9-0.4-1.9-0.9-2.7c-0.8-1.5-2.2-2.5-3.9-3c-0.3-0.1-0.6-0.2-0.9-0.3
			c-0.1,0-0.2,0-0.2-0.1s0.1-0.1,0.2-0.1c0.9-0.1,1.9-0.1,2.8,0c0.3,0,0.3-0.1,0.3-0.3c0.1-1.4,0-2.9-0.6-4.2
			c-1.2-3.1-3.5-5.2-6.8-5.8c-2.9-0.6-5.5,0.1-7.8,1.9c-1.9,1.5-3.1,3.5-3.4,6c-0.4,3.5,0.8,6.4,3.5,8.7c1.4,1.1,3,1.7,4.7,1.9
			c0.4,0.1,0.8,0.1,1.3,0.1c0.2,0,0.2-0.1,0.2-0.3C34,26.5,34,25.7,34,24.8c0-0.1,0-0.3,0.1-0.3c0.2,0,0.2,0.1,0.3,0.2
			c0.5,0.9,1.2,1.9,1.9,2.6c1.4,1.4,3,2.1,4.8,2.5c1.4,0.3,2.7,0.6,3.9,1.2c1.7,0.8,3.1,1.9,4.4,3.3c0.3,0.3,0.6,0.7,0.8,0.9
			c0.2,0.2,0.3,0.3,0.1,0.5c-0.2,0.2-0.4,0.1-0.6-0.1c-0.8-0.8-1.9-1.4-2.8-2c-1.5-0.9-3.2-1.5-4.9-1.7C41.5,32,41,32,40.5,32z"/>
		<path class="st1" d="M75.5,14.8c0.3-1.1,0.7-2.1,1.1-3.2c0.3-0.9,0.7-1.9,0.9-2.8c0.1-0.3,0.2-0.3,0.4-0.3c0.5,0,0.9,0,1.4,0
			c0.3,0,0.3,0.1,0.4,0.3c0.7,1.9,1.3,3.8,1.9,5.7c0,0.1,0.1,0.2,0.1,0.3c0.2-0.7,0.3-1.2,0.6-1.8c0.4-1.4,0.8-2.8,1.3-4.2
			c0.1-0.3,0.2-0.3,0.4-0.3c0.8,0,1.4,0,2.2,0c0.3,0,0.5,0.2,0.3,0.5c-1.1,3.4-2.3,6.8-3.4,10.1c-0.1,0.3-0.3,0.3-0.5,0.3
			c-0.5,0-1,0-1.5,0c-0.3,0-0.4-0.1-0.5-0.4c-0.6-1.9-1.3-3.7-1.9-5.6c0-0.1,0-0.2-0.2-0.3c-0.3,0.8-0.5,1.5-0.8,2.3
			c-0.4,1.2-0.8,2.5-1.2,3.6c-0.1,0.3-0.2,0.3-0.5,0.3c-0.6,0-1.1,0-1.7,0c-0.3,0-0.3-0.1-0.4-0.3c-1.1-3.4-2.3-6.8-3.4-10.2
			c-0.2-0.3,0-0.5,0.3-0.5c0.7,0,1.4,0,2.1,0c0.3,0,0.3,0.1,0.4,0.3c0.6,1.9,1.2,3.9,1.8,5.8C75.5,14.7,75.5,14.7,75.5,14.8z"/>
		<path class="st1" d="M67.1,13.9c0-1.7,0-3.4,0-5.1c0-0.4,0.1-0.4,0.4-0.4c0.6,0,1.2,0,1.8,0c0.3,0,0.4,0.1,0.4,0.4
			c0,3.4,0,6.8,0,10.1c0,0.4-0.1,0.4-0.4,0.4c-0.6,0-1.3,0-1.9,0c-0.3,0-0.4-0.1-0.4-0.4C67.1,17.3,67.1,15.6,67.1,13.9z"/>
		<path class="st1" d="M90.3,14c0,1.7,0,3.4,0,5c0,0.4,0,0.4-0.4,0.4c-0.6,0-1.2,0-1.8,0c-0.4,0-0.5-0.1-0.5-0.5c0-3.2,0-6.5,0-9.7
			c0-0.8,0-0.8,0.8-0.8c0.4,0,0.9,0,1.4,0c0.5,0,0.6,0,0.6,0.5C90.3,10.6,90.3,12.3,90.3,14z"/>
		<path class="st2" d="M67.8,28.3c-0.8,0-1.7,0-2.6,0c-0.3,0-0.3-0.1-0.3-0.3c0-1.3,0-2.5,0-3.8c0-0.3,0.1-0.3,0.3-0.3
			c0.8,0,0.7-0.1,0.7,0.7c0,0.8,0,1.7,0,2.5c0,0.3,0.1,0.3,0.3,0.3s0.5,0,0.8,0c0.3,0,0.3-0.1,0.3-0.3c0-0.9,0-1.9,0-2.8
			c0-0.4,0-0.4,0.3-0.4c0.8,0,0.7-0.1,0.7,0.7c0,0.8,0,1.6,0,2.5c0,0.3,0.1,0.4,0.3,0.3c0.3,0,0.5,0,0.7,0c0.3,0,0.3-0.1,0.3-0.3
			c0-0.9,0-1.9,0-2.8c0-0.4,0-0.4,0.4-0.4c0.7,0,0.6-0.1,0.6,0.6c0,1.2,0,2.3,0,3.5c0,0.3-0.1,0.3-0.3,0.3
			C69.5,28.3,68.7,28.3,67.8,28.3z"/>
		<path class="st2" d="M54.4,25.2c0-0.9,0-1.9,0-2.8c0-0.3,0.1-0.3,0.3-0.3c0.8,0,0.7-0.1,0.8,0.8c0,0.5,0,1,0,1.5
			c0,0.3,0.1,0.3,0.3,0.3c0.3,0,0.6-0.1,0.8-0.4c0.3-0.7,0.8-1.3,1.1-1.9c0.1-0.2,0.2-0.2,0.3-0.2c0.3,0,0.4,0,0.7,0
			s0.3,0.1,0.2,0.3c-0.3,0.6-0.7,1.2-1.1,1.8c-0.1,0.2-0.2,0.3-0.3,0.5c-0.3,0.3-0.2,0.5,0,0.8c0.5,0.8,1,1.7,1.4,2.5
			c0.2,0.3,0.2,0.3-0.2,0.3c-0.9,0-0.9,0-1.4-0.8c-0.3-0.6-0.6-1.1-0.9-1.7c-0.1-0.2-0.3-0.2-0.4-0.2c-0.5,0-0.5,0-0.5,0.5
			c0,0.6,0,1.3,0,1.9c0,0.3-0.1,0.3-0.3,0.3c-0.9,0-0.8,0.1-0.8-0.8C54.4,26.8,54.4,26,54.4,25.2z"/>
		<path class="st2" d="M80.5,26.1c0,0.6,0,1.3,0,1.9c0,0.3-0.1,0.3-0.3,0.3c-0.8,0-0.8,0.1-0.8-0.8s0-1.6,0-2.5c0-0.3,0-0.4-0.3-0.4
			c-0.8,0-0.8,0-0.8,0.8c0,0.7-0.1,1.4-0.4,2c-0.3,0.5-0.7,0.7-1.2,0.8c-0.2,0-0.3,0-0.3-0.3c0-0.1,0-0.3,0-0.3c0-0.2,0-0.3,0.3-0.4
			c0.3-0.1,0.3-0.3,0.4-0.5c0.3-0.5,0.3-1,0.3-1.6c0-0.3,0-0.8,0-1.1c0-0.2,0.1-0.3,0.3-0.3c0.9,0,1.8,0,2.7,0
			c0.2,0,0.3,0.1,0.3,0.3C80.5,24.8,80.5,25.4,80.5,26.1z"/>
		<path class="st2" d="M86.5,26.1c0-0.7,0-1.3,0-1.9c0-0.3,0.1-0.3,0.3-0.3c0.9,0,0.8-0.1,0.8,0.8c0,0.2,0,0.3,0,0.5
			c0,0.2-0.1,0.3,0.2,0.4c0.3,0.1,0.4,0.1,0.6-0.2c0.3-0.4,0.5-0.8,0.7-1.1c0.2-0.3,0.3-0.4,0.7-0.3c0.2,0,0.3,0,0.5,0
			c0.3,0,0.3,0.1,0.2,0.3c-0.3,0.5-0.7,1-1,1.5c-0.2,0.3-0.2,0.4,0,0.7c0.4,0.6,0.8,1.2,1.2,1.7c0.1,0.1,0.1,0.1,0.1,0.2
			c-0.1,0.1-0.2,0.1-0.3,0.1c-1,0-1,0-1.5-0.8c-0.2-0.3-0.3-0.5-0.5-0.8c-0.2-0.3-0.3-0.3-0.6-0.3c-0.2,0-0.1,0.2-0.1,0.3
			c0,0.4,0,0.8,0,1.3c0,0.2-0.1,0.3-0.3,0.3c-0.2,0-0.3,0-0.5,0s-0.3-0.1-0.3-0.3C86.5,27.4,86.5,26.7,86.5,26.1z"/>
		<path class="st1" d="M41.6,28.9c-0.8,0-1.4-0.7-1.5-1.4c0-0.6,0.3-0.9,0.8-0.9c0.7,0,1.5,0.7,1.6,1.3
			C42.8,28.4,42.3,28.9,41.6,28.9z"/>
		<path class="st1" d="M44.9,25.7c0,0.3,0,0.5-0.3,0.6c-0.3,0.1-0.4-0.2-0.6-0.3c-0.3-0.3-0.6-0.8-0.6-1.3c0-0.3,0-0.4,0.2-0.6
			c0.3-0.2,0.4-0.1,0.7,0.1C44.6,24.6,44.9,25.1,44.9,25.7z"/>
		<path class="st1" d="M65.7,19c-0.5-0.6-1-1.2-1.5-1.7c-0.2-0.2-0.2-0.3-0.1-0.5c0.7-1.3,0.9-2.6,0.7-4.1c-0.7-3.2-3.6-5.2-6.8-4.5
			c-3,0.6-5.1,3.5-4.5,6.7c0.8,3.9,5,5.8,8.5,4c0.3-0.2,0.4-0.2,0.6,0.1c0.2,0.3,0.4,0.3,0.8,0.3s0.7,0,1,0c0.4,0,0.8,0,1.3,0
			c0.1,0,0.3,0,0.3-0.1C65.9,19.2,65.8,19.1,65.7,19z M62.2,14.8c-0.1,0.2-0.1,0.3-0.3,0.3c-0.3,0-0.7,0-1,0s-0.7,0-1,0
			c-0.1,0-0.3,0-0.3,0.1c-0.1,0.1,0,0.3,0.1,0.3c0.3,0.3,0.6,0.8,0.9,1.1c0.2,0.2,0.1,0.3-0.1,0.3c-1.5,0.7-3.3-0.1-4-1.6
			c-0.7-1.7,0.1-3.6,1.7-4.3c1.8-0.7,3.6,0.3,4.1,2.3C62.3,13.7,62.3,14.3,62.2,14.8z"/>
		<path class="st2" d="M61.5,23.8c-1.4,0-2.4,0.9-2.4,2.3c0,1.4,1,2.4,2.4,2.4c1.4,0,2.5-1.1,2.4-2.3C64,24.8,63,23.8,61.5,23.8z
			 M61.5,27.4c-0.8,0-1.3-0.6-1.3-1.4s0.4-1.4,1.3-1.4c0.8,0,1.4,0.6,1.4,1.4C62.9,26.8,62.3,27.4,61.5,27.4z"/>
		<path class="st2" d="M73,26.3c0.4,0,0.8,0,1.2,0c0.3,0,0.8,0,1.1,0c0.4,0,0.5-0.1,0.4-0.5c-0.1-1.4-1.1-2.3-2.5-1.9
			c-0.8,0.2-1.4,0.7-1.6,1.5c-0.3,0.8-0.1,1.6,0.5,2.3c0.7,0.8,1.9,0.9,2.9,0.5c0.7-0.3,0.7-0.3,0.3-1c-0.1-0.2-0.2-0.2-0.3-0.1
			c-0.3,0.2-0.4,0.3-0.7,0.3c-0.8,0.2-1.4-0.2-1.6-0.8C72.8,26.3,72.8,26.3,73,26.3z M73.8,24.6c0.4,0,0.8,0.2,0.9,0.6
			c0.1,0.3,0.1,0.3-0.3,0.3c-0.3,0-0.5,0-0.8,0l0,0c-0.3,0-0.5,0-0.8,0c-0.2,0-0.2-0.1-0.2-0.2C72.8,25,73.4,24.6,73.8,24.6z"/>
		<path class="st2" d="M83.4,23.8c-1,0.1-1.7,0.7-1.9,1.8c-0.3,0.9,0.3,2,1,2.5c0.8,0.5,1.8,0.4,2.6,0c0.4-0.3,0.5-0.3,0.3-0.8
			c-0.2-0.3-0.3-0.3-0.5-0.2c-0.1,0.1-0.3,0.1-0.3,0.2c-0.8,0.3-1.7,0-1.9-0.8c-0.1-0.2,0-0.3,0.2-0.3c0.4,0,0.8,0,1.3,0l0,0
			c0.4,0,0.8,0,1.3,0c0.2,0,0.3,0,0.3-0.3C85.7,25,85,23.6,83.4,23.8z M84.3,25.6c-0.3,0-0.5,0-0.8,0l0,0c-0.3,0-0.5,0-0.8,0
			c-0.1,0-0.2,0-0.2-0.2c0.1-0.3,0.6-0.8,1-0.8s0.8,0.3,0.9,0.7C84.5,25.4,84.4,25.6,84.3,25.6z"/>
	</g>
</g>
</svg>
