<?xml version="1.0" encoding="utf-8"?>
<!-- Generator: Adobe Illustrator 23.0.1, SVG Export Plug-In . SVG Version: 6.00 Build 0)  -->
<svg version="1.1" xmlns="http://www.w3.org/2000/svg" xmlns:xlink="http://www.w3.org/1999/xlink" x="0px" y="0px" width="110px"
	 height="40px" viewBox="0 0 110 40" style="enable-background:new 0 0 110 40;" xml:space="preserve">
<style type="text/css">
	.st0{fill:#FFFFFF;}
	.st1{fill:#EE3C42;}
	.st2{fill:#EE3C43;}
	.st3{fill:#EE3B42;}
	.st4{fill:#017DC0;}
</style>
<g id="Слой_2">
	<rect class="st0" width="110" height="40"/>
</g>
<g id="Слой_1">
	<path class="st1" d="M84.8,15c0.8,0,1.6,0,2.4,0c0.3,0,0.3,0.1,0.4,0.4c0,1.2,0,1.7-1.6,1.6c-1.1,0-2.2,0-3.3,0
		c-0.7,0-0.9,0.2-0.9,0.9c0,0.1,0,0.3,0,0.4c0,0.4,0.2,0.7,0.7,0.7c0.9,0,1.7,0,2.6,0c2,0,3.1,1.2,2.9,3.2c0,0.4-0.1,0.9-0.3,1.3
		c-0.4,1-1.1,1.5-2.2,1.5c-1.4,0-2.8,0-4.1,0c-0.7,0-1.1-0.4-1.1-1c0-0.7,0.4-1,1.1-1c1.3,0,2.6,0,3.9,0c0.5,0,0.7-0.1,0.8-0.6
		c0-0.2,0-0.4,0-0.5c0-0.6-0.3-0.8-0.9-0.8c-0.9,0-1.8,0-2.7,0c-1.3-0.1-2.1-0.7-2.5-1.9c-0.4-1.3,0-2.9,0.9-3.5
		c0.5-0.4,1.1-0.5,1.7-0.5C83.2,15,84,15,84.8,15C84.8,15,84.8,15,84.8,15z"/>
	<path class="st2" d="M74.3,24.9c-0.7,0-1.4,0-2.2,0c-0.7,0-1-0.4-1-1c0-0.6,0.4-0.9,1-0.9c1.3,0,2.7,0,4,0c0.5,0,0.6-0.2,0.7-0.6
		c0-0.2,0-0.3,0-0.5c0-0.7-0.3-0.9-0.9-0.9c-0.8,0-1.6,0-2.4,0c-1.8,0-2.8-1-2.9-2.9c0-0.4,0-0.8,0.2-1.2c0.3-1.1,1.1-1.8,2.2-1.8
		c1.7-0.1,3.4,0,5.2,0c0.2,0,0.3,0.1,0.3,0.3c0,0,0,0.1,0,0.1c0,1.2,0,1.7-1.6,1.6c-1.1,0-2.2,0-3.3,0c-0.3,0-0.7,0-0.8,0.3
		c-0.2,0.5-0.2,1,0.1,1.4c0.2,0.2,0.5,0.2,0.7,0.2c0.8,0,1.6,0,2.4,0c1.6-0.1,2.4,0.7,2.7,2.2c0.2,0.9,0.1,1.7-0.4,2.6
		c-0.5,0.8-1.2,1.2-2.1,1.2C75.8,25,75,25,74.3,24.9C74.3,25,74.3,25,74.3,24.9z"/>
	<path class="st3" d="M51.9,20c0-1.3,0-2.6,0-3.9c0-0.7,0.3-1,1-1c0.7,0,1,0.3,1,1c0,0.8,0,1.6,0,2.5c0,0.3,0.1,0.4,0.4,0.5
		c0.8,0.1,1.4-0.2,1.9-0.7c0.4-0.4,0.8-0.7,1.1-1.1c0.3-0.4,0.5-0.8,0.5-1.3c0-0.6,0.2-0.8,0.7-0.8c0.9,0,1.3,0.2,1.3,0.9
		c0.1,0.8-0.2,1.6-0.7,2.2c-0.4,0.6-0.9,1.1-1.5,1.6c-0.3,0.2-0.2,0.4,0,0.6c0.7,0.6,1.3,1.2,1.7,1.9c0.4,0.6,0.5,1.2,0.5,1.9
		c0,0.5-0.4,0.8-0.9,0.9c-0.6,0-1.1-0.2-1.1-0.7c0-1-0.7-1.6-1.3-2.3c-0.1-0.1-0.3-0.3-0.5-0.4c-0.5-0.6-1.2-0.6-2-0.6
		c-0.3,0-0.3,0.2-0.3,0.4c0,0.9,0,1.7,0,2.6c0,0.7-0.3,1.1-1,1.1c-0.7,0-1-0.3-1-1.1C51.9,22.6,51.9,21.3,51.9,20z"/>
	<path class="st4" d="M39.6,20c0-0.4,0.4-0.7,0.5-1.1c0.7-2.2-0.5-3.9-2.8-3.9c-1.3,0-2.6,0-3.8,0c-1.1,0-1.7,0.5-1.7,1.6
		c0,1.1,0,2.2,0,3.3c0,1.1,0,2.3,0,3.4c0,1,0.5,1.6,1.6,1.6c1.4,0,2.9,0,4.3,0c1.2,0,2-0.6,2.4-1.6c0.3-0.8,0.3-1.6,0.1-2.3
		C40,20.7,39.6,20.4,39.6,20z M37.7,23c-0.6,0-1.3,0-1.9,0c0,0,0,0,0,0c-0.6,0-1.1,0-1.7,0c-0.2,0-0.3-0.1-0.3-0.3
		c0-0.5,0-0.9,0-1.4c0-0.2,0.1-0.3,0.3-0.3c1,0,2,0,3,0c0.8,0,1.3,0.6,1.1,1.4C38.3,22.8,38.1,23,37.7,23z M37.5,18.9
		C37.3,19,37.1,19,37,19c-0.9,0-1.8,0-2.8,0c-0.3,0-0.4-0.1-0.4-0.3c0-0.5,0-0.9,0-1.4c0-0.3,0.1-0.3,0.3-0.3c0.6,0,1.2,0,1.8,0
		c0,0,0,0,0,0c0.5,0,1,0,1.5,0c0.7,0,0.9,0.1,0.9,0.7C38.4,18.3,38.1,18.8,37.5,18.9z"/>
	<path class="st4" d="M19.5,21.4c0.1-0.1,0.2-0.2,0.3-0.2c1.2-1.3,1.2-2.8,0.8-4.4c-0.4-1.3-1.3-1.8-2.6-1.8c-1.4,0-2.8,0-4.3,0
		c-0.9,0-1.5,0.5-1.5,1.4c0,2.8,0,5.6,0,8.3c0,0.2,0.1,0.3,0.3,0.3c0.5,0,0.9,0,1.4,0c0.3,0,0.3-0.1,0.3-0.3c0-0.7,0-1.4,0-2.1
		c0-0.3,0.1-0.3,0.3-0.3c0.7,0,1.4,0,2.2,0c0.3,0,0.4,0.1,0.5,0.3c0.3,0.7,0.7,1.4,1.1,2.1c0.1,0.1,0.1,0.3,0.3,0.3
		c0.7,0,1.3,0,2.1,0c-0.5-0.9-0.9-1.8-1.4-2.6C19,21.8,19,21.8,19.5,21.4z M18.7,18.8c-0.1,0.8-0.6,1.3-1.5,1.4c-1,0.1-1.9,0-2.9,0
		c-0.2,0-0.2-0.1-0.2-0.3c0-0.9,0-1.8,0-2.7c0-0.2,0.1-0.3,0.3-0.3c0.6,0,1.2,0,1.8,0c0.6,0,1.1,0,1.7,0c0.4,0,0.7,0.2,0.8,0.6
		C18.8,18,18.8,18.4,18.7,18.8z"/>
	<path class="st2" d="M69.8,19.7c0-1.2-0.3-2.3-0.9-3.3c-0.5-0.9-1.3-1.4-2.4-1.4c-0.7,0-1.5,0-2.2,0c-0.9,0-1.6,0.4-2.1,1.1
		c-0.4,0.6-0.6,1.2-0.8,1.8C61,19.2,61,20.4,61,21.6c0,0.8,0,1.6,0,2.3c0,0.7,0.4,1,1,1c0.6,0,1-0.4,1-1c0-0.4,0-0.8,0-1.2
		c0-0.2,0.1-0.3,0.3-0.3c1.4,0,2.8,0,4.1,0c0.2,0,0.3,0.1,0.3,0.3c0,0.4,0,0.9,0,1.3c0,0.6,0.4,0.9,1,0.9c0.6,0,1-0.3,1-0.9
		C69.8,22.6,69.8,21.1,69.8,19.7z M67.5,20.4c-0.7,0-1.4,0-2.1,0c0,0,0,0,0,0c-0.7,0-1.4,0-2.1,0c-0.2,0-0.3-0.1-0.3-0.3
		c0-0.9,0.2-1.7,0.6-2.6c0.2-0.4,0.5-0.6,0.9-0.6c0.6,0,1.2,0,1.8,0c0.4,0,0.7,0.2,0.9,0.6c0.4,0.8,0.6,1.7,0.6,2.6
		C67.8,20.4,67.7,20.4,67.5,20.4z"/>
	<path class="st1" d="M97.8,21.6c0-0.7,0-1.4,0-2c0-1-0.3-2-0.7-2.9c-0.5-1-1.3-1.6-2.4-1.7c-0.8,0-1.6,0-2.5,0
		c-0.9,0.1-1.6,0.5-2.1,1.2c-0.5,0.8-0.8,1.7-0.9,2.6c-0.2,1.7-0.1,3.4-0.1,5.1c0,0.7,0.3,1,1,1c0.7,0,1-0.3,1-1c0-0.4,0-0.8,0-1.2
		c0-0.2,0.1-0.3,0.3-0.3c1.4,0,2.8,0,4.2,0c0.2,0,0.3,0.1,0.3,0.3c0,0.5,0,0.9,0,1.4c0,0.6,0.4,0.9,1.1,0.9c0.5,0,0.9-0.4,0.9-0.9
		C97.9,23.2,97.9,22.4,97.8,21.6C97.9,21.6,97.9,21.6,97.8,21.6z M95.6,20.4c-0.7,0-1.4,0-2.1,0c-0.7,0-1.3,0-2,0
		c-0.2,0-0.4,0-0.4-0.3c0-0.9,0.2-1.7,0.6-2.6c0.2-0.4,0.5-0.6,0.9-0.6c0.6,0,1.2,0,1.8,0c0.4,0,0.7,0.2,0.9,0.6
		c0.4,0.8,0.5,1.7,0.6,2.6C95.9,20.3,95.8,20.4,95.6,20.4z"/>
	<path class="st4" d="M49.9,16.6c-0.3-1-1.3-1.6-2.3-1.6c-0.5,0-1.1,0-1.6,0c0,0,0,0,0,0c-0.5,0-1,0-1.5,0c-1.3,0-2.1,0.6-2.5,1.8
		c-0.6,2.1-0.6,4.2,0,6.3c0.3,1.1,1.2,1.8,2.4,1.8c1.1,0,2.2,0,3.3,0c1,0,1.9-0.5,2.2-1.5C50.6,21.2,50.6,18.9,49.9,16.6z
		 M48.1,22.5C48,22.9,47.8,23,47.5,23c-1,0-2,0-3,0c-0.3,0-0.5-0.2-0.6-0.5c-0.4-1.7-0.4-3.4,0-5c0.1-0.3,0.3-0.5,0.6-0.5
		c0.5,0,1,0,1.5,0c0.5,0,1,0,1.5,0c0.3,0,0.6,0.1,0.6,0.5C48.5,19.2,48.5,20.8,48.1,22.5z"/>
	<path class="st4" d="M30,16.6c-0.3-1-1.2-1.5-2.2-1.5c-1.1,0-2.3,0-3.4,0c-1.1,0-1.9,0.5-2.3,1.6c-0.2,0.4-0.3,0.9-0.4,1.4
		c-0.2,1.8-0.2,3.5,0.3,5.2c0.3,1,1,1.6,2,1.8c0.7,0.1,1.3,0,1.9,0.1c0.6,0,1.2,0,1.7,0c1.1,0,2-0.6,2.4-1.7
		C30.7,21.1,30.7,18.8,30,16.6z M28.2,22.5c-0.1,0.4-0.3,0.5-0.7,0.5c-0.5,0-1,0-1.5,0c-0.5,0-1,0-1.5,0c-0.4,0-0.6-0.1-0.7-0.5
		c-0.4-1.7-0.4-3.4,0-5c0.1-0.3,0.3-0.5,0.6-0.5c1,0,2,0,3,0c0.3,0,0.5,0.2,0.6,0.5C28.6,19.1,28.6,20.8,28.2,22.5z"/>
</g>
</svg>
