<?xml version="1.0" encoding="utf-8"?>
<!-- Generator: Adobe Illustrator 23.0.1, SVG Export Plug-In . SVG Version: 6.00 Build 0)  -->
<svg version="1.1" id="Слой_1" xmlns="http://www.w3.org/2000/svg" xmlns:xlink="http://www.w3.org/1999/xlink" x="0px" y="0px"
	 width="110px" height="40px" viewBox="0 0 110 40" style="enable-background:new 0 0 110 40;" xml:space="preserve">
<style type="text/css">
	.st0{fill:#171719;}
	.st1{fill:#FEFEFE;}
</style>
<rect class="st0" width="110" height="40"/>
<g>
	<path class="st1" d="M62.8,14.9c-0.9,0.1-1.7,0.6-2.5,1.1c-0.2-0.9-0.2-0.9-1.1-0.9c-0.1,0-0.2,0-0.3,0c-0.5-0.1-0.7,0.1-0.7,0.7
		c0,4.1,0,8.2,0,12.3c0,1.7,0,1.6,1.7,1.6c0.4,0,0.6-0.2,0.6-0.6c0-0.8,0-1.6,0-2.5c0-0.6,0-1.1,0-1.7c0.1,0.1,0.2,0.1,0.2,0.1
		c2.8,1.7,5.5,0.2,6.5-2.4c0.6-1.6,0.6-3.2,0.1-4.8C66.7,15.6,65.1,14.6,62.8,14.9z M64.8,22.5C63.9,24.2,62,24,60.6,23
		c-0.2-0.1-0.1-0.3-0.1-0.5c0-0.7,0-1.4,0-2.1s0-1.4,0-2.1c0-0.2,0.1-0.4,0.3-0.6c0.6-0.4,1.2-0.8,1.9-1c0.9-0.2,1.8,0.3,2.2,1.1
		C65.6,19.4,65.6,21,64.8,22.5z"/>
	<path class="st1" d="M77.1,17.4c-0.4-1.3-1.1-2.2-2.5-2.5c-1.5-0.3-3,0-4.3,0.7c-1.3,0.7-1.2,0.4-0.5,1.7c0.2,0.4,0.4,0.5,0.9,0.2
		c0.8-0.5,1.7-0.9,2.7-0.8c0.8,0,1.4,0.4,1.6,1.2c0.2,0.7,0.2,0.7-0.5,0.8c-0.2,0-0.3,0-0.5,0.1c-1.2,0.2-2.3,0.4-3.3,1
		c-1.4,0.8-2,2.2-1.6,3.8c0.4,1.4,1.7,2.2,3.3,2c1.1-0.1,2-0.6,2.9-1.2c0.2,1.1,0,1,1.1,1c0.1,0,0.3,0,0.4,0
		c0.4,0.1,0.6-0.1,0.6-0.6c0-1.9,0-3.8,0-5.7C77.3,18.5,77.3,18,77.1,17.4z M74.5,23.1c-0.8,0.5-1.7,0.9-2.7,0.6
		c-0.9-0.3-1-1.6-0.2-2.3c0.5-0.4,1.1-0.6,1.7-0.7c0.5-0.1,0.9-0.2,1.4-0.3c0.3-0.1,0.4,0.1,0.4,0.4c0,0.3,0,0.5,0,0.8
		C75.1,22.1,75.2,22.7,74.5,23.1z"/>
	<path class="st1" d="M31.8,11.6c-0.3,0-0.7,0-1,0c-0.5-0.1-0.6,0.1-0.6,0.6c0,2.4,0,4.9,0,7.4c0,0.7,0,1.3-0.2,1.9
		c-0.3,1.1-0.9,1.9-2.1,2.1c-1.3,0.2-2.4-0.2-3-1.2c-0.4-0.7-0.5-1.5-0.6-2.2c0-0.9,0-1.9,0-2.8c0-0.4-0.1-0.5-0.5-0.5
		c-0.4,0-0.9,0-1.3,0c-0.3,0-0.4,0.1-0.4,0.4c0,1.4-0.1,2.8,0.1,4.2c0.3,1.5,0.9,2.9,2.3,3.7c0.7,0.4,1.5,0.5,2.3,0.6
		c2.9,0.2,4.9-1.3,5.3-4.2c0.3-1.7,0.1-3.3,0.2-4.7c0-1.7,0-3.2,0-4.6C32.4,11.7,32.3,11.5,31.8,11.6z"/>
	<path class="st1" d="M43.2,17.5c-0.5-2.7-2.8-3-4.4-2.5c-0.7,0.2-1.3,0.7-1.9,1.1c-0.3-0.3,0.1-0.9-0.4-1.1c-0.4-0.1-0.8,0-1.2,0
		c-0.4,0-0.5,0.2-0.5,0.5c0,3.1,0,6.2,0,9.3c0,0.4,0.1,0.6,0.5,0.5c0.4,0,0.7,0,1.1,0c0.5,0.1,0.6-0.2,0.6-0.6c0-2.1,0-4.1,0-6.2
		c0-0.2-0.1-0.4,0.1-0.6c0.5-0.5,1-0.9,1.6-1.1c1.2-0.4,2.1,0.1,2.3,1.4c0,0.3,0.1,0.6,0.1,0.9c0,1.9,0,3.7,0,5.6
		c0,0.6,0.2,0.7,0.7,0.7c0.3,0,0.7,0,1,0c0.5,0,0.6-0.2,0.6-0.6c0-1.8,0-3.6,0-5.5C43.4,18.8,43.3,18.1,43.2,17.5z"/>
	<path class="st1" d="M87.5,15.1c-0.3,0-0.6,0-0.9,0c-0.6-0.1-0.8,0.2-1,0.7c-0.7,2.3-1.5,4.6-2.3,7c-0.8-2.1-1.5-4.1-2.3-6.2
		c-0.6-1.5-0.6-1.5-2.2-1.5c-0.6,0-0.7,0.1-0.4,0.6c1.2,2.8,2.3,5.7,3.5,8.5c0.4,1,0.2,1.8-0.3,2.6c-0.5,0.8-1.2,1.1-2.1,0.9
		c-0.4-0.1-0.6,0.1-0.6,0.4c0,0.5-0.7,1.1,0.1,1.4c0.9,0.3,1.8,0.3,2.6-0.2c1.2-0.6,1.8-1.6,2.3-2.7c0.6-1.6,1.2-3.2,1.7-4.8
		c0.7-2.1,1.5-4.1,2.2-6.2C88,15.2,87.9,15,87.5,15.1z"/>
	<path class="st1" d="M55.8,23.7c-1.3,0.4-2-0.1-2-1.4c0-1.3,0-2.6,0-3.8c0-0.5-0.2-1.1,0.1-1.3c0.2-0.3,0.9-0.1,1.3-0.1
		c1.5,0,1.3,0.2,1.3-1.3c0-0.5-0.2-0.6-0.6-0.6c-0.6,0-1.2,0-1.8,0c-0.3,0-0.4-0.1-0.4-0.4c0-0.6,0-1.3,0-1.9c0-0.3-0.1-0.5-0.5-0.5
		c-1.7,0.1-1.4-0.3-1.6,1.4c0,0.1,0,0.2,0,0.3c-0.1,1-0.1,1-1,1.1c-0.5,0-0.7,0.2-0.7,0.7c0,1.3-0.1,1.2,1.1,1.1
		c0.3,0,0.4,0.1,0.4,0.4c0,0.9,0,1.7,0,2.6c0,0.7,0,1.4,0,2.2c0,0.9,0.1,1.9,0.8,2.6c0.9,1,2.1,1.1,3.3,0.8c1.5-0.3,1.2-0.3,0.9-1.5
		C56.5,23.6,56.3,23.5,55.8,23.7z"/>
	<path class="st1" d="M48.4,16.6c0-1.5,0-1.5-1.5-1.6c-0.6,0-0.7,0.2-0.7,0.7c0,2.7,0,5.3,0,8c0,0.5-0.2,1.2,0.1,1.5
		c0.3,0.3,1,0,1.5,0.1c0.5,0,0.6-0.2,0.6-0.6c0-1.5,0-3,0-4.6C48.4,19,48.4,17.8,48.4,16.6z"/>
	<path class="st1" d="M47.5,10.9c-0.7-0.1-1.5-0.2-2.1-0.5c-0.2-0.1-0.3-0.1-0.5,0c-0.2,0.2-0.1,0.4,0,0.5c0.5,0.9,1,1.7,1.7,2.3
		c0.4,0.4,0.9,0.4,1.3,0.2c0.5-0.2,0.8-0.6,0.8-1C48.7,11.5,48.3,11,47.5,10.9z"/>
	<path class="st1" d="M22.6,14.9c0.4,0,0.8,0,1.2,0c0.4,0,0.5-0.1,0.5-0.5c0-0.4,0-0.8,0-1.2c0-0.4,0-0.8,0-1.2
		c0-0.3-0.1-0.5-0.5-0.5c-0.4,0-0.9,0-1.3,0c-0.3,0-0.5,0.1-0.5,0.4c0,0.8,0,1.6,0,2.4C22.1,14.9,22.2,15,22.6,14.9z"/>
</g>
</svg>
