<?xml version="1.0" encoding="utf-8"?>
<!-- Generator: Adobe Illustrator 23.0.1, SVG Export Plug-In . SVG Version: 6.00 Build 0)  -->
<svg version="1.1" id="Слой_1" xmlns="http://www.w3.org/2000/svg" xmlns:xlink="http://www.w3.org/1999/xlink" x="0px" y="0px"
	 width="110px" height="40px" viewBox="0 0 110 40" style="enable-background:new 0 0 110 40;" xml:space="preserve">
<style type="text/css">
	.st0{fill:#FFFFFF;}
	.st1{fill:#0069B3;}
</style>
<rect class="st0" width="110" height="40"/>
<g>
	<path class="st1" d="M98.5,27.3c-0.2-0.3-0.4-0.3-0.6,0c-0.7,0.7-1.5,1.3-2.2,2c-0.3,0.3-0.5,0.3-0.8,0c-1.2-1.4-2.4-2.7-3.6-4.1
		c-0.9-1-0.9-1,0.1-1.9c0.3-0.3,0.3-0.4,0-0.7c-0.8-0.8-1.5-1.7-2.2-2.5c-0.9-1-0.9-1,0.1-1.9c0.3-0.3,0.3-0.5,0-0.8
		c-1-1-1.9-2.1-2.8-3.1c-0.2-0.3-0.3-0.4,0-0.7c1.6-1.4,3.2-2.9,4.8-4.3c0.3-0.2,0.4-0.2,0.6,0.1c0.4,0.5,0.8,0.9,1.2,1.3
		c0.2,0.2,0.3,0.2,0.5,0c0.5-0.5,1-0.9,1.5-1.4c0.4-0.3,0.7-0.8,1.1-0.9c0.4,0,0.7,0.6,1.1,0.9c0.8,0.8,0.8,0.8,1.6,0
		c0.3-0.3,0.3-0.4-0.1-0.6c-2.2-1.2-4.6-1.7-7.1-1.4c-6.5,0.8-11.3,6-11.5,12.7c0,3.5,1.3,6.6,3.9,9.1c4.4,4.3,11.3,4.7,16.2,1.1
		c0.3-0.3,0.4-0.4,0.1-0.7C99.8,28.8,99.1,28,98.5,27.3z"/>
	<path class="st1" d="M93,21.9c0.2,0.2,0.3,0.3,0.6,0.1c0.8-0.7,1.6-1.5,2.4-2.2c0.2-0.2,0.2-0.4,0-0.6c-0.7-0.8-1.5-1.6-2.2-2.4
		c-0.1-0.1-0.2-0.2-0.3-0.2c-0.1,0.1-0.2,0.1-0.2,0.2c-0.9,0.8-1.7,1.6-2.6,2.3c-0.2,0.2-0.1,0.3,0,0.5C91.5,20.3,92.3,21.1,93,21.9
		z"/>
	<path class="st1" d="M95.2,27.2c0.1,0.1,0.1,0.2,0.3,0.2c0.1,0,0.1-0.1,0.2-0.2c0.8-0.7,1.7-1.5,2.5-2.2c0.2-0.2,0.2-0.3,0-0.5
		c-0.7-0.8-1.5-1.6-2.2-2.4c-0.2-0.2-0.3-0.3-0.6,0c-0.8,0.7-1.6,1.5-2.4,2.2c-0.2,0.2-0.3,0.3,0,0.5C93.7,25.5,94.4,26.3,95.2,27.2
		z"/>
	<path class="st1" d="M91.7,11.6c-0.2-0.3-0.4-0.2-0.6,0c-0.8,0.7-1.6,1.5-2.4,2.2c-0.2,0.2-0.3,0.3-0.1,0.6
		c0.7,0.8,1.5,1.6,2.2,2.4c0.1,0.1,0.2,0.2,0.3,0.2c0.1-0.1,0.2-0.1,0.2-0.2c0.9-0.8,1.7-1.6,2.6-2.3c0.2-0.2,0.1-0.3,0-0.5
		C93.2,13.3,92.4,12.5,91.7,11.6z"/>
	<path class="st1" d="M101,16.1c0.4,0.4,0.7,0.8,1,1.2l0.1,0.1c0,0,0.1,0,0.1-0.1c0.4-0.4,0.8-0.7,1.3-1.1c0.1-0.1,0.1-0.2,0-0.2
		c-0.3-0.4-0.7-0.8-1-1.2c-0.1-0.1-0.2-0.1-0.3,0c-0.4,0.3-0.8,0.7-1.2,1C101,16,100.9,16,101,16.1z"/>
	<path class="st1" d="M105.2,20.7c-0.3-0.4-0.7-0.8-1-1.2c-0.1-0.1-0.2-0.1-0.3,0c-0.4,0.3-0.8,0.6-1.2,1c-0.1,0.1-0.1,0.2,0,0.3
		c0.3,0.4,0.7,0.8,1,1.2l0.1,0.1c0,0,0.1,0,0.1-0.1c0.4-0.3,0.9-0.7,1.3-1C105.3,20.8,105.3,20.7,105.2,20.7z"/>
	<path class="st1" d="M98.6,11.9c0.4,0.4,0.7,0.8,1.1,1.2l0.1,0.1c0,0,0.1,0,0.1-0.1c0.4-0.4,0.8-0.7,1.2-1.1c0.1-0.1,0-0.2,0-0.2
		c-0.4-0.4-0.7-0.8-1.1-1.2c-0.1-0.1-0.2-0.1-0.3,0c-0.4,0.4-0.8,0.7-1.2,1C98.5,11.7,98.5,11.8,98.6,11.9z"/>
	<path class="st1" d="M96.2,17.4c0.5,0.6,1,1.1,1.5,1.7c0.2,0.2,0.3,0.2,0.5,0c0.5-0.5,1.1-1,1.7-1.5c0.2-0.2,0.3-0.4,0-0.6
		c-0.5-0.5-1-1.1-1.5-1.6c-0.1-0.1-0.2-0.2-0.3-0.2L98,15.3c-0.6,0.6-1.3,1.1-1.9,1.7C96,17.2,96.1,17.3,96.2,17.4z"/>
	<path class="st1" d="M96.4,10.8c-0.2-0.2-0.4-0.1-0.5,0c-0.6,0.5-1.1,1-1.7,1.5c-0.2,0.2-0.2,0.3,0,0.5c0.5,0.6,1.1,1.2,1.6,1.8
		c0.2,0.2,0.3,0.2,0.6,0c0.6-0.5,1.1-1,1.7-1.6c0.1-0.1,0.1-0.1,0.2-0.2c-0.1-0.1-0.1-0.1-0.1-0.2C97.5,12,96.9,11.4,96.4,10.8z"/>
	<path class="st1" d="M100.3,23.9c0.5-0.5,1.1-1,1.7-1.5c0.2-0.2,0.3-0.3,0-0.6c-0.5-0.5-1-1.1-1.5-1.7c-0.1-0.1-0.2-0.2-0.3-0.3
		c-0.1,0-0.2,0.1-0.2,0.1c-0.6,0.6-1.2,1.1-1.9,1.7c-0.2,0.2-0.1,0.3,0,0.5c0.5,0.6,1,1.1,1.5,1.7C99.9,24.1,100,24.2,100.3,23.9z"
		/>
	<path class="st1" d="M102.4,24.7c-0.2-0.2-0.3-0.2-0.5,0c-0.6,0.5-1.1,1-1.7,1.5c-0.2,0.2-0.2,0.3,0,0.5c0.5,0.6,1.1,1.2,1.6,1.8
		c0.1,0.1,0.2,0.1,0.2,0.2c0.1,0,0.1-0.1,0.2-0.1c0.6-0.6,1.3-1.1,1.9-1.7c0.2-0.2,0.1-0.3,0-0.5C103.5,25.8,102.9,25.3,102.4,24.7z
		"/>
</g>
<g>
	<path class="st1" d="M15.3,14.8c-0.5,0-0.7,0.1-0.7,0.6c-0.2,1.2-0.4,2.3-0.6,3.5c-0.2,1.1-0.4,2.3-0.7,3.4h-0.1
		c-0.6-2.3-1.2-4.6-1.8-6.9c-0.1-0.6-0.5-0.5-0.9-0.6c-0.4,0-0.6,0.1-0.8,0.6c-0.4,1.5-0.7,3-1.1,4.6c-0.2,0.8-0.4,1.5-0.6,2.3
		c-0.2-0.2-0.2-0.4-0.3-0.6c-0.4-1.9-0.8-3.9-1.2-5.8c-0.2-1.1-0.2-1.1-1.4-1.1c-0.4,0-0.5,0.1-0.4,0.5c0.7,3.1,1.4,6.2,2.1,9.3
		c0.1,0.3,0.2,0.5,0.6,0.5c0.2,0,0.4,0,0.5,0c0.4,0.1,0.6-0.1,0.7-0.5C8.8,23.8,9,23,9.2,22.2c0.4-1.4,0.7-2.8,1.1-4.2
		c0.2,0.1,0.2,0.2,0.2,0.4c0.6,2.1,1.2,4.1,1.7,6.2c0.2,0.8,0.8,0.5,1.2,0.6c0.5,0.1,0.6-0.2,0.7-0.6c0.6-2.9,1.3-5.8,2-8.6
		C16.4,14.8,16.4,14.8,15.3,14.8z"/>
	<path class="st1" d="M42,16.1c0-1.3,0-1.3-1.3-1.3c-0.4,0-0.6,0.1-0.7,0.5c-0.2,0.5-0.4,1-0.5,1.4c-0.8,2-1.5,4-2.3,6
		c-0.2-0.1-0.2-0.3-0.3-0.5c-0.9-2.1-1.7-4.3-2.6-6.4c-0.4-1.1-0.4-1.1-1.6-1.1c-0.4,0-0.6,0.1-0.6,0.6c0,3,0,6.1,0,9.1
		c0,0.6,0.3,0.6,0.7,0.6c0.5,0,0.7-0.1,0.7-0.6c0-2,0-3.9,0-5.9c0-0.2-0.1-0.4,0.1-0.6c0.1,0.2,0.2,0.4,0.3,0.6c0.8,2,1.6,4,2.4,5.9
		c0.1,0.3,0.2,0.7,0.7,0.7s0.6-0.3,0.7-0.6c0.9-2.2,1.7-4.4,2.6-6.6c0.1,0,0.1,0,0.2,0c0,0.2,0,0.4,0,0.6c0,2,0,3.9,0,5.9
		c0,0.7,0.3,0.7,0.8,0.7s0.8,0,0.8-0.7C42,21.6,42,18.8,42,16.1z"/>
	<path class="st1" d="M27.1,17.7c-0.4,0.1-0.8,0.2-1.3,0.4c0-1.2,0-2.4,0-3.5c0-0.2,0.1-0.5-0.1-0.4c-0.4,0-0.8,0.1-1.2,0.3
		c-0.3,0.1-0.1,0.5-0.1,0.7c0,2.5,0,5.1,0,7.6c0,2,0,2,2,2.4c1.9,0.3,3.5-0.5,4-2.2c0.3-1.1,0.3-2.2,0-3.3
		C29.9,18.1,28.7,17.3,27.1,17.7z M28.7,23.1c-0.4,1-1.8,1.5-2.7,1c-0.2-0.1-0.2-0.3-0.2-0.5c0-0.6,0-1.3,0-1.9s0-1.3,0-1.9
		c0-0.4,0.1-0.5,0.5-0.7c1.4-0.6,2.4-0.1,2.7,1.5C29,21.4,29,22.2,28.7,23.1z"/>
	<path class="st1" d="M55.5,17.6c-1.3,0-2.5,0.3-3.6,0.8c-0.3,0.1-0.4,0.3-0.4,0.7c0,0.9,0,1.8,0,2.6c0,0.9,0,1.9,0,2.8
		c0,0.4,0.1,0.5,0.5,0.5c0.2,0,0.3,0,0.5,0c0.5,0.1,0.6-0.1,0.6-0.6c0-1.5,0-3.1,0-4.6c0-0.2-0.1-0.4,0.1-0.6
		c0.7-0.4,1.4-0.6,2.2-0.4c0.7,0.2,0.6,0.9,0.7,1.4c0,1.3,0,2.7,0,4c0,0.5,0.2,0.8,0.7,0.7c0.1,0,0.2,0,0.3,0
		c0.4,0.1,0.6-0.1,0.6-0.5c0-1.6,0-3.2,0-4.8C57.5,18.3,56.9,17.7,55.5,17.6z"/>
	<path class="st1" d="M47.1,17.6c-1.8-0.1-3.1,0.8-3.5,2.6c-0.2,0.7-0.2,1.4,0,2.2c0.3,1.7,1.4,2.8,3.1,2.8c1.8,0.1,3-0.8,3.3-2.6
		c0.1-0.4,0.1-0.8,0.1-1c0-0.4,0-0.6,0-0.9C49.9,18.9,48.8,17.7,47.1,17.6z M48.2,23.4c-0.5,1.1-2.1,1.1-2.7,0
		c-0.3-0.6-0.4-1.3-0.4-1.9c0-0.7,0.1-1.3,0.4-1.9c0.3-0.5,0.7-0.9,1.4-0.9c0.6,0,1.1,0.3,1.4,0.9C48.8,20.8,48.8,22.1,48.2,23.4z"
		/>
	<path class="st1" d="M20.4,17.6c-1.6-0.1-2.8,0.6-3.3,2c-0.4,1.2-0.4,2.4,0,3.6c0.3,1,1,1.6,2.1,1.8c0.9,0.2,1.8,0.2,2.6-0.1
		c1-0.3,1-0.4,0.9-1.5c-0.5,0.2-0.9,0.4-1.3,0.5c-1.6,0.5-2.9-0.3-3-1.8c0-0.4,0.1-0.6,0.5-0.6c0.9,0,1.8,0,2.7,0
		c1.6,0,1.6,0,1.3-1.7C22.6,18.5,21.8,17.7,20.4,17.6z M21.2,20.7c-0.4,0-0.9,0-1.3,0c-0.3,0-0.6,0-0.9,0c-0.7,0-0.8,0-0.5-0.7
		c0.3-0.9,0.9-1.4,1.7-1.3c0.7,0.1,1.3,0.8,1.4,1.7C21.6,20.6,21.5,20.7,21.2,20.7z"/>
	<path class="st1" d="M62.6,17.6c-1.6-0.2-2.9,0.5-3.5,2c-0.4,1-0.4,2.1-0.2,3.2c0.3,1.4,1.2,2.2,2.6,2.4c0.9,0.1,1.8,0,2.6-0.3
		c0.6-0.2,0.7-0.6,0.7-1.1c0-0.3-0.1-0.3-0.4-0.2c-0.4,0.2-0.7,0.4-1.1,0.5c-1.7,0.5-2.9-0.3-3-1.8c0-0.3,0-0.5,0.4-0.5
		c0.7,0,1.3,0,2,0l0,0c0.3,0,0.7,0,1,0c1.4,0,1.4,0,1.2-1.4C64.9,18.8,64,17.8,62.6,17.6z M63.3,20.7c-0.4,0-0.9,0-1.3,0l0,0
		c-0.3,0-0.7,0-1,0c-0.6,0-0.7-0.1-0.5-0.7c0.3-0.9,1-1.5,1.7-1.4c0.8,0.1,1.4,0.8,1.4,1.8C63.7,20.7,63.5,20.7,63.3,20.7z"/>
	<path class="st1" d="M71.5,17.9c-1.1,0-0.8,0-1.1,0.8c-0.4,1.5-0.9,2.9-1.4,4.4c-0.3-0.2-0.3-0.6-0.3-0.6c-0.5-1.4-1-2.8-1.4-4.1
		c-0.1-0.2-0.1-0.4-0.4-0.4c-0.4,0-0.9,0-1.4,0c0.9,2.2,1.7,4.4,2.5,6.5c0.4,1-0.1,2.2-1.2,2.4c-0.7,0.2-0.4,0.7-0.4,1.1
		s0.4,0.2,0.7,0.1c1.3-0.3,1.9-1.4,2.4-2.5c0.8-2,1.5-4,2.2-6c0.2-0.6,0.5-1.1,0.6-1.7C71.9,17.9,71.7,17.9,71.5,17.9z"/>
</g>
</svg>
