<?xml version="1.0" encoding="utf-8"?>
<!-- Generator: Adobe Illustrator 23.0.1, SVG Export Plug-In . SVG Version: 6.00 Build 0)  -->
<svg version="1.1" id="Слой_1" xmlns="http://www.w3.org/2000/svg" xmlns:xlink="http://www.w3.org/1999/xlink" x="0px" y="0px"
	 width="110px" height="40px" viewBox="0 0 110 40" style="enable-background:new 0 0 110 40;" xml:space="preserve">
<style type="text/css">
	.st0{fill:#FFFFFF;}
	.st1{fill:#FECB00;}
	.st2{fill:#D5AA05;}
	.st3{fill:#FE0000;}
</style>
<rect class="st0" width="110" height="40"/>
<g>
	<path class="st1" d="M92.8,23.1c0-2.6,0-5.2,0-7.8c0-0.2,0-0.3-0.3-0.3c-1,0-2.1,0-3.1,0l-3,0v-0.1l0,0c0-3.8,0-7.7,0-11.5
		c-0.1,0.1-0.2,0.2-0.3,0.2c-3.4,2.7-6.8,5.4-10.2,8C75,12.3,74,13,73.1,13.8c-1,1-1.6,2.1-1.6,3.6c0.1,4,0,8,0,12
		c0,1.2,0.9,2.2,2.2,2.2c6.3,0,12.6,0,18.9,0c0.3,0,0.4-0.1,0.4-0.4C92.8,28.5,92.8,25.8,92.8,23.1z"/>
	<path class="st2" d="M86.4,15.3c0,2,0,4,0,6c0,0.2,0,0.3-0.2,0.5c-0.6,0.4-1.1,0.8-1.7,1.2c-2.7,1.8-5.4,3.7-8.1,5.5
		c-0.7,0.5-1.4,0.9-2.1,1.4c0.1,0.1,0.2,0,0.2,0c1-0.3,2-0.6,2.9-0.9c1.8-0.6,3.6-1.2,5.3-1.7c2.1-0.7,4.3-1.4,6.4-2.1
		c0.3-0.1,0.3-0.2,0.3-0.5c0-3.2,0-6.4,0-9.7c-0.1,0-0.2,0-0.4,0c-1,0-1.7,0-2.6,0C86.4,15,86.4,15.2,86.4,15.3z"/>
	<path d="M81.1,17.2c1.1,0,2.2-1.3,2.2-2.4c0-0.7-0.5-1.2-1.2-1.1C81,13.8,80,15.1,80,16.2C80.1,16.9,80.5,17.2,81.1,17.2z"/>
</g>
<g>
	<path d="M33,16.1c-0.3,0-0.7,0-1,0s-0.3,0.1-0.3,0.3c0,1.3,0,2.5,0,3.8c0,0.2,0,0.3-0.3,0.3c-0.6,0-1.3,0-1.9,0
		c-0.3,0-0.4-0.1-0.4-0.4c0-1.2,0-2.5,0-3.7c0-0.3-0.1-0.4-0.3-0.3c-0.3,0-0.7,0-1,0c-0.4,0-0.4,0-0.4,0.4c0,3.1,0,6.2,0,9.3
		c0,0.4,0,0.7,0,1.1c0,0.2,0.1,0.3,0.3,0.3c0.3,0,0.6,0,1,0c0.5,0,0.5,0,0.5-0.5c0-1.5,0-3.1,0-4.6c0-0.2,0-0.3,0.3-0.3
		c0.7,0,1.3,0,2,0c0.2,0,0.3,0.1,0.3,0.3c0,1.6,0,3.1,0,4.7c0,0.3,0.1,0.4,0.4,0.4s0.7,0,1,0s0.4-0.1,0.4-0.4c0-1.7,0-3.5,0-5.2
		s0-3.5,0-5.2C33.3,16.2,33.2,16.1,33,16.1z"/>
	<path d="M57.8,26.8C56.9,25,56,23.2,55,21.4c-0.1-0.2-0.1-0.4,0-0.6c0.8-1.5,1.6-2.9,2.4-4.4c0.2-0.3,0.1-0.3-0.2-0.3s-0.7,0-1,0
		c-0.4,0-0.6,0.1-0.8,0.5c-0.6,1.3-1.3,2.7-1.9,4c-0.1,0.2-0.1,0.4-0.3,0.5c0-0.1,0-0.2,0-0.3c0-1.5,0-2.9,0-4.4
		c0-0.3-0.1-0.4-0.4-0.4c-0.3,0-0.7,0-1,0s-0.4,0.1-0.4,0.4c0,3.4,0,6.9,0,10.3c0,0.1,0,0.1,0,0.2c0,0.2,0.1,0.2,0.2,0.2
		c0.4,0,0.7,0,1.1,0c0.3,0,0.4-0.1,0.4-0.4c0-1.6,0-3.3,0-4.9c0-0.1,0-0.2,0-0.3c0,0,0,0,0.1,0c0.1,0.2,0.2,0.3,0.2,0.5
		c0.8,1.6,1.5,3.2,2.3,4.7c0.1,0.2,0.3,0.4,0.6,0.4c0.5,0,1,0,1.5,0c0.2,0,0.2-0.1,0.1-0.2C57.9,27,57.9,26.9,57.8,26.8z"/>
	<path d="M64.4,26.1c-0.1-0.5-0.1-0.5-0.5-0.3c-0.5,0.1-1,0.2-1.5,0.1c-1.1-0.1-1.6-0.9-1.9-1.8c-0.5-1.5-0.4-3-0.1-4.5
		c0.1-0.7,0.3-1.3,0.8-1.9c0.4-0.5,0.9-0.6,1.4-0.3c0.2,0.1,0.5,0.3,0.7,0.5c0.2,0.1,0.3,0.1,0.4,0c0.2-0.3,0.4-0.7,0.6-1
		c0.1-0.2,0.1-0.3-0.1-0.4c-0.3-0.1-0.6-0.3-0.9-0.4c-1.5-0.5-2.7-0.1-3.6,1.2c-0.2,0.3-0.4,0.7-0.6,1.1c-0.5,1.2-0.7,2.5-0.7,4.1
		c0,0.5,0.1,1.3,0.3,2.1c0.3,1,0.8,1.9,1.7,2.4c1.2,0.7,2.4,0.6,3.6,0C64.5,26.8,64.5,26.8,64.4,26.1z"/>
	<path class="st3" d="M25.1,11c0-0.3-0.1-0.4-0.4-0.4c-0.8,0-1.6,0-2.5,0c-1.6,0-2.9,0.7-3.7,2.1c-0.6,1-0.8,2.2-0.8,3.3
		c0,2,0.7,3.7,2.6,4.6c0.2,0.1,0.2,0.2,0.1,0.3c-0.2,0.4-0.4,0.7-0.6,1.1c-0.9,1.5-1.7,3.1-2.6,4.6c-0.2,0.4-0.1,0.5,0.3,0.5
		s0.9,0,1.3,0c0.2,0,0.3-0.1,0.4-0.3c0.9-1.8,1.8-3.5,2.7-5.3c0.2-0.5,0.5-0.8,1.1-0.7c0.3,0,0.4,0.1,0.4,0.4c0,1.8,0,3.7,0,5.5
		c0,0.3,0.1,0.4,0.3,0.3c0.3,0,0.7,0,1,0s0.4-0.1,0.4-0.4c0-2.6,0-5.3,0-7.9C25.1,16.3,25.1,13.6,25.1,11z M23.4,13c0,1,0,1.9,0,2.9
		c0,1.2,0,2.3,0,3.5c0,0.2,0,0.3-0.3,0.3c-0.4,0-0.8,0-1.2,0c-1-0.2-1.7-0.9-2-1.8c-0.5-1.4-0.4-2.8,0.2-4.2c0.4-1,1.2-1.6,2.4-1.5
		c0.3,0,0.7-0.1,0.9,0.1C23.5,12.3,23.4,12.7,23.4,13z"/>
	<path d="M42.1,25.8c-0.5,0-0.5-0.1-0.5-0.6c0-1.5,0-2.9,0-4.4s0-3,0-4.5c0-0.3-0.1-0.3-0.3-0.3c-1.3,0-2.7,0-4,0
		c-0.3,0-0.4,0.1-0.4,0.4c0,1.6,0,3.2-0.2,4.8c-0.2,1.4-0.5,2.9-1.1,4.2c-0.1,0.3-0.3,0.4-0.6,0.4c-0.2,0-0.3,0-0.3,0.3
		c0,1,0,2.1,0,3.1c0,0.2,0.1,0.3,0.3,0.2c0.3,0,0.6,0,0.9,0c0.3,0,0.4-0.1,0.4-0.4c0-0.5,0-1,0-1.5c0-0.2,0-0.3,0.2-0.3
		c1.4,0,2.8,0,4.3,0c0.2,0,0.2,0.1,0.2,0.2c0,0.6,0,1.1,0,1.7c0,0.2,0.1,0.3,0.3,0.3c0.3,0,0.6,0,0.9,0c0.4,0,0.4-0.1,0.4-0.5
		c0-0.9,0-1.9,0-2.8C42.4,25.9,42.3,25.8,42.1,25.8z M39.8,21.7c0,1.3,0,2.5,0,3.8c0,0.2,0,0.3-0.3,0.3c-0.9,0-1.7,0-2.6,0
		c-0.2,0-0.3,0-0.1-0.2c1.1-1.9,1.4-4,1.6-6.2c0-0.6,0.1-1.1,0.1-1.7c0-0.1,0.1-0.2,0.2-0.2c0,0,0,0,0.1,0c0.4,0,0.9-0.1,1.1,0.1
		c0,0,0,0.7,0,1.1C39.9,18.7,39.8,20.7,39.8,21.7z"/>
	<path d="M49.7,20.6c0-1-0.2-2-0.5-2.9c-0.4-0.9-1-1.7-2.1-1.9c-0.5-0.1-0.6-0.1-1.1,0c-1,0.3-1.6,1-2,1.9c-0.5,1.1-0.7,2.3-0.8,3.5
		c-0.1,1.3,0,2.6,0.5,3.9c0.4,1,1,1.8,2,2.1c1.3,0.5,2.6,0.2,3.8-0.5c0.1-0.1,0.1-0.1,0.1-0.2c-0.1-0.3-0.1-0.5-0.2-0.8
		c0-0.1-0.2-0.1-0.3-0.1c-0.4,0.1-0.8,0.2-1.2,0.2c-0.2,0-0.5,0-0.7,0c-0.1,0-0.1,0-0.2-0.1c-0.4-0.1-0.8-0.3-1.1-0.7
		c-0.6-0.7-0.7-1.6-0.8-2.4c0.1-0.2,0-0.5,0.1-0.7c0.3,0.1,0.6,0,1,0.1c1.2,0,2.4,0,3.6,0c0.1-0.1,0-0.2,0-0.3
		C49.7,21.4,49.7,21,49.7,20.6z M47.6,20.7c-0.3,0-1.9-0.1-2.3,0c-0.2,0-0.2,0-0.2-0.2c0.1-0.9,0.2-1.8,0.6-2.6
		c0.2-0.3,0.4-0.6,0.8-0.7c0.3,0,0.6,0.1,0.7,0.4c0.2,0.4,0.4,0.8,0.5,1.3s0.2,1,0.2,1.5C47.9,20.6,47.9,20.7,47.6,20.7z"/>
</g>
</svg>
