<?xml version="1.0" encoding="utf-8"?>
<!-- Generator: Adobe Illustrator 23.0.1, SVG Export Plug-In . SVG Version: 6.00 Build 0)  -->
<svg version="1.1" id="Слой_1" xmlns="http://www.w3.org/2000/svg" xmlns:xlink="http://www.w3.org/1999/xlink" x="0px" y="0px"
	 width="110px" height="40px" viewBox="0 0 110 40" style="enable-background:new 0 0 110 40;" xml:space="preserve">
<style type="text/css">
	.st0{fill:#FFFFFF;}
	.st1{fill:#47B153;}
	.st2{fill:#EB001B;}
	.st3{fill:#F79E1B;}
	.st4{fill:#FF5F00;}
	.st5{fill:none;}
	.st6{fill:#231F20;}
	.st7{fill:#30A923;}
	.st8{fill:url(#SVGID_1_);}
	.st9{fill:#074F86;}
	.st10{fill:#075086;}
	.st11{fill:#EAB41A;}
	.st12{fill:#D5B345;}
	.st13{fill:#084F86;}
</style>
<rect class="st0" width="110" height="40"/>
<g>
	<path class="st1" d="M22.6,14.6c-0.1-0.2-0.1-0.2-0.2-0.1C18.2,17,14,19.4,9.7,21.8c-0.1,0.1-0.2,0.1-0.3,0
		c-1.6-0.9-3.1-1.8-4.7-2.7c-0.4-0.2-0.8-0.5-1.3-0.7c0,0.8,0,1.7,0.2,2.5c0.9,4.9,4.9,7.6,8.6,8.2c1.7,0.2,3.4,0,5.1-0.6
		c2.7-1.1,4.7-3,5.7-5.8c0.7-1.9,0.9-3.8,0.4-5.8C23.2,16.1,22.9,15.3,22.6,14.6z"/>
	<path class="st1" d="M3.7,17.3c1.9,1.1,3.8,2.2,5.7,3.2c0.1,0.1,0.2,0.1,0.3,0c2.7-1.5,5.3-3,8-4.6c1.4-0.8,2.7-1.6,4.1-2.4
		c0.1-0.1,0.1-0.1,0-0.2c-0.2-0.2-0.3-0.4-0.5-0.6c-0.1-0.1-0.1-0.1-0.3,0c-3.8,2.2-7.6,4.4-11.5,6.6c-0.1,0.1-0.2,0.1-0.3,0
		c-1.5-0.8-3-1.7-4.4-2.5c-0.3-0.2-0.7-0.4-1-0.6c0,0-0.1-0.1-0.1,0c-0.1,0.3-0.2,0.6-0.2,1C3.6,17.2,3.7,17.2,3.7,17.3z"/>
	<path class="st1" d="M9.4,18c0.1,0.1,0.2,0.1,0.3,0c2.6-1.5,5.1-2.9,7.7-4.4c1-0.6,2-1.1,3-1.7c0,0,0.1,0,0.1-0.1
		c0,0,0-0.1-0.1-0.1c-0.2-0.2-0.5-0.4-0.7-0.6c-0.1-0.1-0.1-0.1-0.2,0c-3.3,1.9-6.6,3.7-9.8,5.6c-0.1,0.1-0.2,0.1-0.3,0
		c-1.5-0.9-3-1.7-4.5-2.6c-0.1-0.1-0.2,0-0.2,0.1c-0.1,0.2-0.2,0.5-0.3,0.7c-0.1,0.1,0,0.2,0.1,0.3C6.1,16.1,7.8,17.1,9.4,18z"/>
	<path class="st1" d="M9.5,15.5c0.1,0.1,0.2,0,0.2,0c2.8-1.6,5.6-3.2,8.4-4.8c0.2-0.1,0.3-0.2,0.5-0.3c-0.4-0.2-0.7-0.3-1-0.5
		c-0.1-0.1-0.2-0.1-0.3,0c-2.5,1.5-5.1,2.9-7.6,4.4c-0.1,0-0.1,0-0.2,0c-1.1-0.6-2.2-1.2-3.3-1.9c-0.1-0.1-0.1-0.1-0.2,0
		c-0.2,0.2-0.4,0.4-0.5,0.7c-0.1,0.1-0.1,0.1,0,0.2C6.8,14,8.1,14.7,9.5,15.5z"/>
</g>
<g>
	<g>
		<circle class="st2" cx="38.2" cy="18.8" r="10.2"/>
		<circle class="st3" cx="48.8" cy="18.8" r="10.2"/>
		<path class="st4" d="M38.6,18.8c0,3.7,2,6.9,4.9,8.7c2.9-1.8,4.9-5,4.9-8.7c0-3.7-2-6.9-4.9-8.7C40.5,11.8,38.6,15.1,38.6,18.8z"
			/>
	</g>
	<g>
		<path class="st5" d="M34.9,31.8c-0.4,0-0.8,0.2-0.9,0.6c0,0.1,0,0.2,0,0.3c0,0.1,0,0.2,0,0.3c0.1,0.4,0.4,0.6,0.8,0.6
			c0.4,0,0.7-0.2,0.8-0.6c0-0.2,0.1-0.3,0-0.5C35.6,32.1,35.3,31.8,34.9,31.8z"/>
		<path class="st5" d="M51.6,31.8c-0.4,0-0.8,0.2-0.9,0.6c0,0.1,0,0.2,0,0.2c0,0.1,0,0.2,0,0.3c0.1,0.4,0.4,0.6,0.8,0.6
			c0.4,0,0.7-0.2,0.8-0.6c0-0.2,0.1-0.3,0-0.5C52.2,32.1,51.9,31.8,51.6,31.8z"/>
		<path class="st5" d="M43.5,31.8c-0.4,0-0.7,0.3-0.7,0.6c0.5,0,0.9,0,1.4,0C44.2,32,43.9,31.8,43.5,31.8z"/>
		<path class="st5" d="M57,31.8c-0.4,0-0.8,0.2-0.9,0.6c0,0.1,0,0.2,0,0.3c0,0.1,0,0.2,0,0.3c0.1,0.3,0.4,0.6,0.8,0.6
			c0.4,0,0.7-0.2,0.8-0.6c0-0.1,0.1-0.3,0-0.5C57.7,32.1,57.4,31.8,57,31.8z"/>
		<path class="st6" d="M32.9,32.2c0-0.5-0.3-0.9-0.9-1c-0.4-0.1-0.8,0-1.1,0.4c0,0,0,0,0,0c-0.2-0.3-0.5-0.5-0.8-0.5
			c-0.3,0-0.6,0.1-0.9,0.4c0,0,0,0,0,0c0-0.1,0-0.1,0-0.2c0,0,0-0.1-0.1-0.1c-0.2,0-0.3,0-0.5,0c-0.1,0-0.1,0-0.1,0.1c0,0,0,0,0,0.1
			c0,0.8,0,1.6,0,2.4c0,0,0,0.1,0,0.1c0,0,0,0.1,0.1,0.1c0.2,0,0.3,0,0.5,0c0,0,0.1,0,0.1-0.1c0,0,0-0.1,0-0.1c0-0.4,0-0.8,0-1.3
			c0-0.1,0-0.2,0-0.3c0-0.3,0.2-0.5,0.5-0.5c0.4-0.1,0.7,0.1,0.7,0.5c0,0.1,0,0.2,0,0.2c0,0.4,0,0.9,0,1.3c0,0.1,0,0.1,0.1,0.1
			c0.1,0,0.3,0,0.4,0c0.1,0,0.1,0,0.1-0.1c0-0.4,0-0.8,0-1.3c0-0.1,0-0.2,0-0.2c0-0.3,0.3-0.7,0.8-0.6c0.2,0,0.3,0.1,0.4,0.3
			c0,0.1,0.1,0.2,0.1,0.2c0,0.1,0,0.2,0,0.3c0,0.4,0,0.8,0,1.3c0,0.1,0,0.1,0.1,0.1c0.1,0,0.2,0,0.3,0c0.2,0,0.2,0,0.2-0.2
			c0-0.4,0-0.8,0-1.2C32.9,32.5,32.9,32.4,32.9,32.2z"/>
		<path class="st6" d="M58.3,30.2c-0.1,0-0.3,0-0.4,0c-0.1,0-0.1,0-0.1,0.1c0,0.4,0,0.8,0,1.2c0,0,0,0.1,0,0.1
			c-0.1-0.2-0.3-0.3-0.5-0.3c-0.5-0.2-1.1,0-1.4,0.5c-0.4,0.5-0.4,1-0.2,1.5c0.3,0.8,1.5,1.1,2.1,0.4c0,0.1,0,0.2,0,0.2
			c0,0.1,0,0.1,0.1,0.1c0.1,0,0.3,0,0.4,0c0.1,0,0.1,0,0.1-0.1c0,0,0,0,0-0.1c0-1.2,0-2.3,0-3.5C58.3,30.4,58.3,30.3,58.3,30.2
			C58.3,30.2,58.3,30.2,58.3,30.2z M57.7,33c-0.1,0.4-0.4,0.6-0.8,0.6c-0.4,0-0.7-0.2-0.8-0.6c0-0.1,0-0.2,0-0.3c0-0.1,0-0.2,0-0.3
			c0.1-0.4,0.4-0.6,0.9-0.6c0.4,0,0.7,0.3,0.7,0.7C57.8,32.7,57.8,32.8,57.7,33z"/>
		<path class="st6" d="M52.9,31.4C52.9,31.3,52.8,31.3,52.9,31.4c-0.2-0.1-0.4-0.1-0.5-0.1c-0.1,0-0.1,0-0.1,0.1c0,0.1,0,0.1,0,0.2
			c-0.1,0-0.1,0-0.1-0.1c-0.1-0.1-0.3-0.2-0.5-0.3c-0.4-0.1-0.8,0-1.1,0.2c-0.3,0.2-0.5,0.6-0.5,1c-0.1,0.5,0.1,0.9,0.4,1.3
			c0.5,0.4,1.3,0.5,1.7,0c0,0,0,0,0,0.1c0,0.1,0,0.1,0,0.2c0,0.1,0,0.1,0.1,0.1c0.1,0,0.3,0,0.4,0c0.1,0,0.1,0,0.1-0.1
			c0,0,0-0.1,0-0.1C52.9,33.1,52.9,32.3,52.9,31.4C52.9,31.4,52.9,31.4,52.9,31.4z M52.3,33c-0.1,0.4-0.4,0.6-0.8,0.6
			c-0.4,0-0.7-0.2-0.8-0.6c0-0.1,0-0.2,0-0.3c0-0.1,0-0.2,0-0.2c0.1-0.4,0.4-0.6,0.9-0.6c0.4,0,0.7,0.3,0.7,0.7
			C52.3,32.7,52.3,32.8,52.3,33z"/>
		<path class="st6" d="M36.2,31.3c-0.2,0-0.3,0-0.5,0c0,0-0.1,0-0.1,0.1c0,0.1,0,0.1,0,0.2c-0.1,0-0.1-0.1-0.1-0.1
			c-0.1-0.1-0.3-0.2-0.4-0.2c-0.5-0.1-1,0-1.4,0.4c-0.4,0.5-0.4,1.3,0,1.9c0.5,0.6,1.4,0.7,1.9,0.1c0,0,0,0,0,0c0,0.1,0,0.1,0,0.2
			c0,0,0,0.1,0.1,0.1c0.2,0,0.3,0,0.5,0c0,0,0.1,0,0.1-0.1c0,0,0-0.1,0-0.1c0-0.8,0-1.6,0-2.4C36.2,31.4,36.2,31.4,36.2,31.3
			C36.2,31.3,36.2,31.3,36.2,31.3z M35.6,33c-0.1,0.4-0.4,0.6-0.8,0.6c-0.4,0-0.7-0.2-0.8-0.6c0-0.1,0-0.2,0-0.3c0-0.1,0-0.2,0-0.3
			c0.1-0.4,0.4-0.6,0.9-0.6c0.4,0,0.7,0.3,0.7,0.7C35.7,32.7,35.7,32.8,35.6,33z"/>
		<path class="st6" d="M43.7,31.3c-0.6-0.1-1.2,0.2-1.4,0.8c-0.1,0.3-0.1,0.6-0.1,0.9c0.1,0.5,0.5,0.9,1,1.1c0.4,0.1,0.7,0,1.1-0.1
			c0.1,0,0.2-0.1,0.3-0.2c0,0,0.1-0.1,0-0.1c-0.1-0.1-0.2-0.2-0.2-0.4c0,0,0,0,0,0c0,0-0.1,0-0.1,0.1c-0.2,0.2-0.5,0.2-0.8,0.2
			c-0.4,0-0.6-0.3-0.7-0.6c0,0,0.1,0,0.1,0c0.6,0,1.1,0,1.7,0c0,0,0.1,0,0.1,0c0.1,0,0.1,0,0.1-0.1c0-0.2,0-0.3,0-0.5
			C44.7,31.8,44.3,31.3,43.7,31.3z M42.8,32.4c0-0.4,0.3-0.6,0.7-0.6c0.4,0,0.7,0.2,0.7,0.6C43.7,32.4,43.3,32.4,42.8,32.4z"/>
		<path class="st6" d="M38.8,32.5c-0.1,0-0.2-0.1-0.3-0.1c-0.1,0-0.3-0.1-0.4-0.1c-0.1,0-0.3,0-0.4-0.1c-0.2-0.1-0.2-0.3-0.1-0.4
			c0.1,0,0.1-0.1,0.2-0.1c0.2,0,0.3,0,0.5,0c0.2,0,0.4,0.1,0.5,0.2c0,0,0.1,0,0.1,0c0.1-0.1,0.2-0.3,0.2-0.4
			c-0.1-0.1-0.1-0.1-0.2-0.1c-0.4-0.2-0.7-0.2-1.1-0.2c-0.2,0-0.4,0.1-0.6,0.2c-0.4,0.3-0.5,1,0.1,1.3c0,0,0.1,0,0.1,0.1
			c0.2,0.1,0.3,0.1,0.5,0.1c0.1,0,0.3,0,0.4,0.1c0.1,0,0.2,0.1,0.2,0.2c0,0.1,0,0.2-0.1,0.2c-0.1,0.1-0.2,0.1-0.3,0.1
			c-0.4,0-0.8,0-1.1-0.3c-0.1,0.1-0.1,0.2-0.2,0.3c-0.1,0.1-0.1,0.1,0,0.2c0,0,0.1,0.1,0.2,0.1c0.4,0.2,0.9,0.2,1.4,0.1
			c0.2,0,0.4-0.1,0.5-0.2C39.3,33.5,39.4,32.8,38.8,32.5z"/>
		<path class="st6" d="M41.6,33.4c-0.2,0.1-0.3,0.1-0.5,0.1c-0.2,0-0.3-0.1-0.3-0.3c0-0.1,0-0.1,0-0.2c0-0.3,0-0.7,0-1
			c0,0,0-0.1,0-0.1c0,0,0-0.1,0.1-0.1c0,0,0.1,0,0.1,0c0.2,0,0.5,0,0.7,0c0.1,0,0.1,0,0.1-0.1c0-0.1,0-0.2,0-0.3
			c0-0.1,0-0.1-0.1-0.1c-0.2,0-0.5,0-0.7,0c-0.1,0-0.1,0-0.1-0.1c0-0.2,0-0.4,0-0.6c0-0.1,0-0.1-0.1-0.1c-0.1,0-0.3,0-0.4,0
			c-0.1,0-0.1,0-0.1,0.1c0,0.2,0,0.4,0,0.6c0,0.1,0,0.1-0.1,0.1c-0.1,0-0.2,0-0.3,0c-0.1,0-0.1,0-0.1,0.1c0,0.1,0,0.2,0,0.3
			c0,0.1,0,0.1,0.1,0.1c0.1,0,0.3,0,0.4,0c0,0,0.1,0,0.1,0.1c0,0,0,0.1,0,0.1c0,0.4,0,0.8,0,1.1c0,0.1,0,0.3,0.1,0.4
			c0.1,0.3,0.2,0.4,0.5,0.5c0.2,0.1,0.4,0.1,0.6,0c0.2,0,0.3-0.1,0.5-0.2c0,0,0.1,0,0-0.1C41.8,33.7,41.7,33.5,41.6,33.4
			C41.6,33.4,41.6,33.4,41.6,33.4z"/>
		<path class="st6" d="M48.7,31.8c0.2,0,0.5,0.1,0.7,0.2c0.1,0,0.1,0,0.1,0c0.1-0.1,0.1-0.2,0.2-0.3c0-0.1,0-0.1,0-0.1
			c-0.2-0.1-0.4-0.2-0.6-0.2c-0.3,0-0.5,0-0.8,0c-0.6,0.2-1,0.7-1,1.4c0,0,0,0.1,0,0.1c0,0.5,0.4,1,0.9,1.2c0.3,0.1,0.5,0.1,0.8,0.1
			c0.2,0,0.4-0.1,0.6-0.2c0.1,0,0.1-0.1,0-0.1c-0.1-0.1-0.1-0.2-0.2-0.3c-0.1-0.1-0.1-0.1-0.1,0c-0.2,0.1-0.4,0.2-0.6,0.2
			c-0.4,0-0.7-0.2-0.8-0.6c0-0.1,0-0.3,0-0.4C48,32.1,48.3,31.8,48.7,31.8z"/>
		<path class="st6" d="M55.3,31.3c-0.1,0-0.2-0.1-0.4-0.1c-0.2,0-0.5,0.1-0.6,0.3c0,0,0,0-0.1,0.1c0,0,0,0,0,0c0-0.1,0-0.1,0-0.2
			c0-0.1,0-0.1-0.1-0.1c-0.1,0-0.3,0-0.4,0c-0.1,0-0.1,0-0.1,0.1c0,0.5,0,1,0,1.5c0,0.3,0,0.7,0,1c0,0.1,0,0.1,0.1,0.1
			c0.1,0,0.2,0,0.3,0c0.2,0,0.1,0,0.1-0.1c0-0.4,0-0.9,0-1.3c0-0.1,0-0.2,0-0.3c0.1-0.3,0.2-0.5,0.6-0.5c0.1,0,0.2,0,0.3,0
			c0,0,0.1,0,0.1,0C55.2,31.7,55.3,31.5,55.3,31.3C55.4,31.3,55.3,31.3,55.3,31.3z"/>
		<path class="st6" d="M46,31.6c0-0.1,0-0.1,0-0.2c0,0,0-0.1-0.1-0.1c-0.2,0-0.3,0-0.5,0c0,0-0.1,0-0.1,0.1c0,0,0,0.1,0,0.1
			c0,0.8,0,1.6,0,2.4c0,0,0,0.1,0,0.1c0,0,0,0.1,0.1,0.1c0.2,0,0.3,0,0.5,0c0,0,0.1,0,0.1-0.1c0,0,0-0.1,0-0.1c0-0.4,0-0.9,0-1.3
			c0-0.1,0-0.2,0-0.4c0.1-0.2,0.2-0.3,0.5-0.4c0.1,0,0.2,0,0.4,0c0.1,0,0.1,0,0.1,0c0-0.1,0.1-0.3,0.1-0.4c0-0.1,0-0.1-0.1-0.1
			C46.7,31.2,46.4,31.2,46,31.6z"/>
	</g>
</g>
<g>
	<path class="st7" d="M64.7,11.5c0-2,0-3.9,0-5.9c0-0.1,0-0.2,0.2-0.2c1.3,0,2.5,0,3.8,0c0.9,0,1.6,0.6,1.8,1.3
		c0.6,1.9,1.2,3.8,1.7,5.7c0,0.1,0.1,0.3,0.2,0.3s0.2-0.2,0.2-0.3c0.6-1.9,1.2-3.8,1.8-5.7c0.2-0.8,0.9-1.3,1.7-1.3
		c1.3,0,2.6,0,3.9,0c0.1,0,0.1,0,0.1,0.1c0,3.9,0,7.8,0,11.8c0,0.1,0,0.1-0.1,0.1c-1.1,0-2.3,0-3.4,0c-0.1,0-0.1,0-0.1-0.2
		c0-2.2,0-4.4,0-6.6c0-0.1,0-0.1,0-0.2c0-0.1-0.1-0.2-0.2-0.3c-0.1,0-0.2,0-0.3,0.2c-0.1,0.2-0.1,0.5-0.2,0.7
		c-0.6,2.1-1.3,4.2-1.9,6.2c0,0.1-0.1,0.1-0.2,0.1c-0.8,0-1.6,0-2.4,0c-0.1,0-0.2,0-0.2-0.1c-0.4-1.2-0.7-2.4-1.1-3.6
		c-0.3-1.1-0.7-2.2-1-3.3c0-0.1-0.2-0.2-0.3-0.2c-0.1,0-0.2,0.1-0.2,0.3c0,0.8,0,1.5,0,2.3c0,1.5,0,3,0,4.6c0,0.1,0,0.1-0.1,0.1
		c-1.1,0-3.7,0-3.7,0C64.7,17.4,64.7,13.4,64.7,11.5z"/>
	<path class="st7" d="M93.8,11.5c0,2,0,3.9,0,5.9c0,0.1,0,0.2-0.2,0.2c-1.1,0-2.2,0-3.4,0c-0.1,0-0.2,0-0.2-0.2c0-2.3,0-4.6,0-6.9
		v-0.1c0-0.1-0.1-0.2-0.2-0.3c-0.1,0-0.2,0-0.3,0.2c-0.1,0.3-0.3,0.6-0.4,0.9c-0.9,1.8-1.7,3.6-2.6,5.5c-0.2,0.5-0.7,0.8-1.3,0.8
		c-1.1,0-2.3,0-3.4,0c-0.1,0-0.1,0-0.1-0.2c0-3.9,0-7.8,0-11.7c0-0.1,0-0.2,0.2-0.2c1.1,0,2.2,0,3.3,0c0.1,0,0.2,0,0.2,0.2
		c0,2.2,0,4.5,0,6.7v0.1c0,0.1,0.1,0.3,0.2,0.3s0.2-0.1,0.3-0.2c0.3-0.7,0.6-1.4,1-2.1c0.6-1.4,1.3-2.8,2-4.2
		c0.3-0.5,0.7-0.8,1.3-0.8c1.1,0,2.3,0,3.4,0c0.1,0,0.2,0,0.2,0.2C93.8,7.6,93.8,9.5,93.8,11.5z"/>
	<path class="st7" d="M101.5,10.9c1.9,0,3.8,0,5.7,0c0.1,0,0.2,0,0.1,0.1c-0.7,1.5-1.8,2.3-3.4,2.5c-0.4,0-0.8,0-1.1,0
		c-1.1,0-2.1,0-3.2,0c-0.1,0-0.2,0-0.2,0.2c0,1.2,0,2.4,0,3.6c0,0.1,0,0.2-0.2,0.2c-1.1,0-2.3,0-3.4,0c-0.1,0-0.1,0-0.1-0.1
		c0-2.1,0-4.2,0-6.4c0-0.1,0.1-0.1,0.2-0.1C97.7,10.9,99.6,10.9,101.5,10.9z"/>
	
		<linearGradient id="SVGID_1_" gradientUnits="userSpaceOnUse" x1="95.1413" y1="32.15" x2="107.526" y2="32.15" gradientTransform="matrix(1 0 0 -1 0 40)">
		<stop  offset="0" style="stop-color:#06AAEA"/>
		<stop  offset="0.2408" style="stop-color:#049DDC"/>
		<stop  offset="1" style="stop-color:#0077B2"/>
	</linearGradient>
	<path class="st8" d="M106.7,7c-0.9-1.2-2.2-1.6-3.7-1.6c-0.1,0-0.1,0-0.2,0c-0.8,0-1.6,0-2.4,0c-0.3,0-0.6,0-0.9,0h-0.1
		c-1.1,0-2.1,0-3.2,0c-0.3,0-0.6,0-0.9,0c-0.1,0-0.1,0-0.1,0.1c0,0.2,0,0.3,0.1,0.5c0.2,0.8,0.5,1.5,1.1,2.1
		c0.7,0.8,1.5,1.4,2.4,1.7l0,0l0,0c0.3,0.1,0.6,0.2,0.9,0.3c0.1,0,0.3,0.1,0.4,0.1s0.4,0.1,1.2,0.1c2,0,4.1,0,6.1,0h0.1
		c0.1-0.1,0.1-0.3,0.1-0.4C107.6,8.8,107.3,7.8,106.7,7z M102.9,10.2L102.9,10.2L102.9,10.2L102.9,10.2z"/>
</g>
<g>
	<path class="st9" d="M92.9,24.7c-0.9-0.4-1.7-0.7-2.7-0.8c-0.4-0.1-0.8-0.1-1.2,0c-0.4,0.1-0.8,0.3-0.9,0.7
		C88,25,88,25.4,88.3,25.8c0.4,0.4,0.8,0.6,1.3,0.8c0.4,0.2,0.7,0.4,1.1,0.6c1.9,1.2,2.3,3.6,1,5.4c-0.6,0.8-1.3,1.3-2.2,1.7
		c-2,0.7-4,0.9-6,0.4c-0.4-0.1-0.7-0.3-1.1-0.4c-0.2-0.1-0.2-0.2-0.2-0.4c0.2-0.8,0.5-1.7,0.7-2.5c0.1-0.2,0.1-0.3,0.4-0.1
		c1,0.7,2.2,1.1,3.4,0.9c0.4,0,0.8-0.1,1.2-0.3c0.6-0.3,1-1.2,0.2-1.8c-0.4-0.3-0.9-0.6-1.3-0.9c-0.4-0.2-0.8-0.5-1.2-0.8
		c-2.3-1.7-1.7-4.4,0-5.7c0.9-0.7,2-1.1,3.2-1.3c1.4-0.2,2.9-0.1,4.2,0.4c0.2,0.1,0.3,0.2,0.3,0.4C93.2,22.9,93.1,23.8,92.9,24.7z"
		/>
	<path class="st9" d="M70.8,28.7c0,0.4,0.1,0.7,0.2,1.1c0.1-0.1,0.2-0.3,0.2-0.4c1.1-2.6,2.2-5.2,3.3-7.7c0.1-0.2,0.2-0.3,0.4-0.3
		c1.1,0,2.2,0,3.2,0c0.2,0,0.3,0,0.2,0.3c-1.7,3.6-3.3,7.1-5,10.7c-0.3,0.6-0.6,1.2-1.1,1.7c-0.4,0.4-0.9,0.7-1.5,0.7s-1.1,0-1.7,0
		c-0.2,0-0.3,0-0.3-0.2c-0.5-3-1.1-5.9-1.6-8.9c-0.1-0.7-0.2-1.3-0.3-2c0.1-0.1,0.2,0,0.3,0c1.6,0.8,2.8,2.1,3.5,3.8
		C70.6,27.8,70.7,28.2,70.8,28.7z"/>
	<path class="st10" d="M78.5,34.7c-0.5,0-1,0-1.4,0c-0.2,0-0.3-0.1-0.2-0.3c0.6-2.8,1.2-5.6,1.8-8.4c0.3-1.4,0.6-2.8,0.9-4.2
		c0.1-0.3,0.2-0.4,0.5-0.4c0.9,0,1.8,0,2.7,0c0.2,0,0.3,0,0.3,0.3c-0.7,3.3-1.4,6.6-2.2,9.9c-0.2,1-0.4,1.9-0.6,2.9
		c0,0.2-0.1,0.3-0.3,0.3C79.5,34.7,79,34.7,78.5,34.7z"/>
	<g>
		<path class="st11" d="M70.5,26.7L70.5,26.7L70.5,26.7c-0.2-1.7-0.5-3.4-0.7-5.2c0-0.2-0.1-0.2-0.3-0.2c-1.9,0-3.8,0-5.7,0
			c-0.2,0-0.3,0.1-0.3,0.3c-0.1,0.3-0.1,0.6-0.2,0.8c-0.1,0.2,0,0.3,0.2,0.3c0.6,0,1.2,0.2,1.8,0.3c0.5,0.1,0.9,0.3,1.3,0.5
			c0.3,0.1,0.6,0.3,0.8,0.4c1.3,0.8,2.3,1.9,2.9,3.4c0.1,0.1,0.1,0.1,0.2,0.2C70.6,27.3,70.4,27,70.5,26.7z"/>
		<path class="st12" d="M70.5,26.7L70.5,26.7c-0.1,0.3,0.1,0.6,0,0.9c-0.1-0.1-0.1-0.2-0.2-0.2c0.1,0.4,0.3,0.8,0.4,1.2
			C70.7,28,70.7,27.4,70.5,26.7z"/>
	</g>
	<path class="st13" d="M104.4,34.4c-0.2-1.4-0.5-2.9-0.7-4.4c-0.4-2.8-0.9-5.6-1.3-8.4c0-0.2-0.1-0.3-0.3-0.3c-0.8,0-1.6,0-2.4,0
		c-0.6,0-1,0.2-1.4,0.6c-0.5,0.5-0.8,1.1-1.1,1.7c-1.4,2.9-2.7,5.7-4,8.6c-0.4,0.8-0.7,1.6-1.1,2.3h0.1c1.2,0,2.4,0,3.6,0
		c0.2,0,0.2-0.1,0.2-0.2c0.3-0.7,0.6-1.3,0.8-2c0.1-0.2,0.2-0.2,0.3-0.2c1.1,0,2.2,0,3.3,0c0.2,0,0.2,0.1,0.3,0.2
		c0.1,0.7,0.2,1.3,0.3,2c0,0.2,0.1,0.2,0.3,0.2c1,0,2,0,3.1,0C104.4,34.7,104.4,34.7,104.4,34.4z M99.8,29.5c-0.3,0-0.6,0-0.9,0l0,0
		c-0.3,0-0.6,0-0.9,0c-0.2,0-0.2-0.1-0.2-0.2c0.5-1.1,0.9-2.3,1.4-3.4c0-0.1,0-0.2,0.1-0.2s0.1,0.1,0.1,0.2c0.2,1.1,0.3,2.3,0.5,3.4
		C100.1,29.4,100,29.5,99.8,29.5z"/>
</g>
</svg>
