<?xml version="1.0" encoding="utf-8"?>
<!-- Generator: Adobe Illustrator 23.0.1, SVG Export Plug-In . SVG Version: 6.00 Build 0)  -->
<svg version="1.1" id="Слой_1" xmlns="http://www.w3.org/2000/svg" xmlns:xlink="http://www.w3.org/1999/xlink" x="0px" y="0px"
	 width="110px" height="40px" viewBox="0 0 110 40" style="enable-background:new 0 0 110 40;" xml:space="preserve">
<style type="text/css">
	.st0{fill:#FFFFFF;}
	.st1{fill:#47B153;}
	.st2{fill:none;}
	.st3{fill:#FD0000;}
	.st4{fill:#FD7F00;}
	.st5{fill:#FEFEFE;}
	.st6{fill:#FE7F00;}
	.st7{fill:#FE0000;}
	.st8{fill:#FE8000;}
	.st9{fill:#30A923;}
	.st10{fill:url(#SVGID_1_);}
	.st11{fill:#074F86;}
	.st12{fill:#075086;}
	.st13{fill:#EAB41A;}
	.st14{fill:#D5B345;}
	.st15{fill:#084F86;}
</style>
<rect class="st0" width="110" height="40"/>
<g>
	<path class="st1" d="M22.6,14.6c-0.1-0.2-0.1-0.2-0.2-0.1C18.2,17,14,19.4,9.7,21.8c-0.1,0.1-0.2,0.1-0.3,0
		c-1.6-0.9-3.1-1.8-4.7-2.7c-0.4-0.2-0.8-0.5-1.3-0.7c0,0.8,0,1.7,0.2,2.5c0.9,4.9,4.9,7.6,8.6,8.2c1.7,0.2,3.4,0,5.1-0.6
		c2.7-1.1,4.7-3,5.7-5.8c0.7-1.9,0.9-3.8,0.4-5.8C23.2,16.1,22.9,15.3,22.6,14.6z"/>
	<path class="st1" d="M3.7,17.3c1.9,1.1,3.8,2.2,5.7,3.2c0.1,0.1,0.2,0.1,0.3,0c2.7-1.5,5.3-3,8-4.6c1.4-0.8,2.7-1.6,4.1-2.4
		c0.1-0.1,0.1-0.1,0-0.2c-0.2-0.2-0.3-0.4-0.5-0.6c-0.1-0.1-0.1-0.1-0.3,0c-3.8,2.2-7.6,4.4-11.5,6.6c-0.1,0.1-0.2,0.1-0.3,0
		c-1.5-0.8-3-1.7-4.4-2.5c-0.3-0.2-0.7-0.4-1-0.6c0,0-0.1-0.1-0.1,0c-0.1,0.3-0.2,0.6-0.2,1C3.6,17.2,3.7,17.2,3.7,17.3z"/>
	<path class="st1" d="M9.4,18c0.1,0.1,0.2,0.1,0.3,0c2.6-1.5,5.1-2.9,7.7-4.4c1-0.6,2-1.1,3-1.7c0,0,0.1,0,0.1-0.1
		c0,0,0-0.1-0.1-0.1c-0.2-0.2-0.5-0.4-0.7-0.6c-0.1-0.1-0.1-0.1-0.2,0c-3.3,1.9-6.6,3.7-9.8,5.6c-0.1,0.1-0.2,0.1-0.3,0
		c-1.5-0.9-3-1.7-4.5-2.6c-0.1-0.1-0.2,0-0.2,0.1c-0.1,0.2-0.2,0.5-0.3,0.7c-0.1,0.1,0,0.2,0.1,0.3C6.1,16.1,7.8,17.1,9.4,18z"/>
	<path class="st1" d="M9.5,15.5c0.1,0.1,0.2,0,0.2,0c2.8-1.6,5.6-3.2,8.4-4.8c0.2-0.1,0.3-0.2,0.5-0.3c-0.4-0.2-0.7-0.3-1-0.5
		c-0.1-0.1-0.2-0.1-0.3,0c-2.5,1.5-5.1,2.9-7.6,4.4c-0.1,0-0.1,0-0.2,0c-1.1-0.6-2.2-1.2-3.3-1.9c-0.1-0.1-0.1-0.1-0.2,0
		c-0.2,0.2-0.4,0.4-0.5,0.7c-0.1,0.1-0.1,0.1,0,0.2C6.8,14,8.1,14.7,9.5,15.5z"/>
</g>
<g>
	<path class="st2" d="M43.3,12.2C43.3,12.2,43.3,12.2,43.3,12.2C43.3,12.2,43.3,12.2,43.3,12.2C43.3,12.2,43.3,12.2,43.3,12.2z"/>
	<polygon class="st2" points="44.2,21.2 44.2,21.2 44.2,21.2 	"/>
	<path class="st2" d="M44.5,19.5C44.5,19.5,44.5,19.5,44.5,19.5C44.5,19.5,44.5,19.5,44.5,19.5C44.5,19.5,44.5,19.5,44.5,19.5
		L44.5,19.5z"/>
	<polygon class="st2" points="39.9,19.9 39.9,19.9 39.9,19.9 	"/>
	<path class="st3" d="M42.9,26.2c0.1,0,0.1-0.1,0.1-0.2c0,0-0.1,0-0.2,0c-0.2,0-0.5,0-0.7,0c0,0-0.1,0-0.1,0
		c-0.1-0.1-0.2-0.2-0.4-0.4c0,0-0.1-0.1-0.1-0.1c0.6,0,1.2,0,1.8,0c0.1,0,0.2,0,0.3-0.1c0.1-0.2,0.2-0.3,0.4-0.4c0,0,0,0,0,0
		c0,0,0,0,0-0.1c0,0,0,0-0.1,0c-0.9,0-1.9,0-2.8,0c-0.1,0-0.1,0-0.2-0.1c-0.1-0.1-0.2-0.3-0.3-0.4c0,0,0.1,0,0.1,0
		c1.2,0,2.3,0,3.5,0c0.1,0,0.1,0,0.2-0.1c0.1-0.2,0.2-0.3,0.3-0.5c0,0,0,0,0,0c0.1-0.1,0.1-0.1-0.1-0.1c-1.4,0-2.8,0-4.3,0
		c-0.1,0-0.1,0-0.1-0.1c-0.1-0.1-0.1-0.3-0.2-0.4c0,0,0.1,0,0.1,0c1.6,0,3.2,0,4.8,0c0.1,0,0.1,0,0.2-0.1c0.1-0.2,0.1-0.3,0.2-0.5
		c0-0.1,0-0.1-0.1-0.1c-0.4,0-0.8,0-1.2,0c-1.4,0-2.8,0-4.1,0c0,0-0.1,0-0.1,0c0-0.1,0-0.1-0.1-0.2c0-0.1-0.1-0.2-0.1-0.3
		c0-0.1,0-0.1,0.1-0.1c0,0,0,0,0.1,0c1.9,0,3.8,0,5.7,0c0.1,0,0.1,0,0.1-0.1c0-0.2,0.1-0.3,0.1-0.5c0-0.1,0-0.1-0.1-0.1
		c-0.5,0-0.9,0-1.4,0c0,0-0.1,0-0.1,0c0,0,0,0,0,0c0,0.1,0,0.1,0,0.2c0,0,0,0,0,0c-0.3,0-0.7,0-1,0c0-0.2,0.1-0.4,0.1-0.5
		c0-0.2,0.1-0.3,0.1-0.5c0-0.2,0.1-0.4,0.1-0.6c0-0.2,0.1-0.4,0.1-0.6c0-0.2,0.1-0.4,0.1-0.6c0-0.2,0.1-0.4,0.1-0.5
		c0-0.1,0-0.1,0-0.2c0,0,0,0,0,0c0.3,0,0.6,0,0.9,0c0,0,0,0,0,0c0,0.1,0,0.2-0.1,0.4c0,0,0,0,0,0.1c0,0,0,0,0,0.1c0,0,0,0,0.1,0
		c0.1-0.1,0.2-0.2,0.3-0.3c0.1-0.1,0.2-0.1,0.3-0.1c0.2,0,0.3-0.1,0.5-0.1c0,0.1-0.1,0.2-0.1,0.3c-0.1,0.2-0.1,0.4-0.2,0.6
		c0,0.1-0.1,0.1-0.1,0.1c-0.2,0-0.5,0.1-0.6,0.2c-0.1,0.1-0.2,0.3-0.2,0.4c0,0,0,0,0,0c0.4,0,0.7,0,1.1,0c0-0.3,0.1-0.6,0.1-0.9
		c0.1-0.2,0.1-0.4,0.2-0.6c0-0.1,0-0.3-0.1-0.4c0,0,0,0-0.1,0c0,0,0,0-0.1,0c-2.1,0-4.2,0-6.3,0c0,0.1,0,0.2-0.1,0.2
		c0.2,0,0.3,0,0.5,0c0,0,0.1,0,0.1,0.1c0,0.2-0.1,0.4-0.1,0.6c0,0.1,0,0.1-0.1,0.1c-0.1,0-0.3,0-0.4,0c-0.1,0-0.1,0-0.1,0.1
		c0,0.2-0.1,0.5-0.1,0.7c0,0,0,0,0,0.1c0.2,0,0.5,0,0.7,0c0-0.3,0.1-0.6,0.3-0.9c0.1-0.2,0.3-0.4,0.5-0.5c0.1-0.1,0.2-0.1,0.4-0.2
		c0.3-0.1,0.6-0.2,0.8-0.1c0.3,0,0.7,0.1,0.9,0.4c0.2,0.2,0.3,0.4,0.3,0.7c0,0.1,0,0.2,0,0.3c0,0.2,0,0.5-0.1,0.7
		c0,0.2,0,0.2-0.2,0.2c-0.7,0-1.3,0-2,0c-0.1,0-0.1,0-0.1,0.1c0,0.2,0.1,0.4,0.3,0.5c0.2,0.1,0.4,0.2,0.6,0.2c0.2,0,0.3,0,0.5,0
		c0.2,0,0.4-0.1,0.6-0.2c0.1,0,0.1-0.1,0.2-0.1c0,0.1,0,0.3-0.1,0.4c0,0.1-0.1,0.2-0.1,0.3c0,0.1-0.1,0.1-0.1,0.2
		c-0.2,0.1-0.4,0.1-0.7,0.1c-0.2,0-0.3,0-0.5,0c-0.3,0-0.6-0.1-0.9-0.2c-0.4-0.2-0.6-0.5-0.7-0.9c0-0.1-0.1-0.3-0.1-0.4c0,0,0,0,0,0
		c-0.3,0-0.5,0-0.8,0c0,0.1,0,0.1,0,0.2c0,0.1,0,0.2,0,0.3c0,0.1,0.1,0.2,0.3,0.2c0.1,0,0.2,0,0.3,0c0,0,0,0,0,0
		c-0.1,0.3-0.1,0.5-0.2,0.7c0,0,0,0.1-0.1,0.1c-0.3,0.1-0.5,0.1-0.8,0c-0.2,0-0.3-0.1-0.4-0.2c-0.1,0-0.1-0.1-0.1-0.1
		C38,21,38,20.8,38,20.6c0-0.2,0.1-0.5,0.1-0.7c0-0.2,0.1-0.4,0.1-0.7c0.1-0.3,0.1-0.5,0.2-0.8c0-0.2,0.1-0.4,0.1-0.7
		c0-0.2,0.1-0.3,0.1-0.5c0-0.1,0-0.2,0-0.2c0-0.1,0-0.1,0.1-0.1c0.3,0,0.5,0,0.8,0c0.1,0,0.1,0,0.1,0.1c2,0,4.1,0,6.1,0
		c0.1,0,0.1,0,0.1-0.1c0-0.2-0.1-0.3-0.1-0.5c0-0.1,0-0.1-0.1-0.1c-0.5,0-1,0-1.4,0c-1.5,0-3,0-4.5,0c-0.1,0-0.1,0-0.1-0.1
		c0-0.1,0.1-0.2,0.1-0.4c0,0,0,0,0.1,0c0,0,0.1,0,0.1,0c1.9,0,3.7,0,5.6,0c0,0,0,0,0.1,0c0,0,0,0,0-0.1c-0.1-0.2-0.1-0.4-0.2-0.6
		c0,0-0.1-0.1-0.1-0.1c-0.2,0-0.3,0-0.5,0c-1.6,0-3.1,0-4.7,0c-0.1,0-0.1,0-0.1-0.1c0.1-0.1,0.1-0.3,0.2-0.4c0,0,0,0,0.1,0
		c0,0,0,0,0.1,0c1.5,0,3.1,0,4.6,0c0,0,0.1,0,0.1,0c0,0,0,0,0-0.1c-0.1-0.2-0.2-0.4-0.3-0.5c0-0.1-0.1-0.1-0.2-0.1
		c-1.3,0-2.6,0-3.9,0c-0.1,0-0.1,0-0.1-0.1c0.1-0.1,0.2-0.3,0.2-0.4c0,0,0.1-0.1,0.1-0.1c0.2,0,0.4,0,0.5,0c0.9,0,1.9,0,2.8,0
		c0,0,0.1,0,0.1,0c0-0.1-0.1-0.2-0.2-0.3c-0.1-0.1-0.2-0.2-0.3-0.4c0,0-0.1-0.1-0.1-0.1c-0.8,0-1.6,0-2.3,0c0,0-0.1,0-0.1,0
		c0.1-0.1,0.2-0.2,0.3-0.4c0,0,0.1-0.1,0.1-0.1c0,0,0.1,0,0.1,0c0.5,0,0.9,0,1.4,0c0,0,0,0,0.1,0c0,0,0,0,0,0
		c-0.3-0.3-0.5-0.5-0.8-0.8c0,0,0,0,0,0c-0.2-0.2-0.4-0.4-0.7-0.6c-0.4-0.3-0.7-0.5-1.2-0.7c-0.6-0.3-1.1-0.6-1.8-0.7
		c-0.7-0.2-1.3-0.3-2-0.4c-0.4,0-0.7-0.1-1.1-0.1c-0.2,0-0.4,0-0.7,0c-0.3,0-0.6,0-0.8,0.1c-0.2,0-0.4,0-0.7,0.1
		c-0.4,0.1-0.8,0.2-1.2,0.4c-0.6,0.2-1.1,0.5-1.6,0.7c-0.2,0.1-0.5,0.3-0.7,0.4c-0.3,0.2-0.7,0.5-1,0.8c-0.3,0.3-0.6,0.5-0.8,0.8
		c-0.1,0.1-0.3,0.3-0.4,0.4c-0.3,0.4-0.6,0.8-0.8,1.2c-0.1,0.2-0.2,0.3-0.3,0.5c-0.1,0.3-0.3,0.5-0.4,0.8c-0.1,0.3-0.3,0.7-0.4,1
		c-0.1,0.5-0.3,1-0.4,1.5c0,0.2-0.1,0.4-0.1,0.6c0,0.3,0,0.6,0,0.9c0,0,0,0,0,0c0,0,0,0,0,0c0,0,0,0,0,0c0,0.2,0,0.4,0,0.5
		c0,0.1,0,0.3,0,0.4c0.1,0.4,0.1,0.8,0.2,1.2c0.1,0.3,0.2,0.7,0.3,1c0.3,0.7,0.6,1.4,1,2c0.3,0.4,0.5,0.8,0.9,1.2
		c0.3,0.4,0.7,0.7,1.1,1.1c0.1,0.1,0.2,0.2,0.3,0.3c0.4,0.3,0.8,0.6,1.3,0.9c0.5,0.3,1,0.5,1.5,0.7c0.3,0.1,0.5,0.2,0.8,0.3
		c0.5,0.1,1,0.3,1.5,0.3c0.5,0.1,1,0.1,1.5,0.1c0.2,0,0.3,0,0.5,0c0.3,0,0.6-0.1,0.9-0.1c0.6-0.1,1.1-0.2,1.6-0.4
		c0.3-0.1,0.6-0.2,0.8-0.3c0.5-0.2,1-0.5,1.5-0.8c0.4-0.3,0.8-0.6,1.2-0.9c0,0,0,0,0.1-0.1c0,0,0,0,0,0c0,0,0,0,0,0
		C42.7,26.4,42.8,26.3,42.9,26.2z M31.6,19.1c0,0.2-0.1,0.3-0.1,0.5c0,0.2-0.1,0.4-0.1,0.5c0,0.2-0.1,0.4-0.1,0.5
		c0,0.1-0.1,0.3-0.1,0.4c0,0.1,0,0.2,0,0.3c0,0,0,0,0,0c-0.3,0-0.6,0-0.9,0c0.1-0.3,0.1-0.5,0.2-0.8c0-0.3,0.1-0.5,0.1-0.8
		c0-0.2,0.1-0.4,0.1-0.7c0-0.2,0.1-0.4,0.1-0.6c0-0.2,0.1-0.5,0.1-0.7c0,0,0-0.1,0-0.1c-0.1,0-0.1,0.1-0.1,0.1
		c-0.2,0.4-0.3,0.8-0.5,1.2c-0.1,0.4-0.3,0.7-0.4,1c-0.1,0.4-0.3,0.7-0.4,1.1c0,0.1-0.1,0.2-0.1,0.2c-0.1,0-0.2,0-0.3,0
		c-0.2,0-0.3,0-0.5,0c0,0-0.1,0-0.1-0.1c0-0.3,0-0.5-0.1-0.8c0-0.2,0-0.5,0-0.7c0-0.2,0-0.5-0.1-0.7c0-0.2,0-0.3,0-0.5
		c0-0.2,0-0.5-0.1-0.7c0-0.1,0-0.1,0-0.2c-0.1,0-0.1,0.1-0.1,0.1c-0.1,0.3-0.1,0.7-0.2,1c-0.1,0.3-0.1,0.7-0.2,1
		c0,0.2-0.1,0.5-0.1,0.7c0,0.2-0.1,0.4-0.1,0.6c0,0,0,0.1,0,0.1c0,0,0,0,0,0c-0.3,0-0.6,0-0.9,0c0-0.2,0.1-0.4,0.2-0.6
		c0-0.2,0.1-0.5,0.1-0.7c0.1-0.3,0.1-0.5,0.2-0.8c0-0.2,0.1-0.5,0.1-0.7c0-0.2,0.1-0.3,0.1-0.5c0-0.2,0.1-0.5,0.1-0.7
		c0-0.2,0-0.3,0.1-0.5c0,0,0,0,0.1,0c0.2,0,0.5,0,0.7,0c0.3,0,0.5,0,0.8,0c0.1,0,0.1,0,0.1,0.1c0,0.4,0,0.9,0,1.3c0,0.3,0,0.7,0,1
		c0,0.2,0,0.3,0,0.5c0,0,0,0,0,0.1c0,0,0,0,0.1,0c0-0.1,0.1-0.2,0.1-0.3c0.1-0.3,0.2-0.6,0.4-0.9c0.1-0.3,0.2-0.5,0.3-0.8
		c0.1-0.3,0.2-0.6,0.4-0.9c0,0,0-0.1,0.1-0.1c0.5,0,1.1,0,1.6,0c-0.1,0.2-0.1,0.4-0.2,0.6c0,0.2-0.1,0.4-0.1,0.5
		c0,0.2-0.1,0.4-0.1,0.5C31.7,18.8,31.7,19,31.6,19.1z M35,19.7c-0.1,0.3-0.1,0.6-0.1,0.9c0,0.2,0,0.3-0.1,0.5c0,0.1,0,0.2,0,0.3
		c0,0,0,0.1,0,0.1c-0.3,0-0.6,0-0.9,0c0,0,0,0,0-0.1c0-0.1,0-0.2,0-0.2c0,0,0-0.1,0-0.1c0,0-0.1,0-0.1,0c-0.2,0.2-0.5,0.3-0.7,0.4
		c-0.2,0-0.5,0-0.7,0c-0.3-0.1-0.5-0.3-0.6-0.6c-0.1-0.2-0.1-0.4-0.1-0.6c0.1-0.3,0.2-0.6,0.4-0.8c0.2-0.2,0.4-0.3,0.7-0.3
		c0.1,0,0.1,0,0.2,0c0.1,0,0.2,0,0.3,0c0.3,0,0.5,0,0.8,0c0.1,0,0.1,0,0.1-0.1c0-0.3-0.2-0.5-0.5-0.5c-0.2,0-0.3,0-0.5,0
		c-0.3,0-0.6,0-0.9,0.1c0,0,0,0-0.1,0c0.1-0.2,0.1-0.5,0.2-0.7c0-0.1,0-0.1,0.1-0.1c0.1,0,0.3-0.1,0.4-0.1c0.3,0,0.7-0.1,1,0
		c0.3,0,0.6,0.1,0.8,0.4c0.2,0.2,0.3,0.4,0.3,0.6c0,0.1,0,0.3-0.1,0.4C35,19.3,35,19.5,35,19.7z M37.9,18.3c0,0.1,0,0.1,0,0.2
		c0,0,0,0,0,0c-0.3,0-0.6-0.1-1-0.1c-0.1,0-0.3,0.1-0.3,0.3c0,0,0,0.1,0,0.1c0.1,0.1,0.2,0.2,0.3,0.3c0.2,0.1,0.5,0.2,0.7,0.4
		c0.2,0.1,0.3,0.3,0.3,0.5c0,0.4,0,0.7-0.2,1c-0.1,0.1-0.2,0.2-0.4,0.2c-0.2,0.1-0.4,0.1-0.5,0.1c-0.1,0-0.2,0-0.3,0
		c-0.2,0-0.4,0-0.6,0c-0.2,0-0.5,0-0.7-0.1c-0.1,0-0.1,0,0-0.1c0-0.2,0.1-0.4,0.1-0.7c0,0,0,0,0,0c0.1,0,0.2,0.1,0.3,0.1
		c0.3,0.1,0.6,0.1,1,0.1c0.2,0,0.4-0.2,0.4-0.3c0-0.1,0-0.1,0-0.2c-0.1-0.1-0.1-0.2-0.3-0.2c-0.2-0.1-0.5-0.2-0.7-0.3
		c-0.2-0.1-0.4-0.3-0.4-0.6c0-0.3,0-0.5,0.2-0.8c0.1-0.2,0.2-0.3,0.4-0.4c0.2-0.1,0.4-0.2,0.6-0.2c0.1,0,0.3,0,0.4,0
		c0.3,0,0.7,0,1,0c0,0,0,0,0,0C38,18,37.9,18.1,37.9,18.3z"/>
	<path class="st4" d="M59.7,18.4c0-0.1,0-0.2,0-0.3c0-0.2,0-0.4-0.1-0.7c0-0.2,0-0.4-0.1-0.6c-0.1-0.3-0.2-0.6-0.3-1
		c-0.1-0.2-0.2-0.5-0.3-0.7c-0.1-0.4-0.3-0.8-0.6-1.2c-0.2-0.4-0.5-0.8-0.7-1.1c-0.3-0.4-0.6-0.7-0.9-1.1c-0.2-0.2-0.3-0.3-0.5-0.5
		c-0.2-0.1-0.3-0.3-0.5-0.4c-0.2-0.2-0.5-0.4-0.7-0.5c-0.2-0.1-0.3-0.2-0.5-0.3c-0.4-0.3-0.8-0.4-1.2-0.6C53,9.2,52.5,9,52,8.9
		c-0.3-0.1-0.5-0.1-0.8-0.2c-0.2,0-0.3,0-0.5-0.1c-0.2,0-0.5-0.1-0.7-0.1c-0.4,0-0.8,0-1.2,0c-0.1,0-0.2,0-0.3,0
		c-0.2,0-0.4,0.1-0.6,0.1c-0.1,0-0.3,0-0.4,0.1C46.9,9,46.5,9,46,9.2c-0.2,0.1-0.5,0.2-0.7,0.3c-0.1,0-0.2,0.1-0.3,0.1
		c-0.2,0.1-0.4,0.2-0.5,0.3c-0.1,0.1-0.2,0.1-0.3,0.2c-0.2,0.1-0.3,0.2-0.5,0.3c-0.2,0.1-0.3,0.2-0.5,0.4c-0.2,0.2-0.5,0.4-0.7,0.6
		c0,0,0,0,0,0c0.3,0.2,0.5,0.5,0.8,0.8c0,0,0,0,0,0c0,0,0,0,0,0c0,0-0.1,0-0.1,0c-0.5,0-0.9,0-1.4,0c0,0-0.1,0-0.1,0
		c0,0-0.1,0.1-0.1,0.1c-0.1,0.1-0.2,0.2-0.3,0.4c0,0,0.1,0,0.1,0c0.8,0,1.6,0,2.3,0c0.1,0,0.1,0,0.1,0.1c0.1,0.1,0.2,0.2,0.3,0.4
		c0.1,0.1,0.1,0.2,0.2,0.3c0,0-0.1,0-0.1,0c-0.9,0-1.9,0-2.8,0c-0.2,0-0.4,0-0.5,0c0,0-0.1,0-0.1,0.1c-0.1,0.1-0.2,0.3-0.2,0.4
		c-0.1,0.1-0.1,0.1,0.1,0.1c1.3,0,2.6,0,3.9,0c0.1,0,0.1,0,0.2,0.1c0.1,0.2,0.2,0.3,0.3,0.5c0,0,0,0,0,0.1c0,0-0.1,0-0.1,0
		c-1.5,0-3.1,0-4.6,0c0,0,0,0-0.1,0c0,0-0.1,0-0.1,0C40.1,14.8,40,14.9,40,15c0,0.1,0,0.1,0.1,0.1c1.6,0,3.1,0,4.7,0
		c0.2,0,0.3,0,0.5,0c0,0,0.1,0,0.1,0.1c0.1,0.2,0.1,0.4,0.2,0.6c0,0,0,0.1,0,0.1c0,0-0.1,0-0.1,0c-1.9,0-3.7,0-5.6,0
		c0,0-0.1,0-0.1,0c0,0,0,0-0.1,0c0,0.1-0.1,0.2-0.1,0.4c0,0.1,0,0.1,0.1,0.1c1.5,0,3,0,4.5,0c0.5,0,1,0,1.4,0c0.1,0,0.1,0,0.1,0.1
		c0,0.2,0.1,0.3,0.1,0.5c0,0.1,0,0.1-0.1,0.1c-2,0-4.1,0-6.1,0c0,0.2-0.1,0.3-0.1,0.5c2.1,0,4.2,0,6.3,0c0,0,0,0,0.1,0
		c0,0,0.1,0,0.1,0c0,0.1,0,0.3,0.1,0.4c0.1-0.2,0.2-0.3,0.3-0.5c0.3-0.3,0.6-0.5,1.1-0.6c0.3-0.1,0.5-0.1,0.8,0c0.2,0,0.3,0,0.5,0.1
		c0.1,0,0.2,0.1,0.4,0.1c0.1,0,0.1,0.1,0.1,0.2c0,0.2-0.1,0.4-0.1,0.7c0,0.1,0,0.1-0.1,0.1c-0.1,0-0.2-0.1-0.3-0.1
		c-0.1,0-0.2,0-0.3-0.1c-0.2,0-0.4,0-0.6,0c0,0-0.1,0-0.1,0c-0.3,0.1-0.5,0.2-0.6,0.4c-0.3,0.3-0.4,0.7-0.5,1.1
		c-0.1,0.3,0,0.5,0.2,0.8c0.3,0.4,0.6,0.5,1,0.5c0.3,0,0.5-0.1,0.8-0.2c0,0,0,0,0.1,0c0,0,0,0,0,0.1c0,0.1-0.1,0.2-0.1,0.4
		c0,0.1,0,0.3-0.1,0.4c0,0.1,0,0.1-0.1,0.1c-0.3,0.1-0.6,0.1-0.8,0.1c-0.3,0-0.6-0.1-0.9-0.2c-0.1-0.1-0.3-0.1-0.4-0.2
		c-0.1-0.1-0.3-0.2-0.3-0.4c-0.5,0-1.1,0-1.6,0c-0.1,0.2-0.1,0.3-0.1,0.5c0,0,0,0,0,0c0,0.1,0.1,0,0.1,0c0.5,0,0.9,0,1.4,0
		c0.1,0,0.1,0,0.1,0.1c0,0.2-0.1,0.3-0.1,0.5c0,0.1-0.1,0.1-0.1,0.1c-1.9,0-3.8,0-5.7,0c0,0,0,0-0.1,0c-0.1,0-0.1,0-0.1,0.1
		c0,0.1,0.1,0.2,0.1,0.3c0,0.1,0,0.1,0.1,0.2c0,0,0.1,0,0.1,0c1.4,0,2.8,0,4.1,0c0.4,0,0.8,0,1.2,0c0.1,0,0.1,0,0.1,0.1
		c-0.1,0.2-0.1,0.3-0.2,0.5c0,0.1-0.1,0.1-0.2,0.1c-1.6,0-3.2,0-4.8,0c0,0-0.1,0-0.1,0c0.1,0.2,0.1,0.3,0.2,0.4
		c0,0.1,0.1,0.1,0.1,0.1c1.4,0,2.8,0,4.3,0c0.1,0,0.1,0,0.1,0.1c0,0,0,0,0,0c-0.1,0.2-0.2,0.3-0.3,0.5c0,0.1-0.1,0.1-0.2,0.1
		c-1.2,0-2.3,0-3.5,0c0,0-0.1,0-0.1,0c0.1,0.1,0.2,0.3,0.3,0.4c0,0.1,0.1,0.1,0.2,0.1c0.9,0,1.9,0,2.8,0c0,0,0.1,0,0.1,0
		c0,0,0,0,0,0.1c0,0,0,0,0,0c-0.1,0.1-0.2,0.3-0.4,0.4c-0.1,0.1-0.2,0.1-0.3,0.1c-0.6,0-1.2,0-1.8,0c0,0.1,0.1,0.1,0.1,0.1
		c0.1,0.1,0.2,0.2,0.4,0.4c0,0,0.1,0,0.1,0c0.2,0,0.5,0,0.7,0c0.1,0,0.2,0,0.2,0c0,0.1-0.1,0.1-0.1,0.2c-0.1,0.1-0.2,0.2-0.3,0.3
		c0,0,0,0,0,0c0.2,0.2,0.4,0.4,0.6,0.5c0.2,0.1,0.4,0.3,0.5,0.4c0.2,0.1,0.4,0.3,0.6,0.4c0.3,0.2,0.7,0.4,1.1,0.6
		c0.5,0.2,1,0.4,1.5,0.5c0.2,0.1,0.5,0.1,0.7,0.1c0.2,0,0.3,0,0.5,0.1c0.2,0,0.4,0.1,0.6,0.1c0.3,0,0.7,0,1,0c0.3,0,0.6,0,0.9-0.1
		c0.2,0,0.5-0.1,0.7-0.1c0.3-0.1,0.6-0.2,1-0.3c0.5-0.2,1-0.4,1.5-0.6c0.4-0.2,0.8-0.5,1.3-0.7c0.2-0.1,0.4-0.3,0.6-0.4
		c0.3-0.2,0.6-0.5,0.8-0.7c0.2-0.2,0.4-0.4,0.6-0.7c0.3-0.3,0.5-0.6,0.7-1c0.3-0.4,0.5-0.9,0.8-1.3c0.2-0.4,0.3-0.8,0.5-1.3
		c0.1-0.2,0.1-0.5,0.2-0.7c0.1-0.2,0.1-0.4,0.1-0.6c0-0.2,0-0.4,0.1-0.6c0-0.2,0.1-0.5,0.1-0.7C59.8,19.1,59.8,18.8,59.7,18.4z
		 M52,20c0,0.2-0.1,0.4-0.1,0.6c0,0.2-0.1,0.3-0.1,0.5c0,0.1,0,0.2,0,0.3c0,0,0,0-0.1,0c-0.1,0-0.3,0-0.4,0c-0.1,0-0.3,0-0.4,0
		c-0.1,0-0.1,0-0.1-0.1c0-0.1,0-0.1,0-0.2c0,0,0,0,0-0.1c0,0,0,0-0.1,0c0,0-0.1,0.1-0.1,0.1c-0.1,0.1-0.3,0.2-0.5,0.2
		c-0.3,0.1-0.6,0.1-0.9,0c-0.3-0.1-0.4-0.3-0.5-0.6c-0.1-0.5,0-0.9,0.4-1.2c0.2-0.2,0.4-0.3,0.7-0.3c0.2,0,0.4-0.1,0.6-0.1
		c0.1,0,0.3,0,0.4,0c0,0,0.1,0,0.1,0c0.1,0,0.1,0,0.1-0.1c0-0.1,0-0.3-0.1-0.4c-0.1-0.1-0.2-0.1-0.3-0.2c-0.2,0-0.4,0-0.6,0
		c-0.3,0-0.5,0.1-0.8,0.1c0,0-0.1,0,0,0c0.1-0.2,0.1-0.4,0.2-0.7c0-0.1,0.1-0.1,0.2-0.1c0.2-0.1,0.4-0.1,0.6-0.1c0,0,0,0,0,0
		c0.2,0,0.5,0,0.7,0c0.2,0,0.4,0.1,0.6,0.2c0,0,0.1,0,0.1,0.1c0.2,0.2,0.4,0.4,0.4,0.8c0,0.2,0,0.4-0.1,0.6C52.1,19.5,52,19.8,52,20
		z M54.1,18.8c-0.2,0.1-0.3,0.2-0.4,0.3c-0.1,0.2-0.2,0.4-0.2,0.7c-0.1,0.3-0.1,0.6-0.2,1c0,0.2-0.1,0.4-0.1,0.6c0,0,0,0.1,0,0.1
		c0,0,0,0,0,0c-0.3,0-0.7,0-1,0c0-0.2,0.1-0.4,0.1-0.5c0-0.2,0.1-0.5,0.1-0.7c0-0.3,0.1-0.5,0.1-0.8c0.1-0.3,0.1-0.6,0.2-0.8
		c0-0.3,0.1-0.5,0.1-0.8c0,0,0,0,0,0c0.3,0,0.6,0,0.8,0c0,0,0,0,0,0c0,0.1,0,0.2-0.1,0.4c0,0,0,0.1,0,0.1c0,0,0.1,0,0.1-0.1
		c0.1-0.2,0.3-0.3,0.5-0.4c0.2-0.1,0.3-0.1,0.5-0.1c-0.1,0.1-0.1,0.3-0.2,0.4c-0.1,0.2-0.1,0.4-0.2,0.5c0,0.1,0,0.1-0.1,0.1
		C54.3,18.8,54.2,18.8,54.1,18.8z M58.1,19.5c0,0.2-0.1,0.4-0.1,0.6c0,0.2-0.1,0.4-0.1,0.6c0,0.2-0.1,0.4-0.1,0.6c0,0,0,0,0,0
		c0,0.1,0,0.1-0.2,0.1c-0.3,0-0.5,0-0.8,0c-0.1,0-0.1,0-0.1-0.1c0-0.1,0-0.2,0-0.3c0,0,0-0.1,0-0.1c0,0,0,0-0.1,0
		c-0.1,0.2-0.3,0.3-0.5,0.3c-0.1,0-0.3,0.1-0.4,0.1c-0.4,0-0.7-0.1-0.9-0.4c-0.2-0.2-0.2-0.4-0.3-0.6c0-0.2-0.1-0.4,0-0.6
		c0-0.2,0.1-0.4,0.1-0.5c0-0.3,0.1-0.5,0.3-0.7c0.2-0.3,0.4-0.5,0.7-0.6c0.3-0.1,0.6-0.2,0.9-0.2c0.2,0,0.4,0.1,0.6,0.3
		c0.1,0,0.1,0.1,0.2,0.2c0,0,0,0,0.1,0c0,0,0,0,0-0.1c0-0.1,0-0.2,0.1-0.4c0-0.3,0.1-0.5,0.1-0.8c0,0,0-0.1,0.1-0.1c0.3,0,0.7,0,1,0
		c-0.1,0.2-0.1,0.4-0.2,0.6c0,0.2-0.1,0.4-0.1,0.6c0,0.2-0.1,0.5-0.1,0.7C58.1,19.1,58.1,19.3,58.1,19.5z M58.7,21.5
		c-0.2,0-0.4-0.2-0.4-0.4c0-0.2,0.2-0.4,0.4-0.4c0.2,0,0.4,0.2,0.4,0.4C59.2,21.3,58.9,21.6,58.7,21.5z"/>
	<path class="st5" d="M31.9,17.5c0-0.2,0.1-0.4,0.2-0.6c-0.5,0-1.1,0-1.6,0c0,0-0.1,0-0.1,0.1c-0.1,0.3-0.2,0.6-0.4,0.9
		c-0.1,0.3-0.2,0.5-0.3,0.8c-0.1,0.3-0.2,0.6-0.4,0.9c0,0.1-0.1,0.2-0.1,0.3c0,0,0,0-0.1,0c0,0,0,0,0-0.1c0-0.2,0-0.3,0-0.5
		c0-0.3,0-0.7,0-1c0-0.4,0-0.9,0-1.3c0-0.1,0-0.1-0.1-0.1c-0.3,0-0.5,0-0.8,0c-0.2,0-0.5,0-0.7,0c0,0-0.1,0-0.1,0
		c0,0.2,0,0.3-0.1,0.5c0,0.2-0.1,0.5-0.1,0.7c0,0.2-0.1,0.3-0.1,0.5c0,0.2-0.1,0.5-0.1,0.7c-0.1,0.3-0.1,0.5-0.2,0.8
		c0,0.2-0.1,0.5-0.1,0.7c0,0.2-0.1,0.4-0.2,0.6c0.3,0,0.6,0,0.9,0c0,0,0,0,0,0c0,0,0-0.1,0-0.1c0-0.2,0-0.4,0.1-0.6
		c0-0.3,0.1-0.5,0.1-0.7c0.1-0.3,0.1-0.7,0.2-1c0.1-0.3,0.1-0.7,0.2-1c0,0,0-0.1,0.1-0.1c0,0.1,0,0.1,0,0.2c0,0.2,0,0.5,0.1,0.7
		c0,0.2,0,0.3,0,0.5c0,0.2,0,0.5,0.1,0.7c0,0.2,0,0.5,0,0.7c0,0.3,0,0.5,0.1,0.8c0,0,0,0.1,0.1,0.1c0.2,0,0.3,0,0.5,0
		c0.1,0,0.2,0,0.3,0c0.1,0,0.1-0.2,0.1-0.2c0.1-0.4,0.3-0.7,0.4-1.1c0.1-0.3,0.3-0.7,0.4-1c0.2-0.4,0.3-0.8,0.5-1.2
		c0,0,0-0.1,0.1-0.1c0,0,0,0.1,0,0.1c0,0.2-0.1,0.5-0.1,0.7c0,0.2-0.1,0.4-0.1,0.6c0,0.2-0.1,0.4-0.1,0.7c0,0.3-0.1,0.5-0.1,0.8
		c0,0.3-0.1,0.5-0.2,0.8c0.3,0,0.6,0,0.9,0c0,0,0,0,0,0c0-0.1,0-0.2,0-0.3c0-0.1,0-0.3,0.1-0.4c0-0.2,0.1-0.4,0.1-0.5
		c0-0.2,0.1-0.4,0.1-0.5c0-0.2,0.1-0.3,0.1-0.5c0-0.2,0.1-0.4,0.1-0.5c0-0.2,0.1-0.4,0.1-0.5C31.9,17.9,31.9,17.7,31.9,17.5z"/>
	<path class="st5" d="M34.9,18.1c-0.2-0.2-0.5-0.3-0.8-0.4c-0.3,0-0.7,0-1,0c-0.1,0-0.3,0-0.4,0.1c-0.1,0-0.1,0-0.1,0.1
		c0,0.2-0.1,0.4-0.2,0.7c0,0,0.1,0,0.1,0c0.3-0.1,0.6-0.1,0.9-0.1c0.2,0,0.3,0,0.5,0c0.2,0,0.5,0.2,0.5,0.5c0,0.1,0,0.1-0.1,0.1
		c-0.3,0-0.5,0-0.8,0c-0.1,0-0.2,0-0.3,0c-0.1,0-0.1,0-0.2,0c-0.3,0-0.5,0.1-0.7,0.3c-0.2,0.2-0.4,0.5-0.4,0.8c0,0.2,0,0.4,0.1,0.6
		c0.1,0.3,0.3,0.5,0.6,0.6c0.2,0.1,0.5,0.1,0.7,0c0.3-0.1,0.5-0.2,0.7-0.4c0,0,0-0.1,0.1,0c0,0,0,0.1,0,0.1c0,0.1,0,0.2,0,0.2
		c0,0,0,0.1,0,0.1c0.3,0,0.6,0,0.9,0c0,0,0-0.1,0-0.1c0-0.1,0-0.2,0-0.3c0-0.2,0-0.3,0.1-0.5c0-0.3,0.1-0.6,0.1-0.9
		c0-0.2,0.1-0.4,0.1-0.6c0-0.1,0.1-0.3,0.1-0.4C35.2,18.5,35.1,18.3,34.9,18.1z M34,19.9c0,0.2-0.1,0.4-0.2,0.6
		c-0.1,0.2-0.3,0.2-0.5,0.3c-0.1,0-0.2,0-0.2,0c-0.2,0-0.3-0.1-0.3-0.3c0-0.2,0-0.3,0.2-0.5c0.2-0.1,0.3-0.2,0.5-0.2
		c0.1,0,0.2,0,0.3,0c0.1,0,0.2,0,0.3,0C34,19.8,34,19.8,34,19.9z"/>
	<path class="st5" d="M39.9,19.9C39.9,19.9,39.9,19.9,39.9,19.9c0,0.1,0,0.3,0.1,0.4c0.1,0.4,0.3,0.7,0.7,0.9
		c0.3,0.1,0.6,0.2,0.9,0.2c0.2,0,0.3,0,0.5,0c0.2,0,0.5,0,0.7-0.1c0.1,0,0.1-0.1,0.1-0.2c0-0.1,0-0.2,0.1-0.3c0-0.1,0-0.3,0.1-0.4
		c-0.1,0-0.1,0.1-0.2,0.1c-0.2,0.1-0.4,0.1-0.6,0.2c-0.2,0-0.3,0.1-0.5,0c-0.2,0-0.4-0.1-0.6-0.2c-0.2-0.1-0.3-0.3-0.3-0.5
		c0-0.1,0-0.1,0.1-0.1c0.7,0,1.3,0,2,0c0.2,0,0.2,0,0.2-0.2c0.1-0.2,0.1-0.5,0.1-0.7c0-0.1,0-0.2,0-0.3c0-0.3-0.2-0.5-0.3-0.7
		c-0.3-0.2-0.6-0.3-0.9-0.4c-0.3,0-0.6,0-0.8,0.1c-0.1,0.1-0.2,0.1-0.4,0.2c-0.2,0.1-0.3,0.3-0.5,0.5c-0.2,0.3-0.3,0.6-0.3,0.9
		C39.9,19.6,39.9,19.8,39.9,19.9z M42.2,18.9c0,0.1,0.1,0.1,0,0.2c0,0.1,0,0.1-0.1,0.1c-0.2,0-0.3,0-0.5,0c-0.2,0-0.3,0-0.5,0
		c-0.1,0-0.1,0-0.1-0.2c0-0.3,0.4-0.6,0.7-0.5C41.9,18.5,42.1,18.7,42.2,18.9z"/>
	<path class="st5" d="M45.6,19.5c0,0.1,0,0.2,0,0.3c0,0.1,0,0.1,0,0.2c0,0.2,0.1,0.3,0.2,0.5c0,0.1,0.1,0.1,0.1,0.2
		c0.1,0.2,0.2,0.3,0.3,0.4c0.1,0.1,0.3,0.2,0.4,0.2c0.3,0.1,0.6,0.2,0.9,0.2c0.3,0,0.6,0,0.8-0.1c0.1,0,0.1,0,0.1-0.1
		c0-0.1,0-0.3,0.1-0.4c0-0.1,0.1-0.2,0.1-0.4c0,0,0,0,0-0.1c0,0-0.1,0-0.1,0c-0.2,0.1-0.5,0.2-0.8,0.2c-0.4,0-0.8-0.1-1-0.5
		c-0.2-0.2-0.2-0.5-0.2-0.8c0.1-0.4,0.2-0.8,0.5-1.1c0.2-0.2,0.4-0.3,0.6-0.4c0,0,0.1,0,0.1,0c0.2,0,0.4,0,0.6,0
		c0.1,0,0.2,0,0.3,0.1c0.1,0,0.2,0.1,0.3,0.1c0.1,0,0.1,0,0.1-0.1c0-0.2,0.1-0.4,0.1-0.7c0-0.1,0-0.1-0.1-0.2
		c-0.1,0-0.2-0.1-0.4-0.1c-0.2,0-0.3-0.1-0.5-0.1c-0.3,0-0.5,0-0.8,0c-0.4,0.1-0.8,0.3-1.1,0.6c-0.1,0.1-0.2,0.3-0.3,0.5
		c-0.1,0.2-0.2,0.4-0.2,0.6C45.7,18.9,45.6,19.2,45.6,19.5z"/>
	<path class="st5" d="M37,17.8c-0.1,0-0.3,0-0.4,0c-0.2,0-0.4,0.1-0.6,0.2c-0.2,0.1-0.3,0.2-0.4,0.4c-0.1,0.2-0.2,0.5-0.2,0.8
		c0,0.3,0.2,0.5,0.4,0.6c0.2,0.1,0.4,0.2,0.7,0.3c0.1,0,0.2,0.1,0.3,0.2c0,0,0.1,0.1,0,0.2c0,0.2-0.2,0.3-0.4,0.3
		c-0.3,0-0.6,0-1-0.1c-0.1,0-0.2,0-0.3-0.1c0,0,0,0,0,0c0,0.2,0,0.4-0.1,0.7c0,0.1,0,0.1,0,0.1c0.2,0,0.5,0.1,0.7,0.1
		c0.2,0,0.4,0,0.6,0c0.1,0,0.2,0,0.3,0c0.2,0,0.4-0.1,0.5-0.1c0.1-0.1,0.3-0.1,0.4-0.2c0.2-0.3,0.3-0.7,0.2-1c0-0.2-0.1-0.4-0.3-0.5
		c-0.2-0.2-0.4-0.3-0.7-0.4c-0.1-0.1-0.2-0.2-0.3-0.3c0,0,0-0.1,0-0.1c0-0.1,0.2-0.3,0.3-0.3c0.3,0,0.6,0,1,0.1c0,0,0,0,0,0
		c0-0.1,0-0.1,0-0.2c0-0.2,0.1-0.3,0.1-0.5c0,0,0,0,0,0C37.6,17.8,37.3,17.8,37,17.8z"/>
	<path class="st5" d="M39.5,17c-0.3,0-0.5,0-0.8,0c-0.1,0-0.1,0-0.1,0.1c0,0.1,0,0.2,0,0.2c0,0.2-0.1,0.3-0.1,0.5
		c0,0.2-0.1,0.4-0.1,0.7c-0.1,0.3-0.1,0.5-0.2,0.8c0,0.2-0.1,0.4-0.1,0.7c0,0.2-0.1,0.5-0.1,0.7c0,0.2,0,0.4,0.1,0.6
		c0,0.1,0.1,0.1,0.1,0.1c0.1,0.1,0.3,0.1,0.4,0.2c0.3,0,0.5,0,0.8,0c0,0,0.1,0,0.1-0.1c0.1-0.2,0.1-0.5,0.2-0.7c0,0,0,0,0,0
		c-0.1,0-0.2,0-0.3,0c-0.2,0-0.3-0.1-0.3-0.2c0-0.1,0-0.2,0-0.3c0-0.1,0-0.1,0-0.2c0-0.2,0-0.3,0.1-0.5c0,0,0-0.1,0-0.1
		c0.1-0.2,0.1-0.5,0.1-0.7c0,0,0-0.1,0.1-0.1c0.1,0,0.3,0,0.4,0c0.1,0,0.1,0,0.1-0.1c0-0.2,0.1-0.4,0.1-0.6c0-0.1,0-0.1-0.1-0.1
		c-0.2,0-0.3,0-0.5,0c0-0.1,0-0.2,0.1-0.2C39.6,17.4,39.6,17.2,39.5,17C39.6,17,39.6,17,39.5,17z"/>
	<path class="st5" d="M44.3,20.2c0-0.1,0-0.1,0-0.2c0-0.2,0.1-0.4,0.1-0.5l0,0v0c0,0,0,0,0,0c0-0.2,0.1-0.3,0.2-0.4
		c0.1-0.2,0.4-0.3,0.6-0.2c0.1,0,0.1,0,0.1-0.1c0.1-0.2,0.1-0.4,0.2-0.6c0.1-0.1,0.1-0.2,0.1-0.3c-0.2,0-0.3,0-0.5,0.1
		c-0.1,0-0.2,0.1-0.3,0.1c-0.1,0.1-0.2,0.2-0.3,0.3c0,0,0,0-0.1,0c0,0,0,0,0-0.1c0,0,0,0,0-0.1c0-0.1,0-0.2,0.1-0.4c0,0,0,0,0,0
		c-0.3,0-0.6,0-0.9,0c0,0,0,0,0,0c0,0.1,0,0.1,0,0.2c0,0.2-0.1,0.4-0.1,0.5c0,0.2-0.1,0.4-0.1,0.6c0,0.2-0.1,0.4-0.1,0.6
		c0,0.2-0.1,0.4-0.1,0.6c0,0.2-0.1,0.3-0.1,0.5c0,0.2-0.1,0.4-0.1,0.5c0.3,0,0.7,0,1,0c0,0,0,0,0,0c0-0.1,0-0.1,0-0.2c0,0,0,0,0,0
		c0-0.2,0-0.4,0.1-0.5C44.3,20.5,44.3,20.4,44.3,20.2z"/>
	<path class="st6" d="M44.5,19.5c0,0.2-0.1,0.4-0.1,0.5c0.4,0,0.8,0,1.2,0c0-0.1,0-0.1,0-0.2c0-0.1,0-0.2,0-0.3
		C45.2,19.5,44.9,19.5,44.5,19.5C44.5,19.5,44.5,19.5,44.5,19.5L44.5,19.5z"/>
	<path class="st6" d="M39.1,19.9c0.3,0,0.5,0,0.8,0c0,0,0,0,0,0c0-0.2,0-0.3,0.1-0.5c-0.2,0-0.5,0-0.7,0
		C39.1,19.6,39.1,19.8,39.1,19.9z"/>
	<path class="st5" d="M58.4,17.5c0-0.2,0.1-0.4,0.2-0.6c-0.3,0-0.7,0-1,0c-0.1,0,0,0-0.1,0.1c0,0.3-0.1,0.5-0.1,0.8
		c0,0.1,0,0.2-0.1,0.4c0,0,0,0.1,0,0.1c0,0,0,0-0.1,0c-0.1,0-0.1-0.1-0.2-0.2c-0.2-0.1-0.4-0.2-0.6-0.3c-0.3,0-0.6,0-0.9,0.2
		c-0.3,0.1-0.5,0.4-0.7,0.6c-0.1,0.2-0.2,0.4-0.3,0.7c0,0.2-0.1,0.4-0.1,0.5c0,0.2,0,0.4,0,0.6c0.1,0.2,0.1,0.5,0.3,0.6
		c0.2,0.3,0.6,0.4,0.9,0.4c0.1,0,0.3,0,0.4-0.1c0.2-0.1,0.4-0.1,0.5-0.3c0,0,0-0.1,0.1,0c0,0,0,0,0,0.1c0,0.1,0,0.2,0,0.3
		c0,0,0,0.1,0.1,0.1c0.3,0,0.5,0,0.8,0c0.1,0,0.1,0,0.2-0.1c0,0,0,0,0,0c0-0.2,0-0.4,0.1-0.6c0-0.2,0.1-0.4,0.1-0.6
		c0-0.2,0.1-0.4,0.1-0.6c0-0.2,0.1-0.4,0.1-0.6c0-0.2,0.1-0.5,0.1-0.7C58.3,17.9,58.4,17.7,58.4,17.5z M57,19.8
		c0,0.2-0.1,0.4-0.2,0.6c-0.1,0.2-0.3,0.3-0.6,0.3c-0.2,0-0.3,0-0.5-0.2c-0.1-0.1-0.1-0.2-0.2-0.4c0-0.1,0-0.2,0-0.3
		c0-0.3,0.1-0.6,0.2-0.8c0.1-0.2,0.3-0.3,0.4-0.4c0.1,0,0.2,0,0.3,0c0.1,0,0.1,0,0.2,0c0.2,0.1,0.3,0.3,0.4,0.5
		C57,19.4,57,19.6,57,19.8z"/>
	<path class="st5" d="M51.8,18c0,0-0.1,0-0.1-0.1c-0.2-0.1-0.4-0.2-0.6-0.2c-0.2,0-0.5,0-0.7,0c0,0,0,0,0,0c-0.2,0-0.4,0-0.6,0.1
		c-0.1,0-0.2,0-0.2,0.1c-0.1,0.2-0.1,0.4-0.2,0.7c0,0,0,0,0,0c0.3-0.1,0.5-0.1,0.8-0.1c0.2,0,0.4,0,0.6,0c0.1,0,0.2,0.1,0.3,0.2
		c0.1,0.1,0.1,0.2,0.1,0.4c0,0.1-0.1,0.1-0.1,0.1c0,0-0.1,0-0.1,0c-0.1,0-0.3,0-0.4,0c-0.2,0-0.4,0-0.6,0.1
		c-0.3,0.1-0.5,0.1-0.7,0.3c-0.4,0.3-0.5,0.7-0.4,1.2c0.1,0.3,0.2,0.5,0.5,0.6c0.3,0.1,0.6,0.1,0.9,0c0.2,0,0.4-0.1,0.5-0.2
		c0,0,0.1-0.1,0.1-0.1c0,0,0,0,0.1,0c0,0,0,0,0,0.1c0,0.1,0,0.1,0,0.2c0,0.1,0,0.1,0.1,0.1c0.1,0,0.3,0,0.4,0c0.1,0,0.3,0,0.4,0
		c0,0,0.1,0,0.1,0c0-0.1,0-0.2,0-0.3c0-0.2,0-0.3,0.1-0.5c0-0.2,0.1-0.4,0.1-0.6c0-0.2,0.1-0.4,0.1-0.6c0-0.2,0.1-0.4,0.1-0.6
		C52.2,18.4,52,18.2,51.8,18z M50.9,20.4c-0.2,0.3-0.6,0.5-0.9,0.3c-0.2-0.1-0.3-0.2-0.2-0.5c0-0.2,0.2-0.3,0.3-0.3
		c0.2-0.1,0.5-0.1,0.7-0.1c0.1,0,0.1,0,0.2,0c0.1,0,0.1,0,0.1,0.1C51,20.1,51,20.3,50.9,20.4z"/>
	<path class="st5" d="M54.5,18.7c0-0.2,0.1-0.4,0.2-0.5c0.1-0.1,0.1-0.2,0.2-0.4c-0.2,0-0.4,0-0.5,0.1c-0.2,0.1-0.4,0.2-0.5,0.4
		c0,0-0.1,0.1-0.1,0.1c0,0,0-0.1,0-0.1c0-0.1,0-0.2,0.1-0.4c0,0,0,0,0,0c-0.3,0-0.6,0-0.8,0c0,0,0,0,0,0c0,0.3-0.1,0.5-0.1,0.8
		c-0.1,0.3-0.1,0.6-0.2,0.8c0,0.3-0.1,0.5-0.1,0.8c0,0.2-0.1,0.5-0.1,0.7c0,0.2-0.1,0.3-0.1,0.5c0.3,0,0.7,0,1,0c0,0,0,0,0,0
		c0,0,0-0.1,0-0.1c0-0.2,0-0.4,0.1-0.6c0.1-0.3,0.1-0.6,0.2-1c0-0.2,0.1-0.5,0.2-0.7c0.1-0.1,0.2-0.2,0.4-0.3
		C54.2,18.8,54.3,18.8,54.5,18.7C54.5,18.8,54.5,18.8,54.5,18.7z"/>
	<path class="st7" d="M45.8,20.5c-0.1-0.2-0.1-0.3-0.2-0.5c-0.4,0-0.8,0-1.2,0c0,0.1,0,0.1,0,0.2c0,0.2-0.1,0.3-0.1,0.5
		c0.5,0,1.1,0,1.6,0C45.8,20.6,45.8,20.6,45.8,20.5z"/>
	<path class="st5" d="M58.7,20.7c-0.2,0-0.4,0.2-0.4,0.4c0,0.2,0.2,0.4,0.4,0.4c0.2,0,0.5-0.2,0.4-0.4
		C59.2,20.9,58.9,20.7,58.7,20.7z M58.7,21.5c-0.2,0-0.4-0.2-0.4-0.4c0-0.2,0.2-0.4,0.4-0.4c0.2,0,0.4,0.2,0.4,0.4
		C59.1,21.3,58.9,21.5,58.7,21.5z"/>
	<path class="st7" d="M33.7,19.7c-0.1,0-0.2,0-0.3,0c-0.2,0-0.4,0.1-0.5,0.2c-0.2,0.1-0.2,0.3-0.2,0.5c0,0.2,0.1,0.3,0.3,0.3
		c0.1,0,0.2,0,0.2,0c0.2,0,0.4-0.1,0.5-0.3c0.1-0.2,0.2-0.4,0.2-0.6c0,0,0-0.1,0-0.1C33.9,19.7,33.8,19.7,33.7,19.7z"/>
	<path class="st7" d="M40.9,19c0,0.1,0,0.2,0.1,0.2c0.2,0,0.3,0,0.5,0c0.2,0,0.3,0,0.5,0c0.1,0,0.1,0,0.1-0.1c0-0.1,0-0.2,0-0.2
		c-0.1-0.2-0.3-0.4-0.5-0.4C41.4,18.5,41,18.7,40.9,19z"/>
	<path class="st6" d="M56.6,18.6c-0.1,0-0.1,0-0.2,0c-0.1,0-0.2,0-0.3,0c-0.2,0.1-0.3,0.2-0.4,0.4c-0.1,0.3-0.3,0.5-0.2,0.8
		c0,0.1,0,0.2,0,0.3c0,0.1,0.1,0.3,0.2,0.4c0.1,0.1,0.3,0.2,0.5,0.2c0.3,0,0.5-0.1,0.6-0.3c0.1-0.2,0.2-0.4,0.2-0.6
		c0-0.2,0.1-0.4,0.1-0.6C57,18.9,56.9,18.7,56.6,18.6z"/>
	<path class="st8" d="M51,19.8c-0.1,0-0.1,0-0.2,0c-0.2,0-0.5,0-0.7,0.1c-0.2,0.1-0.3,0.2-0.3,0.3c-0.1,0.3,0,0.4,0.2,0.5
		c0.3,0.1,0.7,0,0.9-0.3c0.1-0.1,0.1-0.3,0.2-0.5C51.1,19.9,51.1,19.8,51,19.8z"/>
	<path class="st6" d="M58.7,20.7c-0.2,0-0.4,0.2-0.4,0.4c0,0.2,0.2,0.4,0.4,0.4c0.2,0,0.4-0.2,0.4-0.4
		C59.1,20.9,58.9,20.7,58.7,20.7z M58.9,21.3c0,0,0-0.1-0.1-0.1c0-0.1-0.1-0.1-0.2-0.1c0,0,0,0,0,0c0,0,0,0.1,0,0.1c0,0,0,0,0,0
		c0,0,0,0,0,0c0-0.2,0-0.3,0-0.5c0,0,0,0,0,0c0.1,0,0.2,0,0.4,0c0.1,0,0.1,0.2,0,0.2c-0.1,0-0.1,0.1,0,0.1
		C58.9,21.3,58.9,21.3,58.9,21.3C58.9,21.4,58.9,21.4,58.9,21.3z"/>
	<path class="st5" d="M58.9,21.1c0.1-0.1,0.1-0.2,0-0.2c-0.1-0.1-0.2,0-0.4,0c0,0,0,0,0,0c0,0.2,0,0.3,0,0.5c0,0,0,0,0,0
		c0,0,0,0,0,0c0,0,0-0.1,0-0.1c0,0,0,0,0,0c0.1,0,0.2,0,0.2,0.1c0,0,0,0.1,0.1,0.1c0,0,0,0.1,0.1,0c0-0.1,0-0.1-0.1-0.1
		C58.8,21.2,58.9,21.1,58.9,21.1z M58.7,21.1C58.7,21.1,58.7,21.1,58.7,21.1c-0.1,0-0.1,0-0.1-0.1c0-0.2,0-0.2,0.2-0.1
		c0.1,0,0.1,0.1,0.1,0.1C58.9,21,58.9,21.1,58.7,21.1C58.8,21.1,58.7,21.1,58.7,21.1z"/>
	<path class="st6" d="M58.8,20.9c-0.2-0.1-0.2,0-0.2,0.1c0,0,0,0.1,0.1,0.1c0,0,0,0,0.1,0c0,0,0.1,0,0.1,0
		C58.9,21.1,58.9,21,58.8,20.9C58.9,21,58.9,20.9,58.8,20.9z"/>
</g>
<g>
	<path class="st9" d="M64.7,11.5c0-2,0-3.9,0-5.9c0-0.1,0-0.2,0.2-0.2c1.3,0,2.5,0,3.8,0c0.9,0,1.6,0.6,1.8,1.3
		c0.6,1.9,1.2,3.8,1.7,5.7c0,0.1,0.1,0.3,0.2,0.3c0.1,0,0.2-0.2,0.2-0.3c0.6-1.9,1.2-3.8,1.8-5.7c0.2-0.8,0.9-1.3,1.7-1.3
		c1.3,0,2.6,0,3.9,0c0.1,0,0.1,0,0.1,0.1c0,3.9,0,7.8,0,11.8c0,0.1,0,0.1-0.1,0.1c-1.1,0-2.3,0-3.4,0c-0.1,0-0.1,0-0.1-0.2
		c0-2.2,0-4.4,0-6.6c0-0.1,0-0.1,0-0.2c0-0.1-0.1-0.2-0.2-0.3c-0.1,0-0.2,0-0.3,0.2c-0.1,0.2-0.1,0.5-0.2,0.7
		c-0.6,2.1-1.3,4.2-1.9,6.2c0,0.1-0.1,0.1-0.2,0.1c-0.8,0-1.6,0-2.4,0c-0.1,0-0.2,0-0.2-0.1c-0.4-1.2-0.7-2.4-1.1-3.6
		c-0.3-1.1-0.7-2.2-1-3.3c0-0.1-0.2-0.2-0.3-0.2c-0.1,0-0.2,0.1-0.2,0.3c0,0.8,0,1.5,0,2.3c0,1.5,0,3,0,4.6c0,0.1,0,0.1-0.1,0.1
		c-1.1,0-2.3,0-3.4,0c-0.1,0-0.2,0-0.2-0.2C64.7,15.4,64.7,13.4,64.7,11.5z"/>
	<path class="st9" d="M93.8,11.5c0,2,0,3.9,0,5.9c0,0.1,0,0.2-0.2,0.2c-1.1,0-2.2,0-3.4,0c-0.1,0-0.2,0-0.2-0.2c0-2.3,0-4.6,0-6.9
		c0,0,0-0.1,0-0.1c0-0.1-0.1-0.2-0.2-0.3c-0.1,0-0.2,0-0.3,0.2c-0.1,0.3-0.3,0.6-0.4,0.9c-0.9,1.8-1.7,3.6-2.6,5.5
		c-0.2,0.5-0.7,0.8-1.3,0.8c-1.1,0-2.3,0-3.4,0c-0.1,0-0.1,0-0.1-0.2c0-3.9,0-7.8,0-11.7c0-0.1,0-0.2,0.2-0.2c1.1,0,2.2,0,3.3,0
		c0.1,0,0.2,0,0.2,0.2c0,2.2,0,4.5,0,6.7c0,0,0,0.1,0,0.1c0,0.1,0.1,0.3,0.2,0.3c0.1,0,0.2-0.1,0.3-0.2c0.3-0.7,0.6-1.4,1-2.1
		c0.6-1.4,1.3-2.8,2-4.2c0.3-0.5,0.7-0.8,1.3-0.8c1.1,0,2.3,0,3.4,0c0.1,0,0.2,0,0.2,0.2C93.8,7.6,93.8,9.5,93.8,11.5z"/>
	<path class="st9" d="M101.5,10.9c1.9,0,3.8,0,5.7,0c0.1,0,0.2,0,0.1,0.1c-0.7,1.5-1.8,2.3-3.4,2.5c-0.4,0-0.8,0-1.1,0
		c-1.1,0-2.1,0-3.2,0c-0.1,0-0.2,0-0.2,0.2c0,1.2,0,2.4,0,3.6c0,0.1,0,0.2-0.2,0.2c-1.1,0-2.3,0-3.4,0c-0.1,0-0.1,0-0.1-0.1
		c0-2.1,0-4.2,0-6.4c0-0.1,0.1-0.1,0.2-0.1C97.7,10.9,99.6,10.9,101.5,10.9z"/>
	<linearGradient id="SVGID_1_" gradientUnits="userSpaceOnUse" x1="95.1413" y1="7.8695" x2="107.526" y2="7.8695">
		<stop  offset="0" style="stop-color:#06AAEA"/>
		<stop  offset="0.2408" style="stop-color:#049DDC"/>
		<stop  offset="1" style="stop-color:#0077B2"/>
	</linearGradient>
	<path class="st10" d="M106.7,7c-0.9-1.2-2.2-1.6-3.7-1.6c-0.1,0-0.1,0-0.2,0c-0.8,0-1.6,0-2.4,0c-0.3,0-0.6,0-0.9,0
		c0,0-0.1,0-0.1,0c-1.1,0-2.1,0-3.2,0c-0.3,0-0.6,0-0.9,0c-0.1,0-0.1,0-0.1,0.1c0,0.2,0,0.3,0.1,0.5c0.2,0.8,0.5,1.5,1.1,2.1
		c0.7,0.8,1.5,1.4,2.4,1.7c0,0,0,0,0,0c0,0,0,0,0,0c0.3,0.1,0.6,0.2,0.9,0.3c0.1,0,0.3,0.1,0.4,0.1c0.1,0,0.1,0,0.2,0
		c0.3,0,0.7,0.1,1,0.1c2,0,4.1,0,6.1,0c0,0,0.1,0,0.1,0c0.1-0.1,0.1-0.3,0.1-0.4C107.6,8.8,107.3,7.8,106.7,7z M102.9,10.2
		C102.9,10.2,102.9,10.2,102.9,10.2C102.9,10.2,102.9,10.2,102.9,10.2C102.9,10.2,102.9,10.2,102.9,10.2z"/>
</g>
<g>
	<path class="st11" d="M92.9,24.7c-0.9-0.4-1.7-0.7-2.7-0.8c-0.4-0.1-0.8-0.1-1.2,0c-0.4,0.1-0.8,0.3-0.9,0.7
		c-0.1,0.4-0.1,0.8,0.2,1.2c0.4,0.4,0.8,0.6,1.3,0.8c0.4,0.2,0.7,0.4,1.1,0.6c1.9,1.2,2.3,3.6,1,5.4c-0.6,0.8-1.3,1.3-2.2,1.7
		c-2,0.7-4,0.9-6,0.4c-0.4-0.1-0.7-0.3-1.1-0.4c-0.2-0.1-0.2-0.2-0.2-0.4c0.2-0.8,0.5-1.7,0.7-2.5c0.1-0.2,0.1-0.3,0.4-0.1
		c1,0.7,2.2,1.1,3.4,0.9c0.4,0,0.8-0.1,1.2-0.3c0.6-0.3,1-1.2,0.2-1.8c-0.4-0.3-0.9-0.6-1.3-0.9c-0.4-0.2-0.8-0.5-1.2-0.8
		c-2.3-1.7-1.7-4.4,0-5.7c0.9-0.7,2-1.1,3.2-1.3c1.4-0.2,2.9-0.1,4.2,0.4c0.2,0.1,0.3,0.2,0.3,0.4C93.2,22.9,93.1,23.8,92.9,24.7z"
		/>
	<path class="st11" d="M70.8,28.7c0,0.4,0.1,0.7,0.2,1.1c0.1-0.1,0.2-0.3,0.2-0.4c1.1-2.6,2.2-5.2,3.3-7.7c0.1-0.2,0.2-0.3,0.4-0.3
		c1.1,0,2.2,0,3.2,0c0.2,0,0.3,0,0.2,0.3c-1.7,3.6-3.3,7.1-5,10.7c-0.3,0.6-0.6,1.2-1.1,1.7c-0.4,0.4-0.9,0.7-1.5,0.7
		c-0.6,0-1.1,0-1.7,0c-0.2,0-0.3,0-0.3-0.2c-0.5-3-1.1-5.9-1.6-8.9c-0.1-0.7-0.2-1.3-0.3-2c0.1-0.1,0.2,0,0.3,0
		c1.6,0.8,2.8,2.1,3.5,3.8C70.6,27.8,70.7,28.2,70.8,28.7z"/>
	<path class="st12" d="M78.5,34.7c-0.5,0-1,0-1.4,0c-0.2,0-0.3-0.1-0.2-0.3c0.6-2.8,1.2-5.6,1.8-8.4c0.3-1.4,0.6-2.8,0.9-4.2
		c0.1-0.3,0.2-0.4,0.5-0.4c0.9,0,1.8,0,2.7,0c0.2,0,0.3,0,0.3,0.3c-0.7,3.3-1.4,6.6-2.2,9.9c-0.2,1-0.4,1.9-0.6,2.9
		c0,0.2-0.1,0.3-0.3,0.3C79.5,34.7,79,34.7,78.5,34.7z"/>
	<g>
		<path class="st13" d="M70.5,26.7C70.5,26.7,70.5,26.7,70.5,26.7C70.5,26.7,70.5,26.7,70.5,26.7c-0.2-1.7-0.5-3.4-0.7-5.2
			c0-0.2-0.1-0.2-0.3-0.2c-1.9,0-3.8,0-5.7,0c-0.2,0-0.3,0.1-0.3,0.3c-0.1,0.3-0.1,0.6-0.2,0.8c-0.1,0.2,0,0.3,0.2,0.3
			c0.6,0,1.2,0.2,1.8,0.3c0.5,0.1,0.9,0.3,1.3,0.5c0.3,0.1,0.6,0.3,0.8,0.4c1.3,0.8,2.3,1.9,2.9,3.4c0.1,0.1,0.1,0.1,0.2,0.2
			C70.6,27.3,70.4,27,70.5,26.7z"/>
		<path class="st14" d="M70.5,26.7C70.5,26.7,70.5,26.7,70.5,26.7c-0.1,0.3,0.1,0.6,0,0.9c-0.1-0.1-0.1-0.2-0.2-0.2
			c0.1,0.4,0.3,0.8,0.4,1.2C70.7,28,70.7,27.4,70.5,26.7z"/>
	</g>
	<path class="st15" d="M104.4,34.4c-0.2-1.4-0.5-2.9-0.7-4.4c-0.4-2.8-0.9-5.6-1.3-8.4c0-0.2-0.1-0.3-0.3-0.3c-0.8,0-1.6,0-2.4,0
		c-0.6,0-1,0.2-1.4,0.6c-0.5,0.5-0.8,1.1-1.1,1.7c-1.4,2.9-2.7,5.7-4,8.6c-0.4,0.8-0.7,1.6-1.1,2.3c0,0,0.1,0,0.1,0
		c1.2,0,2.4,0,3.6,0c0.2,0,0.2-0.1,0.2-0.2c0.3-0.7,0.6-1.3,0.8-2c0.1-0.2,0.2-0.2,0.3-0.2c1.1,0,2.2,0,3.3,0c0.2,0,0.2,0.1,0.3,0.2
		c0.1,0.7,0.2,1.3,0.3,2c0,0.2,0.1,0.2,0.3,0.2c1,0,2,0,3.1,0C104.4,34.7,104.4,34.7,104.4,34.4z M99.8,29.5c-0.3,0-0.6,0-0.9,0
		c0,0,0,0,0,0c-0.3,0-0.6,0-0.9,0c-0.2,0-0.2-0.1-0.2-0.2c0.5-1.1,0.9-2.3,1.4-3.4c0-0.1,0-0.2,0.1-0.2c0.1,0,0.1,0.1,0.1,0.2
		c0.2,1.1,0.3,2.3,0.5,3.4C100.1,29.4,100,29.5,99.8,29.5z"/>
</g>
</svg>
