<svg xmlns="http://www.w3.org/2000/svg" width="512" height="512" viewBox="0 0 512 512" version="1.1"><path d="M 345 255.933 C 345 414.683, 345.337 496, 345.996 496 C 346.544 496, 352.281 493.648, 358.746 490.772 C 390.125 476.816, 412.991 461.135, 437.063 437.063 C 476.666 397.460, 499.373 352.713, 509.660 294 C 512.302 278.925, 512.308 234.358, 509.671 218.500 C 501.943 172.030, 485.642 134.053, 457.950 98 C 448.930 86.257, 426.378 63.590, 415 54.831 C 403.240 45.777, 390.098 37.081, 379.475 31.323 C 370.724 26.580, 351.756 17.875, 347.250 16.535 L 345 15.865 345 255.933" stroke="none" fill="#d80027" fill-rule="evenodd"/><path d="M 162.500 17.179 C 160.850 17.740, 151.850 21.952, 142.500 26.538 C 115.332 39.864, 96.876 53.094, 74.937 74.974 C 36.065 113.740, 12.458 159.717, 2.782 215.500 C 0.803 226.912, 0.529 231.919, 0.540 256.500 C 0.551 282.678, 0.730 285.465, 3.281 299.324 C 6.284 315.630, 9.501 328.030, 14.093 341 C 36.271 403.636, 82.142 455.690, 141.075 485.097 C 150.473 489.787, 164.727 496, 166.089 496 C 166.635 496, 167 399.776, 167 256 C 167 124, 166.662 16.036, 166.250 16.079 C 165.838 16.122, 164.150 16.617, 162.500 17.179" stroke="none" fill="#0454b4" fill-rule="evenodd"/><path d="M 223.532 1.575 C 209.235 3.475, 193.358 7.047, 178.750 11.650 L 167 15.351 167 256 L 167 496.649 178.750 500.350 C 204.689 508.522, 227.750 512, 256 512 C 284.250 512, 307.311 508.522, 333.250 500.350 L 345 496.649 345 256.001 L 345 15.353 335.250 12.199 C 323.069 8.259, 307.513 4.515, 294.500 2.393 C 280.395 0.092, 238.330 -0.393, 223.532 1.575" stroke="none" fill="#f3f3f3" fill-rule="evenodd"/></svg>